%TF.GenerationSoftware,KiCad,Pcbnew,8.0.5*%
%TF.CreationDate,2024-10-30T03:14:09+09:00*%
%TF.ProjectId,FAN_controler_arduino_nano_2,46414e5f-636f-46e7-9472-6f6c65725f61,2.0*%
%TF.SameCoordinates,Original*%
%TF.FileFunction,Soldermask,Top*%
%TF.FilePolarity,Negative*%
%FSLAX46Y46*%
G04 Gerber Fmt 4.6, Leading zero omitted, Abs format (unit mm)*
G04 Created by KiCad (PCBNEW 8.0.5) date 2024-10-30 03:14:09*
%MOMM*%
%LPD*%
G01*
G04 APERTURE LIST*
G04 Aperture macros list*
%AMRoundRect*
0 Rectangle with rounded corners*
0 $1 Rounding radius*
0 $2 $3 $4 $5 $6 $7 $8 $9 X,Y pos of 4 corners*
0 Add a 4 corners polygon primitive as box body*
4,1,4,$2,$3,$4,$5,$6,$7,$8,$9,$2,$3,0*
0 Add four circle primitives for the rounded corners*
1,1,$1+$1,$2,$3*
1,1,$1+$1,$4,$5*
1,1,$1+$1,$6,$7*
1,1,$1+$1,$8,$9*
0 Add four rect primitives between the rounded corners*
20,1,$1+$1,$2,$3,$4,$5,0*
20,1,$1+$1,$4,$5,$6,$7,0*
20,1,$1+$1,$6,$7,$8,$9,0*
20,1,$1+$1,$8,$9,$2,$3,0*%
G04 Aperture macros list end*
%ADD10RoundRect,0.237500X-0.300000X-0.237500X0.300000X-0.237500X0.300000X0.237500X-0.300000X0.237500X0*%
%ADD11RoundRect,0.237500X-0.250000X-0.237500X0.250000X-0.237500X0.250000X0.237500X-0.250000X0.237500X0*%
%ADD12O,1.800000X2.600000*%
%ADD13R,1.800000X2.600000*%
%ADD14C,3.000000*%
%ADD15R,1.600000X1.600000*%
%ADD16O,1.600000X1.600000*%
%ADD17C,2.000000*%
%ADD18C,1.600000*%
%ADD19C,1.100000*%
%ADD20R,1.730000X2.030000*%
%ADD21O,1.730000X2.030000*%
%ADD22RoundRect,0.237500X0.250000X0.237500X-0.250000X0.237500X-0.250000X-0.237500X0.250000X-0.237500X0*%
%ADD23C,1.440000*%
%ADD24R,3.500000X3.500000*%
%ADD25RoundRect,0.750000X-0.750000X-1.000000X0.750000X-1.000000X0.750000X1.000000X-0.750000X1.000000X0*%
%ADD26RoundRect,0.875000X-0.875000X-0.875000X0.875000X-0.875000X0.875000X0.875000X-0.875000X0.875000X0*%
G04 APERTURE END LIST*
D10*
%TO.C,C_Decoupling2*%
X129137500Y-102200000D03*
X130862500Y-102200000D03*
%TD*%
D11*
%TO.C,R1*%
X145287500Y-83000000D03*
X147112500Y-83000000D03*
%TD*%
D10*
%TO.C,C2*%
X145075000Y-93000000D03*
X146800000Y-93000000D03*
%TD*%
D12*
%TO.C,LCD1*%
X164600520Y-107199300D03*
X162060520Y-107199300D03*
X159520520Y-107199300D03*
X156980520Y-107199300D03*
X154440520Y-107199300D03*
X151900520Y-107199300D03*
X149360520Y-107199300D03*
X146820520Y-107199300D03*
X144280520Y-107199300D03*
X141740520Y-107199300D03*
X139200520Y-107199300D03*
X136660520Y-107199300D03*
X134120520Y-107199300D03*
X131580520Y-107199300D03*
X129040520Y-107199300D03*
D13*
X126500520Y-107199300D03*
D14*
X196000520Y-107199300D03*
X196000000Y-138200000D03*
X121001420Y-138200000D03*
X121001420Y-107199300D03*
%TD*%
D15*
%TO.C,A1*%
X156440000Y-98000000D03*
D16*
X158980000Y-98000000D03*
X161520000Y-98000000D03*
X164060000Y-98000000D03*
X166600000Y-98000000D03*
X169140000Y-98000000D03*
X171680000Y-98000000D03*
X174220000Y-98000000D03*
X176760000Y-98000000D03*
X179300000Y-98000000D03*
X181840000Y-98000000D03*
X184380000Y-98000000D03*
X186920000Y-98000000D03*
X189460000Y-98000000D03*
X192000000Y-98000000D03*
X192000000Y-82760000D03*
X189460000Y-82760000D03*
X186920000Y-82760000D03*
X184380000Y-82760000D03*
X181840000Y-82760000D03*
X179300000Y-82760000D03*
X176760000Y-82760000D03*
X174220000Y-82760000D03*
X171680000Y-82760000D03*
X169140000Y-82760000D03*
X166600000Y-82760000D03*
X164060000Y-82760000D03*
X161520000Y-82760000D03*
X158980000Y-82760000D03*
X156440000Y-82760000D03*
%TD*%
D17*
%TO.C,SW1*%
X108100000Y-134450000D03*
X108100000Y-127950000D03*
X112600000Y-134450000D03*
X112600000Y-127950000D03*
%TD*%
D15*
%TO.C,C3*%
X121994888Y-91000000D03*
D18*
X124494888Y-91000000D03*
%TD*%
D10*
%TO.C,C_Decoupling1*%
X162137500Y-102000000D03*
X163862500Y-102000000D03*
%TD*%
D19*
%TO.C,FAN1*%
X135140000Y-93240000D03*
D20*
X130060000Y-95400000D03*
D21*
X132600000Y-95400000D03*
X135140000Y-95400000D03*
X137680000Y-95400000D03*
%TD*%
D10*
%TO.C,C_Debounce1*%
X109537500Y-118600000D03*
X111262500Y-118600000D03*
%TD*%
D22*
%TO.C,R_pull_up1*%
X146850000Y-88600000D03*
X145025000Y-88600000D03*
%TD*%
D10*
%TO.C,C1*%
X122337500Y-84000000D03*
X124062500Y-84000000D03*
%TD*%
D11*
%TO.C,R_Debounce1*%
X109487500Y-123200000D03*
X111312500Y-123200000D03*
%TD*%
D19*
%TO.C,MAIN_FAN1*%
X135140000Y-83240000D03*
D20*
X130060000Y-85400000D03*
D21*
X132600000Y-85400000D03*
X135140000Y-85400000D03*
X137680000Y-85400000D03*
%TD*%
D23*
%TO.C,RV1*%
X111200000Y-107050000D03*
X111200000Y-109590000D03*
X111200000Y-112130000D03*
%TD*%
D24*
%TO.C,J1*%
X116400000Y-86800000D03*
D25*
X110400000Y-86800000D03*
D26*
X113400000Y-91500000D03*
%TD*%
M02*
