M48
; DRILL file {KiCad 8.0.5} date 2024-10-30T03:14:10+0900
; FORMAT={-:-/ absolute / metric / decimal}
; #@! TF.CreationDate,2024-10-30T03:14:10+09:00
; #@! TF.GenerationSoftware,Kicad,Pcbnew,8.0.5
; #@! TF.FileFunction,MixedPlating,1,2
FMAT,2
METRIC
; #@! TA.AperFunction,Plated,PTH,ViaDrill
T1C0.300
; #@! TA.AperFunction,Plated,PTH,ComponentDrill
T2C0.800
; #@! TA.AperFunction,Plated,PTH,ComponentDrill
T3C1.000
; #@! TA.AperFunction,Plated,PTH,ComponentDrill
T4C1.020
; #@! TA.AperFunction,Plated,PTH,ComponentDrill
T5C1.100
; #@! TA.AperFunction,Plated,PTH,ComponentDrill
T6C1.200
; #@! TA.AperFunction,Plated,PTH,ComponentDrill
T7C2.500
; #@! TA.AperFunction,NonPlated,NPTH,ComponentDrill
T8C1.100
%
G90
G05
T1
X103.8Y-81.4
X103.8Y-86.6
X104.2Y-106.6
X104.2Y-117.4
X104.2Y-129.2
X104.2Y-140.0
X104.4Y-93.8
X108.4Y-83.4
X109.4Y-109.6
X110.2Y-90.2
X110.4Y-127.0
X110.4Y-131.2
X110.6Y-100.4
X110.6Y-115.6
X111.4Y-120.8
X111.8Y-140.2
X113.0Y-111.8
X113.4Y-86.8
X114.2Y-129.6
X115.8Y-134.6
X116.2Y-107.2
X116.4Y-83.8
X116.4Y-124.6
X116.6Y-90.2
X118.8Y-100.6
X119.2Y-140.0
X119.4Y-105.4
X119.6Y-92.6
X120.8Y-88.6
X121.0Y-81.2
X122.2Y-112.0
X122.8Y-116.6
X124.0Y-85.6
X124.0Y-89.0
X124.0Y-107.0
X125.8Y-129.4
X126.0Y-83.2
X127.2Y-103.2
X127.4Y-98.4
X127.6Y-92.4
X129.6Y-83.4
X129.8Y-112.4
X130.4Y-105.2
X130.6Y-91.8
X131.0Y-88.2
X132.0Y-81.0
X132.2Y-140.0
X132.6Y-102.6
X134.0Y-93.4
X134.2Y-87.2
X134.6Y-105.0
X135.4Y-109.2
X136.2Y-88.2
X136.4Y-93.4
X136.6Y-83.6
X136.8Y-102.6
X137.4Y-116.8
X137.8Y-109.2
X138.0Y-98.0
X138.4Y-129.4
X139.0Y-90.4
X139.6Y-94.0
X140.0Y-87.2
X142.6Y-112.4
X143.2Y-90.4
X143.6Y-84.0
X143.8Y-98.0
X144.8Y-94.8
X145.2Y-140.0
X146.6Y-90.2
X148.0Y-81.0
X148.4Y-94.4
X148.8Y-98.0
X150.6Y-87.0
X150.6Y-120.2
X152.0Y-125.8
X153.2Y-84.2
X153.4Y-90.0
X153.6Y-98.0
X155.8Y-95.4
X157.2Y-87.0
X157.6Y-120.2
X158.2Y-112.6
X159.0Y-81.0
X159.0Y-84.4
X160.4Y-88.4
X161.0Y-140.0
X161.2Y-92.2
X163.4Y-105.0
X164.0Y-84.4
X165.0Y-95.6
X165.0Y-103.4
X166.0Y-126.0
X166.4Y-87.6
X166.6Y-105.4
X167.4Y-109.6
X167.8Y-84.2
X168.6Y-103.4
X169.0Y-87.0
X169.2Y-91.8
X169.4Y-96.0
X171.4Y-87.0
X171.6Y-81.0
X172.6Y-120.2
X173.2Y-103.8
X174.0Y-140.0
X174.2Y-85.0
X175.2Y-96.0
X175.4Y-91.2
X178.0Y-89.6
X180.2Y-96.0
X180.2Y-112.6
X180.8Y-126.0
X184.0Y-95.8
X184.4Y-81.0
X185.2Y-103.8
X185.2Y-120.2
X186.6Y-85.0
X186.8Y-90.4
X187.0Y-140.0
X190.8Y-96.2
X192.8Y-112.6
X192.8Y-126.0
X193.8Y-100.6
X197.6Y-97.6
X197.6Y-103.4
X197.6Y-110.0
X197.8Y-82.0
X197.8Y-87.6
X197.8Y-119.2
X197.8Y-132.0
X198.0Y-140.0
T2
X111.2Y-107.05
X111.2Y-109.59
X111.2Y-112.13
X121.995Y-91.0
X124.495Y-91.0
T3
X156.44Y-82.76
X156.44Y-98.0
X158.98Y-82.76
X158.98Y-98.0
X161.52Y-82.76
X161.52Y-98.0
X164.06Y-82.76
X164.06Y-98.0
X166.6Y-82.76
X166.6Y-98.0
X169.14Y-82.76
X169.14Y-98.0
X171.68Y-82.76
X171.68Y-98.0
X174.22Y-82.76
X174.22Y-98.0
X176.76Y-82.76
X176.76Y-98.0
X179.3Y-82.76
X179.3Y-98.0
X181.84Y-82.76
X181.84Y-98.0
X184.38Y-82.76
X184.38Y-98.0
X186.92Y-82.76
X186.92Y-98.0
X189.46Y-82.76
X189.46Y-98.0
X192.0Y-82.76
X192.0Y-98.0
T4
X130.06Y-85.4
X130.06Y-95.4
X132.6Y-85.4
X132.6Y-95.4
X135.14Y-85.4
X135.14Y-95.4
X137.68Y-85.4
X137.68Y-95.4
T5
X108.1Y-127.95
X108.1Y-134.45
X112.6Y-127.95
X112.6Y-134.45
T6
X126.501Y-107.199
X129.041Y-107.199
X131.581Y-107.199
X134.121Y-107.199
X136.661Y-107.199
X139.201Y-107.199
X141.741Y-107.199
X144.281Y-107.199
X146.821Y-107.199
X149.361Y-107.199
X151.901Y-107.199
X154.441Y-107.199
X156.981Y-107.199
X159.521Y-107.199
X162.061Y-107.199
X164.601Y-107.199
T7
X121.001Y-107.199
X121.001Y-138.2
X196.0Y-138.2
X196.001Y-107.199
T8
X135.14Y-83.24
X135.14Y-93.24
T3
G00X110.4Y-85.8
M15
G01X110.4Y-87.8
M16
G05
G00X112.4Y-91.5
M15
G01X114.4Y-91.5
M16
G05
G00X116.4Y-85.8
M15
G01X116.4Y-87.8
M16
G05
M30
