%TF.GenerationSoftware,KiCad,Pcbnew,8.0.5*%
%TF.CreationDate,2024-10-30T03:14:09+09:00*%
%TF.ProjectId,FAN_controler_arduino_nano_2,46414e5f-636f-46e7-9472-6f6c65725f61,2.0*%
%TF.SameCoordinates,Original*%
%TF.FileFunction,Legend,Top*%
%TF.FilePolarity,Positive*%
%FSLAX46Y46*%
G04 Gerber Fmt 4.6, Leading zero omitted, Abs format (unit mm)*
G04 Created by KiCad (PCBNEW 8.0.5) date 2024-10-30 03:14:09*
%MOMM*%
%LPD*%
G01*
G04 APERTURE LIST*
%ADD10C,0.150000*%
%ADD11C,0.120000*%
G04 APERTURE END LIST*
D10*
X125333332Y-101129580D02*
X125285713Y-101177200D01*
X125285713Y-101177200D02*
X125142856Y-101224819D01*
X125142856Y-101224819D02*
X125047618Y-101224819D01*
X125047618Y-101224819D02*
X124904761Y-101177200D01*
X124904761Y-101177200D02*
X124809523Y-101081961D01*
X124809523Y-101081961D02*
X124761904Y-100986723D01*
X124761904Y-100986723D02*
X124714285Y-100796247D01*
X124714285Y-100796247D02*
X124714285Y-100653390D01*
X124714285Y-100653390D02*
X124761904Y-100462914D01*
X124761904Y-100462914D02*
X124809523Y-100367676D01*
X124809523Y-100367676D02*
X124904761Y-100272438D01*
X124904761Y-100272438D02*
X125047618Y-100224819D01*
X125047618Y-100224819D02*
X125142856Y-100224819D01*
X125142856Y-100224819D02*
X125285713Y-100272438D01*
X125285713Y-100272438D02*
X125333332Y-100320057D01*
X125523809Y-101320057D02*
X126285713Y-101320057D01*
X126523809Y-101224819D02*
X126523809Y-100224819D01*
X126523809Y-100224819D02*
X126761904Y-100224819D01*
X126761904Y-100224819D02*
X126904761Y-100272438D01*
X126904761Y-100272438D02*
X126999999Y-100367676D01*
X126999999Y-100367676D02*
X127047618Y-100462914D01*
X127047618Y-100462914D02*
X127095237Y-100653390D01*
X127095237Y-100653390D02*
X127095237Y-100796247D01*
X127095237Y-100796247D02*
X127047618Y-100986723D01*
X127047618Y-100986723D02*
X126999999Y-101081961D01*
X126999999Y-101081961D02*
X126904761Y-101177200D01*
X126904761Y-101177200D02*
X126761904Y-101224819D01*
X126761904Y-101224819D02*
X126523809Y-101224819D01*
X127904761Y-101177200D02*
X127809523Y-101224819D01*
X127809523Y-101224819D02*
X127619047Y-101224819D01*
X127619047Y-101224819D02*
X127523809Y-101177200D01*
X127523809Y-101177200D02*
X127476190Y-101081961D01*
X127476190Y-101081961D02*
X127476190Y-100701009D01*
X127476190Y-100701009D02*
X127523809Y-100605771D01*
X127523809Y-100605771D02*
X127619047Y-100558152D01*
X127619047Y-100558152D02*
X127809523Y-100558152D01*
X127809523Y-100558152D02*
X127904761Y-100605771D01*
X127904761Y-100605771D02*
X127952380Y-100701009D01*
X127952380Y-100701009D02*
X127952380Y-100796247D01*
X127952380Y-100796247D02*
X127476190Y-100891485D01*
X128809523Y-101177200D02*
X128714285Y-101224819D01*
X128714285Y-101224819D02*
X128523809Y-101224819D01*
X128523809Y-101224819D02*
X128428571Y-101177200D01*
X128428571Y-101177200D02*
X128380952Y-101129580D01*
X128380952Y-101129580D02*
X128333333Y-101034342D01*
X128333333Y-101034342D02*
X128333333Y-100748628D01*
X128333333Y-100748628D02*
X128380952Y-100653390D01*
X128380952Y-100653390D02*
X128428571Y-100605771D01*
X128428571Y-100605771D02*
X128523809Y-100558152D01*
X128523809Y-100558152D02*
X128714285Y-100558152D01*
X128714285Y-100558152D02*
X128809523Y-100605771D01*
X129380952Y-101224819D02*
X129285714Y-101177200D01*
X129285714Y-101177200D02*
X129238095Y-101129580D01*
X129238095Y-101129580D02*
X129190476Y-101034342D01*
X129190476Y-101034342D02*
X129190476Y-100748628D01*
X129190476Y-100748628D02*
X129238095Y-100653390D01*
X129238095Y-100653390D02*
X129285714Y-100605771D01*
X129285714Y-100605771D02*
X129380952Y-100558152D01*
X129380952Y-100558152D02*
X129523809Y-100558152D01*
X129523809Y-100558152D02*
X129619047Y-100605771D01*
X129619047Y-100605771D02*
X129666666Y-100653390D01*
X129666666Y-100653390D02*
X129714285Y-100748628D01*
X129714285Y-100748628D02*
X129714285Y-101034342D01*
X129714285Y-101034342D02*
X129666666Y-101129580D01*
X129666666Y-101129580D02*
X129619047Y-101177200D01*
X129619047Y-101177200D02*
X129523809Y-101224819D01*
X129523809Y-101224819D02*
X129380952Y-101224819D01*
X130571428Y-100558152D02*
X130571428Y-101224819D01*
X130142857Y-100558152D02*
X130142857Y-101081961D01*
X130142857Y-101081961D02*
X130190476Y-101177200D01*
X130190476Y-101177200D02*
X130285714Y-101224819D01*
X130285714Y-101224819D02*
X130428571Y-101224819D01*
X130428571Y-101224819D02*
X130523809Y-101177200D01*
X130523809Y-101177200D02*
X130571428Y-101129580D01*
X131047619Y-100558152D02*
X131047619Y-101558152D01*
X131047619Y-100605771D02*
X131142857Y-100558152D01*
X131142857Y-100558152D02*
X131333333Y-100558152D01*
X131333333Y-100558152D02*
X131428571Y-100605771D01*
X131428571Y-100605771D02*
X131476190Y-100653390D01*
X131476190Y-100653390D02*
X131523809Y-100748628D01*
X131523809Y-100748628D02*
X131523809Y-101034342D01*
X131523809Y-101034342D02*
X131476190Y-101129580D01*
X131476190Y-101129580D02*
X131428571Y-101177200D01*
X131428571Y-101177200D02*
X131333333Y-101224819D01*
X131333333Y-101224819D02*
X131142857Y-101224819D01*
X131142857Y-101224819D02*
X131047619Y-101177200D01*
X132095238Y-101224819D02*
X132000000Y-101177200D01*
X132000000Y-101177200D02*
X131952381Y-101081961D01*
X131952381Y-101081961D02*
X131952381Y-100224819D01*
X132476191Y-101224819D02*
X132476191Y-100558152D01*
X132476191Y-100224819D02*
X132428572Y-100272438D01*
X132428572Y-100272438D02*
X132476191Y-100320057D01*
X132476191Y-100320057D02*
X132523810Y-100272438D01*
X132523810Y-100272438D02*
X132476191Y-100224819D01*
X132476191Y-100224819D02*
X132476191Y-100320057D01*
X132952381Y-100558152D02*
X132952381Y-101224819D01*
X132952381Y-100653390D02*
X133000000Y-100605771D01*
X133000000Y-100605771D02*
X133095238Y-100558152D01*
X133095238Y-100558152D02*
X133238095Y-100558152D01*
X133238095Y-100558152D02*
X133333333Y-100605771D01*
X133333333Y-100605771D02*
X133380952Y-100701009D01*
X133380952Y-100701009D02*
X133380952Y-101224819D01*
X134285714Y-100558152D02*
X134285714Y-101367676D01*
X134285714Y-101367676D02*
X134238095Y-101462914D01*
X134238095Y-101462914D02*
X134190476Y-101510533D01*
X134190476Y-101510533D02*
X134095238Y-101558152D01*
X134095238Y-101558152D02*
X133952381Y-101558152D01*
X133952381Y-101558152D02*
X133857143Y-101510533D01*
X134285714Y-101177200D02*
X134190476Y-101224819D01*
X134190476Y-101224819D02*
X134000000Y-101224819D01*
X134000000Y-101224819D02*
X133904762Y-101177200D01*
X133904762Y-101177200D02*
X133857143Y-101129580D01*
X133857143Y-101129580D02*
X133809524Y-101034342D01*
X133809524Y-101034342D02*
X133809524Y-100748628D01*
X133809524Y-100748628D02*
X133857143Y-100653390D01*
X133857143Y-100653390D02*
X133904762Y-100605771D01*
X133904762Y-100605771D02*
X134000000Y-100558152D01*
X134000000Y-100558152D02*
X134190476Y-100558152D01*
X134190476Y-100558152D02*
X134285714Y-100605771D01*
X134714286Y-100320057D02*
X134761905Y-100272438D01*
X134761905Y-100272438D02*
X134857143Y-100224819D01*
X134857143Y-100224819D02*
X135095238Y-100224819D01*
X135095238Y-100224819D02*
X135190476Y-100272438D01*
X135190476Y-100272438D02*
X135238095Y-100320057D01*
X135238095Y-100320057D02*
X135285714Y-100415295D01*
X135285714Y-100415295D02*
X135285714Y-100510533D01*
X135285714Y-100510533D02*
X135238095Y-100653390D01*
X135238095Y-100653390D02*
X134666667Y-101224819D01*
X134666667Y-101224819D02*
X135285714Y-101224819D01*
X146033333Y-82054819D02*
X145700000Y-81578628D01*
X145461905Y-82054819D02*
X145461905Y-81054819D01*
X145461905Y-81054819D02*
X145842857Y-81054819D01*
X145842857Y-81054819D02*
X145938095Y-81102438D01*
X145938095Y-81102438D02*
X145985714Y-81150057D01*
X145985714Y-81150057D02*
X146033333Y-81245295D01*
X146033333Y-81245295D02*
X146033333Y-81388152D01*
X146033333Y-81388152D02*
X145985714Y-81483390D01*
X145985714Y-81483390D02*
X145938095Y-81531009D01*
X145938095Y-81531009D02*
X145842857Y-81578628D01*
X145842857Y-81578628D02*
X145461905Y-81578628D01*
X146985714Y-82054819D02*
X146414286Y-82054819D01*
X146700000Y-82054819D02*
X146700000Y-81054819D01*
X146700000Y-81054819D02*
X146604762Y-81197676D01*
X146604762Y-81197676D02*
X146509524Y-81292914D01*
X146509524Y-81292914D02*
X146414286Y-81340533D01*
X145770833Y-91959580D02*
X145723214Y-92007200D01*
X145723214Y-92007200D02*
X145580357Y-92054819D01*
X145580357Y-92054819D02*
X145485119Y-92054819D01*
X145485119Y-92054819D02*
X145342262Y-92007200D01*
X145342262Y-92007200D02*
X145247024Y-91911961D01*
X145247024Y-91911961D02*
X145199405Y-91816723D01*
X145199405Y-91816723D02*
X145151786Y-91626247D01*
X145151786Y-91626247D02*
X145151786Y-91483390D01*
X145151786Y-91483390D02*
X145199405Y-91292914D01*
X145199405Y-91292914D02*
X145247024Y-91197676D01*
X145247024Y-91197676D02*
X145342262Y-91102438D01*
X145342262Y-91102438D02*
X145485119Y-91054819D01*
X145485119Y-91054819D02*
X145580357Y-91054819D01*
X145580357Y-91054819D02*
X145723214Y-91102438D01*
X145723214Y-91102438D02*
X145770833Y-91150057D01*
X146151786Y-91150057D02*
X146199405Y-91102438D01*
X146199405Y-91102438D02*
X146294643Y-91054819D01*
X146294643Y-91054819D02*
X146532738Y-91054819D01*
X146532738Y-91054819D02*
X146627976Y-91102438D01*
X146627976Y-91102438D02*
X146675595Y-91150057D01*
X146675595Y-91150057D02*
X146723214Y-91245295D01*
X146723214Y-91245295D02*
X146723214Y-91340533D01*
X146723214Y-91340533D02*
X146675595Y-91483390D01*
X146675595Y-91483390D02*
X146104167Y-92054819D01*
X146104167Y-92054819D02*
X146723214Y-92054819D01*
X119513853Y-103844119D02*
X119037663Y-103844119D01*
X119037663Y-103844119D02*
X119037663Y-102844119D01*
X120418615Y-103748880D02*
X120370996Y-103796500D01*
X120370996Y-103796500D02*
X120228139Y-103844119D01*
X120228139Y-103844119D02*
X120132901Y-103844119D01*
X120132901Y-103844119D02*
X119990044Y-103796500D01*
X119990044Y-103796500D02*
X119894806Y-103701261D01*
X119894806Y-103701261D02*
X119847187Y-103606023D01*
X119847187Y-103606023D02*
X119799568Y-103415547D01*
X119799568Y-103415547D02*
X119799568Y-103272690D01*
X119799568Y-103272690D02*
X119847187Y-103082214D01*
X119847187Y-103082214D02*
X119894806Y-102986976D01*
X119894806Y-102986976D02*
X119990044Y-102891738D01*
X119990044Y-102891738D02*
X120132901Y-102844119D01*
X120132901Y-102844119D02*
X120228139Y-102844119D01*
X120228139Y-102844119D02*
X120370996Y-102891738D01*
X120370996Y-102891738D02*
X120418615Y-102939357D01*
X120847187Y-103844119D02*
X120847187Y-102844119D01*
X120847187Y-102844119D02*
X121085282Y-102844119D01*
X121085282Y-102844119D02*
X121228139Y-102891738D01*
X121228139Y-102891738D02*
X121323377Y-102986976D01*
X121323377Y-102986976D02*
X121370996Y-103082214D01*
X121370996Y-103082214D02*
X121418615Y-103272690D01*
X121418615Y-103272690D02*
X121418615Y-103415547D01*
X121418615Y-103415547D02*
X121370996Y-103606023D01*
X121370996Y-103606023D02*
X121323377Y-103701261D01*
X121323377Y-103701261D02*
X121228139Y-103796500D01*
X121228139Y-103796500D02*
X121085282Y-103844119D01*
X121085282Y-103844119D02*
X120847187Y-103844119D01*
X122370996Y-103844119D02*
X121799568Y-103844119D01*
X122085282Y-103844119D02*
X122085282Y-102844119D01*
X122085282Y-102844119D02*
X121990044Y-102986976D01*
X121990044Y-102986976D02*
X121894806Y-103082214D01*
X121894806Y-103082214D02*
X121799568Y-103129833D01*
X190085714Y-100569104D02*
X190561904Y-100569104D01*
X189990476Y-100854819D02*
X190323809Y-99854819D01*
X190323809Y-99854819D02*
X190657142Y-100854819D01*
X191514285Y-100854819D02*
X190942857Y-100854819D01*
X191228571Y-100854819D02*
X191228571Y-99854819D01*
X191228571Y-99854819D02*
X191133333Y-99997676D01*
X191133333Y-99997676D02*
X191038095Y-100092914D01*
X191038095Y-100092914D02*
X190942857Y-100140533D01*
X191454819Y-91641904D02*
X192264342Y-91641904D01*
X192264342Y-91641904D02*
X192359580Y-91594285D01*
X192359580Y-91594285D02*
X192407200Y-91546666D01*
X192407200Y-91546666D02*
X192454819Y-91451428D01*
X192454819Y-91451428D02*
X192454819Y-91260952D01*
X192454819Y-91260952D02*
X192407200Y-91165714D01*
X192407200Y-91165714D02*
X192359580Y-91118095D01*
X192359580Y-91118095D02*
X192264342Y-91070476D01*
X192264342Y-91070476D02*
X191454819Y-91070476D01*
X192407200Y-90641904D02*
X192454819Y-90499047D01*
X192454819Y-90499047D02*
X192454819Y-90260952D01*
X192454819Y-90260952D02*
X192407200Y-90165714D01*
X192407200Y-90165714D02*
X192359580Y-90118095D01*
X192359580Y-90118095D02*
X192264342Y-90070476D01*
X192264342Y-90070476D02*
X192169104Y-90070476D01*
X192169104Y-90070476D02*
X192073866Y-90118095D01*
X192073866Y-90118095D02*
X192026247Y-90165714D01*
X192026247Y-90165714D02*
X191978628Y-90260952D01*
X191978628Y-90260952D02*
X191931009Y-90451428D01*
X191931009Y-90451428D02*
X191883390Y-90546666D01*
X191883390Y-90546666D02*
X191835771Y-90594285D01*
X191835771Y-90594285D02*
X191740533Y-90641904D01*
X191740533Y-90641904D02*
X191645295Y-90641904D01*
X191645295Y-90641904D02*
X191550057Y-90594285D01*
X191550057Y-90594285D02*
X191502438Y-90546666D01*
X191502438Y-90546666D02*
X191454819Y-90451428D01*
X191454819Y-90451428D02*
X191454819Y-90213333D01*
X191454819Y-90213333D02*
X191502438Y-90070476D01*
X191931009Y-89308571D02*
X191978628Y-89165714D01*
X191978628Y-89165714D02*
X192026247Y-89118095D01*
X192026247Y-89118095D02*
X192121485Y-89070476D01*
X192121485Y-89070476D02*
X192264342Y-89070476D01*
X192264342Y-89070476D02*
X192359580Y-89118095D01*
X192359580Y-89118095D02*
X192407200Y-89165714D01*
X192407200Y-89165714D02*
X192454819Y-89260952D01*
X192454819Y-89260952D02*
X192454819Y-89641904D01*
X192454819Y-89641904D02*
X191454819Y-89641904D01*
X191454819Y-89641904D02*
X191454819Y-89308571D01*
X191454819Y-89308571D02*
X191502438Y-89213333D01*
X191502438Y-89213333D02*
X191550057Y-89165714D01*
X191550057Y-89165714D02*
X191645295Y-89118095D01*
X191645295Y-89118095D02*
X191740533Y-89118095D01*
X191740533Y-89118095D02*
X191835771Y-89165714D01*
X191835771Y-89165714D02*
X191883390Y-89213333D01*
X191883390Y-89213333D02*
X191931009Y-89308571D01*
X191931009Y-89308571D02*
X191931009Y-89641904D01*
X106507200Y-132533332D02*
X106554819Y-132390475D01*
X106554819Y-132390475D02*
X106554819Y-132152380D01*
X106554819Y-132152380D02*
X106507200Y-132057142D01*
X106507200Y-132057142D02*
X106459580Y-132009523D01*
X106459580Y-132009523D02*
X106364342Y-131961904D01*
X106364342Y-131961904D02*
X106269104Y-131961904D01*
X106269104Y-131961904D02*
X106173866Y-132009523D01*
X106173866Y-132009523D02*
X106126247Y-132057142D01*
X106126247Y-132057142D02*
X106078628Y-132152380D01*
X106078628Y-132152380D02*
X106031009Y-132342856D01*
X106031009Y-132342856D02*
X105983390Y-132438094D01*
X105983390Y-132438094D02*
X105935771Y-132485713D01*
X105935771Y-132485713D02*
X105840533Y-132533332D01*
X105840533Y-132533332D02*
X105745295Y-132533332D01*
X105745295Y-132533332D02*
X105650057Y-132485713D01*
X105650057Y-132485713D02*
X105602438Y-132438094D01*
X105602438Y-132438094D02*
X105554819Y-132342856D01*
X105554819Y-132342856D02*
X105554819Y-132104761D01*
X105554819Y-132104761D02*
X105602438Y-131961904D01*
X105554819Y-131628570D02*
X106554819Y-131390475D01*
X106554819Y-131390475D02*
X105840533Y-131199999D01*
X105840533Y-131199999D02*
X106554819Y-131009523D01*
X106554819Y-131009523D02*
X105554819Y-130771428D01*
X106554819Y-129866666D02*
X106554819Y-130438094D01*
X106554819Y-130152380D02*
X105554819Y-130152380D01*
X105554819Y-130152380D02*
X105697676Y-130247618D01*
X105697676Y-130247618D02*
X105792914Y-130342856D01*
X105792914Y-130342856D02*
X105840533Y-130438094D01*
X123078221Y-87609580D02*
X123030602Y-87657200D01*
X123030602Y-87657200D02*
X122887745Y-87704819D01*
X122887745Y-87704819D02*
X122792507Y-87704819D01*
X122792507Y-87704819D02*
X122649650Y-87657200D01*
X122649650Y-87657200D02*
X122554412Y-87561961D01*
X122554412Y-87561961D02*
X122506793Y-87466723D01*
X122506793Y-87466723D02*
X122459174Y-87276247D01*
X122459174Y-87276247D02*
X122459174Y-87133390D01*
X122459174Y-87133390D02*
X122506793Y-86942914D01*
X122506793Y-86942914D02*
X122554412Y-86847676D01*
X122554412Y-86847676D02*
X122649650Y-86752438D01*
X122649650Y-86752438D02*
X122792507Y-86704819D01*
X122792507Y-86704819D02*
X122887745Y-86704819D01*
X122887745Y-86704819D02*
X123030602Y-86752438D01*
X123030602Y-86752438D02*
X123078221Y-86800057D01*
X123411555Y-86704819D02*
X124030602Y-86704819D01*
X124030602Y-86704819D02*
X123697269Y-87085771D01*
X123697269Y-87085771D02*
X123840126Y-87085771D01*
X123840126Y-87085771D02*
X123935364Y-87133390D01*
X123935364Y-87133390D02*
X123982983Y-87181009D01*
X123982983Y-87181009D02*
X124030602Y-87276247D01*
X124030602Y-87276247D02*
X124030602Y-87514342D01*
X124030602Y-87514342D02*
X123982983Y-87609580D01*
X123982983Y-87609580D02*
X123935364Y-87657200D01*
X123935364Y-87657200D02*
X123840126Y-87704819D01*
X123840126Y-87704819D02*
X123554412Y-87704819D01*
X123554412Y-87704819D02*
X123459174Y-87657200D01*
X123459174Y-87657200D02*
X123411555Y-87609580D01*
X158333332Y-100929580D02*
X158285713Y-100977200D01*
X158285713Y-100977200D02*
X158142856Y-101024819D01*
X158142856Y-101024819D02*
X158047618Y-101024819D01*
X158047618Y-101024819D02*
X157904761Y-100977200D01*
X157904761Y-100977200D02*
X157809523Y-100881961D01*
X157809523Y-100881961D02*
X157761904Y-100786723D01*
X157761904Y-100786723D02*
X157714285Y-100596247D01*
X157714285Y-100596247D02*
X157714285Y-100453390D01*
X157714285Y-100453390D02*
X157761904Y-100262914D01*
X157761904Y-100262914D02*
X157809523Y-100167676D01*
X157809523Y-100167676D02*
X157904761Y-100072438D01*
X157904761Y-100072438D02*
X158047618Y-100024819D01*
X158047618Y-100024819D02*
X158142856Y-100024819D01*
X158142856Y-100024819D02*
X158285713Y-100072438D01*
X158285713Y-100072438D02*
X158333332Y-100120057D01*
X158523809Y-101120057D02*
X159285713Y-101120057D01*
X159523809Y-101024819D02*
X159523809Y-100024819D01*
X159523809Y-100024819D02*
X159761904Y-100024819D01*
X159761904Y-100024819D02*
X159904761Y-100072438D01*
X159904761Y-100072438D02*
X159999999Y-100167676D01*
X159999999Y-100167676D02*
X160047618Y-100262914D01*
X160047618Y-100262914D02*
X160095237Y-100453390D01*
X160095237Y-100453390D02*
X160095237Y-100596247D01*
X160095237Y-100596247D02*
X160047618Y-100786723D01*
X160047618Y-100786723D02*
X159999999Y-100881961D01*
X159999999Y-100881961D02*
X159904761Y-100977200D01*
X159904761Y-100977200D02*
X159761904Y-101024819D01*
X159761904Y-101024819D02*
X159523809Y-101024819D01*
X160904761Y-100977200D02*
X160809523Y-101024819D01*
X160809523Y-101024819D02*
X160619047Y-101024819D01*
X160619047Y-101024819D02*
X160523809Y-100977200D01*
X160523809Y-100977200D02*
X160476190Y-100881961D01*
X160476190Y-100881961D02*
X160476190Y-100501009D01*
X160476190Y-100501009D02*
X160523809Y-100405771D01*
X160523809Y-100405771D02*
X160619047Y-100358152D01*
X160619047Y-100358152D02*
X160809523Y-100358152D01*
X160809523Y-100358152D02*
X160904761Y-100405771D01*
X160904761Y-100405771D02*
X160952380Y-100501009D01*
X160952380Y-100501009D02*
X160952380Y-100596247D01*
X160952380Y-100596247D02*
X160476190Y-100691485D01*
X161809523Y-100977200D02*
X161714285Y-101024819D01*
X161714285Y-101024819D02*
X161523809Y-101024819D01*
X161523809Y-101024819D02*
X161428571Y-100977200D01*
X161428571Y-100977200D02*
X161380952Y-100929580D01*
X161380952Y-100929580D02*
X161333333Y-100834342D01*
X161333333Y-100834342D02*
X161333333Y-100548628D01*
X161333333Y-100548628D02*
X161380952Y-100453390D01*
X161380952Y-100453390D02*
X161428571Y-100405771D01*
X161428571Y-100405771D02*
X161523809Y-100358152D01*
X161523809Y-100358152D02*
X161714285Y-100358152D01*
X161714285Y-100358152D02*
X161809523Y-100405771D01*
X162380952Y-101024819D02*
X162285714Y-100977200D01*
X162285714Y-100977200D02*
X162238095Y-100929580D01*
X162238095Y-100929580D02*
X162190476Y-100834342D01*
X162190476Y-100834342D02*
X162190476Y-100548628D01*
X162190476Y-100548628D02*
X162238095Y-100453390D01*
X162238095Y-100453390D02*
X162285714Y-100405771D01*
X162285714Y-100405771D02*
X162380952Y-100358152D01*
X162380952Y-100358152D02*
X162523809Y-100358152D01*
X162523809Y-100358152D02*
X162619047Y-100405771D01*
X162619047Y-100405771D02*
X162666666Y-100453390D01*
X162666666Y-100453390D02*
X162714285Y-100548628D01*
X162714285Y-100548628D02*
X162714285Y-100834342D01*
X162714285Y-100834342D02*
X162666666Y-100929580D01*
X162666666Y-100929580D02*
X162619047Y-100977200D01*
X162619047Y-100977200D02*
X162523809Y-101024819D01*
X162523809Y-101024819D02*
X162380952Y-101024819D01*
X163571428Y-100358152D02*
X163571428Y-101024819D01*
X163142857Y-100358152D02*
X163142857Y-100881961D01*
X163142857Y-100881961D02*
X163190476Y-100977200D01*
X163190476Y-100977200D02*
X163285714Y-101024819D01*
X163285714Y-101024819D02*
X163428571Y-101024819D01*
X163428571Y-101024819D02*
X163523809Y-100977200D01*
X163523809Y-100977200D02*
X163571428Y-100929580D01*
X164047619Y-100358152D02*
X164047619Y-101358152D01*
X164047619Y-100405771D02*
X164142857Y-100358152D01*
X164142857Y-100358152D02*
X164333333Y-100358152D01*
X164333333Y-100358152D02*
X164428571Y-100405771D01*
X164428571Y-100405771D02*
X164476190Y-100453390D01*
X164476190Y-100453390D02*
X164523809Y-100548628D01*
X164523809Y-100548628D02*
X164523809Y-100834342D01*
X164523809Y-100834342D02*
X164476190Y-100929580D01*
X164476190Y-100929580D02*
X164428571Y-100977200D01*
X164428571Y-100977200D02*
X164333333Y-101024819D01*
X164333333Y-101024819D02*
X164142857Y-101024819D01*
X164142857Y-101024819D02*
X164047619Y-100977200D01*
X165095238Y-101024819D02*
X165000000Y-100977200D01*
X165000000Y-100977200D02*
X164952381Y-100881961D01*
X164952381Y-100881961D02*
X164952381Y-100024819D01*
X165476191Y-101024819D02*
X165476191Y-100358152D01*
X165476191Y-100024819D02*
X165428572Y-100072438D01*
X165428572Y-100072438D02*
X165476191Y-100120057D01*
X165476191Y-100120057D02*
X165523810Y-100072438D01*
X165523810Y-100072438D02*
X165476191Y-100024819D01*
X165476191Y-100024819D02*
X165476191Y-100120057D01*
X165952381Y-100358152D02*
X165952381Y-101024819D01*
X165952381Y-100453390D02*
X166000000Y-100405771D01*
X166000000Y-100405771D02*
X166095238Y-100358152D01*
X166095238Y-100358152D02*
X166238095Y-100358152D01*
X166238095Y-100358152D02*
X166333333Y-100405771D01*
X166333333Y-100405771D02*
X166380952Y-100501009D01*
X166380952Y-100501009D02*
X166380952Y-101024819D01*
X167285714Y-100358152D02*
X167285714Y-101167676D01*
X167285714Y-101167676D02*
X167238095Y-101262914D01*
X167238095Y-101262914D02*
X167190476Y-101310533D01*
X167190476Y-101310533D02*
X167095238Y-101358152D01*
X167095238Y-101358152D02*
X166952381Y-101358152D01*
X166952381Y-101358152D02*
X166857143Y-101310533D01*
X167285714Y-100977200D02*
X167190476Y-101024819D01*
X167190476Y-101024819D02*
X167000000Y-101024819D01*
X167000000Y-101024819D02*
X166904762Y-100977200D01*
X166904762Y-100977200D02*
X166857143Y-100929580D01*
X166857143Y-100929580D02*
X166809524Y-100834342D01*
X166809524Y-100834342D02*
X166809524Y-100548628D01*
X166809524Y-100548628D02*
X166857143Y-100453390D01*
X166857143Y-100453390D02*
X166904762Y-100405771D01*
X166904762Y-100405771D02*
X167000000Y-100358152D01*
X167000000Y-100358152D02*
X167190476Y-100358152D01*
X167190476Y-100358152D02*
X167285714Y-100405771D01*
X168285714Y-101024819D02*
X167714286Y-101024819D01*
X168000000Y-101024819D02*
X168000000Y-100024819D01*
X168000000Y-100024819D02*
X167904762Y-100167676D01*
X167904762Y-100167676D02*
X167809524Y-100262914D01*
X167809524Y-100262914D02*
X167714286Y-100310533D01*
X132774285Y-91781009D02*
X132440952Y-91781009D01*
X132440952Y-92304819D02*
X132440952Y-91304819D01*
X132440952Y-91304819D02*
X132917142Y-91304819D01*
X133250476Y-92019104D02*
X133726666Y-92019104D01*
X133155238Y-92304819D02*
X133488571Y-91304819D01*
X133488571Y-91304819D02*
X133821904Y-92304819D01*
X134155238Y-92304819D02*
X134155238Y-91304819D01*
X134155238Y-91304819D02*
X134726666Y-92304819D01*
X134726666Y-92304819D02*
X134726666Y-91304819D01*
X135726666Y-92304819D02*
X135155238Y-92304819D01*
X135440952Y-92304819D02*
X135440952Y-91304819D01*
X135440952Y-91304819D02*
X135345714Y-91447676D01*
X135345714Y-91447676D02*
X135250476Y-91542914D01*
X135250476Y-91542914D02*
X135155238Y-91590533D01*
X106257142Y-117529580D02*
X106209523Y-117577200D01*
X106209523Y-117577200D02*
X106066666Y-117624819D01*
X106066666Y-117624819D02*
X105971428Y-117624819D01*
X105971428Y-117624819D02*
X105828571Y-117577200D01*
X105828571Y-117577200D02*
X105733333Y-117481961D01*
X105733333Y-117481961D02*
X105685714Y-117386723D01*
X105685714Y-117386723D02*
X105638095Y-117196247D01*
X105638095Y-117196247D02*
X105638095Y-117053390D01*
X105638095Y-117053390D02*
X105685714Y-116862914D01*
X105685714Y-116862914D02*
X105733333Y-116767676D01*
X105733333Y-116767676D02*
X105828571Y-116672438D01*
X105828571Y-116672438D02*
X105971428Y-116624819D01*
X105971428Y-116624819D02*
X106066666Y-116624819D01*
X106066666Y-116624819D02*
X106209523Y-116672438D01*
X106209523Y-116672438D02*
X106257142Y-116720057D01*
X106447619Y-117720057D02*
X107209523Y-117720057D01*
X107447619Y-117624819D02*
X107447619Y-116624819D01*
X107447619Y-116624819D02*
X107685714Y-116624819D01*
X107685714Y-116624819D02*
X107828571Y-116672438D01*
X107828571Y-116672438D02*
X107923809Y-116767676D01*
X107923809Y-116767676D02*
X107971428Y-116862914D01*
X107971428Y-116862914D02*
X108019047Y-117053390D01*
X108019047Y-117053390D02*
X108019047Y-117196247D01*
X108019047Y-117196247D02*
X107971428Y-117386723D01*
X107971428Y-117386723D02*
X107923809Y-117481961D01*
X107923809Y-117481961D02*
X107828571Y-117577200D01*
X107828571Y-117577200D02*
X107685714Y-117624819D01*
X107685714Y-117624819D02*
X107447619Y-117624819D01*
X108828571Y-117577200D02*
X108733333Y-117624819D01*
X108733333Y-117624819D02*
X108542857Y-117624819D01*
X108542857Y-117624819D02*
X108447619Y-117577200D01*
X108447619Y-117577200D02*
X108400000Y-117481961D01*
X108400000Y-117481961D02*
X108400000Y-117101009D01*
X108400000Y-117101009D02*
X108447619Y-117005771D01*
X108447619Y-117005771D02*
X108542857Y-116958152D01*
X108542857Y-116958152D02*
X108733333Y-116958152D01*
X108733333Y-116958152D02*
X108828571Y-117005771D01*
X108828571Y-117005771D02*
X108876190Y-117101009D01*
X108876190Y-117101009D02*
X108876190Y-117196247D01*
X108876190Y-117196247D02*
X108400000Y-117291485D01*
X109304762Y-117624819D02*
X109304762Y-116624819D01*
X109304762Y-117005771D02*
X109400000Y-116958152D01*
X109400000Y-116958152D02*
X109590476Y-116958152D01*
X109590476Y-116958152D02*
X109685714Y-117005771D01*
X109685714Y-117005771D02*
X109733333Y-117053390D01*
X109733333Y-117053390D02*
X109780952Y-117148628D01*
X109780952Y-117148628D02*
X109780952Y-117434342D01*
X109780952Y-117434342D02*
X109733333Y-117529580D01*
X109733333Y-117529580D02*
X109685714Y-117577200D01*
X109685714Y-117577200D02*
X109590476Y-117624819D01*
X109590476Y-117624819D02*
X109400000Y-117624819D01*
X109400000Y-117624819D02*
X109304762Y-117577200D01*
X110352381Y-117624819D02*
X110257143Y-117577200D01*
X110257143Y-117577200D02*
X110209524Y-117529580D01*
X110209524Y-117529580D02*
X110161905Y-117434342D01*
X110161905Y-117434342D02*
X110161905Y-117148628D01*
X110161905Y-117148628D02*
X110209524Y-117053390D01*
X110209524Y-117053390D02*
X110257143Y-117005771D01*
X110257143Y-117005771D02*
X110352381Y-116958152D01*
X110352381Y-116958152D02*
X110495238Y-116958152D01*
X110495238Y-116958152D02*
X110590476Y-117005771D01*
X110590476Y-117005771D02*
X110638095Y-117053390D01*
X110638095Y-117053390D02*
X110685714Y-117148628D01*
X110685714Y-117148628D02*
X110685714Y-117434342D01*
X110685714Y-117434342D02*
X110638095Y-117529580D01*
X110638095Y-117529580D02*
X110590476Y-117577200D01*
X110590476Y-117577200D02*
X110495238Y-117624819D01*
X110495238Y-117624819D02*
X110352381Y-117624819D01*
X111542857Y-116958152D02*
X111542857Y-117624819D01*
X111114286Y-116958152D02*
X111114286Y-117481961D01*
X111114286Y-117481961D02*
X111161905Y-117577200D01*
X111161905Y-117577200D02*
X111257143Y-117624819D01*
X111257143Y-117624819D02*
X111400000Y-117624819D01*
X111400000Y-117624819D02*
X111495238Y-117577200D01*
X111495238Y-117577200D02*
X111542857Y-117529580D01*
X112019048Y-116958152D02*
X112019048Y-117624819D01*
X112019048Y-117053390D02*
X112066667Y-117005771D01*
X112066667Y-117005771D02*
X112161905Y-116958152D01*
X112161905Y-116958152D02*
X112304762Y-116958152D01*
X112304762Y-116958152D02*
X112400000Y-117005771D01*
X112400000Y-117005771D02*
X112447619Y-117101009D01*
X112447619Y-117101009D02*
X112447619Y-117624819D01*
X113352381Y-117577200D02*
X113257143Y-117624819D01*
X113257143Y-117624819D02*
X113066667Y-117624819D01*
X113066667Y-117624819D02*
X112971429Y-117577200D01*
X112971429Y-117577200D02*
X112923810Y-117529580D01*
X112923810Y-117529580D02*
X112876191Y-117434342D01*
X112876191Y-117434342D02*
X112876191Y-117148628D01*
X112876191Y-117148628D02*
X112923810Y-117053390D01*
X112923810Y-117053390D02*
X112971429Y-117005771D01*
X112971429Y-117005771D02*
X113066667Y-116958152D01*
X113066667Y-116958152D02*
X113257143Y-116958152D01*
X113257143Y-116958152D02*
X113352381Y-117005771D01*
X114161905Y-117577200D02*
X114066667Y-117624819D01*
X114066667Y-117624819D02*
X113876191Y-117624819D01*
X113876191Y-117624819D02*
X113780953Y-117577200D01*
X113780953Y-117577200D02*
X113733334Y-117481961D01*
X113733334Y-117481961D02*
X113733334Y-117101009D01*
X113733334Y-117101009D02*
X113780953Y-117005771D01*
X113780953Y-117005771D02*
X113876191Y-116958152D01*
X113876191Y-116958152D02*
X114066667Y-116958152D01*
X114066667Y-116958152D02*
X114161905Y-117005771D01*
X114161905Y-117005771D02*
X114209524Y-117101009D01*
X114209524Y-117101009D02*
X114209524Y-117196247D01*
X114209524Y-117196247D02*
X113733334Y-117291485D01*
X115161905Y-117624819D02*
X114590477Y-117624819D01*
X114876191Y-117624819D02*
X114876191Y-116624819D01*
X114876191Y-116624819D02*
X114780953Y-116767676D01*
X114780953Y-116767676D02*
X114685715Y-116862914D01*
X114685715Y-116862914D02*
X114590477Y-116910533D01*
X142675594Y-87654819D02*
X142342261Y-87178628D01*
X142104166Y-87654819D02*
X142104166Y-86654819D01*
X142104166Y-86654819D02*
X142485118Y-86654819D01*
X142485118Y-86654819D02*
X142580356Y-86702438D01*
X142580356Y-86702438D02*
X142627975Y-86750057D01*
X142627975Y-86750057D02*
X142675594Y-86845295D01*
X142675594Y-86845295D02*
X142675594Y-86988152D01*
X142675594Y-86988152D02*
X142627975Y-87083390D01*
X142627975Y-87083390D02*
X142580356Y-87131009D01*
X142580356Y-87131009D02*
X142485118Y-87178628D01*
X142485118Y-87178628D02*
X142104166Y-87178628D01*
X142866071Y-87750057D02*
X143627975Y-87750057D01*
X143866071Y-86988152D02*
X143866071Y-87988152D01*
X143866071Y-87035771D02*
X143961309Y-86988152D01*
X143961309Y-86988152D02*
X144151785Y-86988152D01*
X144151785Y-86988152D02*
X144247023Y-87035771D01*
X144247023Y-87035771D02*
X144294642Y-87083390D01*
X144294642Y-87083390D02*
X144342261Y-87178628D01*
X144342261Y-87178628D02*
X144342261Y-87464342D01*
X144342261Y-87464342D02*
X144294642Y-87559580D01*
X144294642Y-87559580D02*
X144247023Y-87607200D01*
X144247023Y-87607200D02*
X144151785Y-87654819D01*
X144151785Y-87654819D02*
X143961309Y-87654819D01*
X143961309Y-87654819D02*
X143866071Y-87607200D01*
X145199404Y-86988152D02*
X145199404Y-87654819D01*
X144770833Y-86988152D02*
X144770833Y-87511961D01*
X144770833Y-87511961D02*
X144818452Y-87607200D01*
X144818452Y-87607200D02*
X144913690Y-87654819D01*
X144913690Y-87654819D02*
X145056547Y-87654819D01*
X145056547Y-87654819D02*
X145151785Y-87607200D01*
X145151785Y-87607200D02*
X145199404Y-87559580D01*
X145818452Y-87654819D02*
X145723214Y-87607200D01*
X145723214Y-87607200D02*
X145675595Y-87511961D01*
X145675595Y-87511961D02*
X145675595Y-86654819D01*
X146342262Y-87654819D02*
X146247024Y-87607200D01*
X146247024Y-87607200D02*
X146199405Y-87511961D01*
X146199405Y-87511961D02*
X146199405Y-86654819D01*
X146485120Y-87750057D02*
X147247024Y-87750057D01*
X147913691Y-86988152D02*
X147913691Y-87654819D01*
X147485120Y-86988152D02*
X147485120Y-87511961D01*
X147485120Y-87511961D02*
X147532739Y-87607200D01*
X147532739Y-87607200D02*
X147627977Y-87654819D01*
X147627977Y-87654819D02*
X147770834Y-87654819D01*
X147770834Y-87654819D02*
X147866072Y-87607200D01*
X147866072Y-87607200D02*
X147913691Y-87559580D01*
X148389882Y-86988152D02*
X148389882Y-87988152D01*
X148389882Y-87035771D02*
X148485120Y-86988152D01*
X148485120Y-86988152D02*
X148675596Y-86988152D01*
X148675596Y-86988152D02*
X148770834Y-87035771D01*
X148770834Y-87035771D02*
X148818453Y-87083390D01*
X148818453Y-87083390D02*
X148866072Y-87178628D01*
X148866072Y-87178628D02*
X148866072Y-87464342D01*
X148866072Y-87464342D02*
X148818453Y-87559580D01*
X148818453Y-87559580D02*
X148770834Y-87607200D01*
X148770834Y-87607200D02*
X148675596Y-87654819D01*
X148675596Y-87654819D02*
X148485120Y-87654819D01*
X148485120Y-87654819D02*
X148389882Y-87607200D01*
X149818453Y-87654819D02*
X149247025Y-87654819D01*
X149532739Y-87654819D02*
X149532739Y-86654819D01*
X149532739Y-86654819D02*
X149437501Y-86797676D01*
X149437501Y-86797676D02*
X149342263Y-86892914D01*
X149342263Y-86892914D02*
X149247025Y-86940533D01*
X123033333Y-82929580D02*
X122985714Y-82977200D01*
X122985714Y-82977200D02*
X122842857Y-83024819D01*
X122842857Y-83024819D02*
X122747619Y-83024819D01*
X122747619Y-83024819D02*
X122604762Y-82977200D01*
X122604762Y-82977200D02*
X122509524Y-82881961D01*
X122509524Y-82881961D02*
X122461905Y-82786723D01*
X122461905Y-82786723D02*
X122414286Y-82596247D01*
X122414286Y-82596247D02*
X122414286Y-82453390D01*
X122414286Y-82453390D02*
X122461905Y-82262914D01*
X122461905Y-82262914D02*
X122509524Y-82167676D01*
X122509524Y-82167676D02*
X122604762Y-82072438D01*
X122604762Y-82072438D02*
X122747619Y-82024819D01*
X122747619Y-82024819D02*
X122842857Y-82024819D01*
X122842857Y-82024819D02*
X122985714Y-82072438D01*
X122985714Y-82072438D02*
X123033333Y-82120057D01*
X123985714Y-83024819D02*
X123414286Y-83024819D01*
X123700000Y-83024819D02*
X123700000Y-82024819D01*
X123700000Y-82024819D02*
X123604762Y-82167676D01*
X123604762Y-82167676D02*
X123509524Y-82262914D01*
X123509524Y-82262914D02*
X123414286Y-82310533D01*
X106257142Y-122224819D02*
X105923809Y-121748628D01*
X105685714Y-122224819D02*
X105685714Y-121224819D01*
X105685714Y-121224819D02*
X106066666Y-121224819D01*
X106066666Y-121224819D02*
X106161904Y-121272438D01*
X106161904Y-121272438D02*
X106209523Y-121320057D01*
X106209523Y-121320057D02*
X106257142Y-121415295D01*
X106257142Y-121415295D02*
X106257142Y-121558152D01*
X106257142Y-121558152D02*
X106209523Y-121653390D01*
X106209523Y-121653390D02*
X106161904Y-121701009D01*
X106161904Y-121701009D02*
X106066666Y-121748628D01*
X106066666Y-121748628D02*
X105685714Y-121748628D01*
X106447619Y-122320057D02*
X107209523Y-122320057D01*
X107447619Y-122224819D02*
X107447619Y-121224819D01*
X107447619Y-121224819D02*
X107685714Y-121224819D01*
X107685714Y-121224819D02*
X107828571Y-121272438D01*
X107828571Y-121272438D02*
X107923809Y-121367676D01*
X107923809Y-121367676D02*
X107971428Y-121462914D01*
X107971428Y-121462914D02*
X108019047Y-121653390D01*
X108019047Y-121653390D02*
X108019047Y-121796247D01*
X108019047Y-121796247D02*
X107971428Y-121986723D01*
X107971428Y-121986723D02*
X107923809Y-122081961D01*
X107923809Y-122081961D02*
X107828571Y-122177200D01*
X107828571Y-122177200D02*
X107685714Y-122224819D01*
X107685714Y-122224819D02*
X107447619Y-122224819D01*
X108828571Y-122177200D02*
X108733333Y-122224819D01*
X108733333Y-122224819D02*
X108542857Y-122224819D01*
X108542857Y-122224819D02*
X108447619Y-122177200D01*
X108447619Y-122177200D02*
X108400000Y-122081961D01*
X108400000Y-122081961D02*
X108400000Y-121701009D01*
X108400000Y-121701009D02*
X108447619Y-121605771D01*
X108447619Y-121605771D02*
X108542857Y-121558152D01*
X108542857Y-121558152D02*
X108733333Y-121558152D01*
X108733333Y-121558152D02*
X108828571Y-121605771D01*
X108828571Y-121605771D02*
X108876190Y-121701009D01*
X108876190Y-121701009D02*
X108876190Y-121796247D01*
X108876190Y-121796247D02*
X108400000Y-121891485D01*
X109304762Y-122224819D02*
X109304762Y-121224819D01*
X109304762Y-121605771D02*
X109400000Y-121558152D01*
X109400000Y-121558152D02*
X109590476Y-121558152D01*
X109590476Y-121558152D02*
X109685714Y-121605771D01*
X109685714Y-121605771D02*
X109733333Y-121653390D01*
X109733333Y-121653390D02*
X109780952Y-121748628D01*
X109780952Y-121748628D02*
X109780952Y-122034342D01*
X109780952Y-122034342D02*
X109733333Y-122129580D01*
X109733333Y-122129580D02*
X109685714Y-122177200D01*
X109685714Y-122177200D02*
X109590476Y-122224819D01*
X109590476Y-122224819D02*
X109400000Y-122224819D01*
X109400000Y-122224819D02*
X109304762Y-122177200D01*
X110352381Y-122224819D02*
X110257143Y-122177200D01*
X110257143Y-122177200D02*
X110209524Y-122129580D01*
X110209524Y-122129580D02*
X110161905Y-122034342D01*
X110161905Y-122034342D02*
X110161905Y-121748628D01*
X110161905Y-121748628D02*
X110209524Y-121653390D01*
X110209524Y-121653390D02*
X110257143Y-121605771D01*
X110257143Y-121605771D02*
X110352381Y-121558152D01*
X110352381Y-121558152D02*
X110495238Y-121558152D01*
X110495238Y-121558152D02*
X110590476Y-121605771D01*
X110590476Y-121605771D02*
X110638095Y-121653390D01*
X110638095Y-121653390D02*
X110685714Y-121748628D01*
X110685714Y-121748628D02*
X110685714Y-122034342D01*
X110685714Y-122034342D02*
X110638095Y-122129580D01*
X110638095Y-122129580D02*
X110590476Y-122177200D01*
X110590476Y-122177200D02*
X110495238Y-122224819D01*
X110495238Y-122224819D02*
X110352381Y-122224819D01*
X111542857Y-121558152D02*
X111542857Y-122224819D01*
X111114286Y-121558152D02*
X111114286Y-122081961D01*
X111114286Y-122081961D02*
X111161905Y-122177200D01*
X111161905Y-122177200D02*
X111257143Y-122224819D01*
X111257143Y-122224819D02*
X111400000Y-122224819D01*
X111400000Y-122224819D02*
X111495238Y-122177200D01*
X111495238Y-122177200D02*
X111542857Y-122129580D01*
X112019048Y-121558152D02*
X112019048Y-122224819D01*
X112019048Y-121653390D02*
X112066667Y-121605771D01*
X112066667Y-121605771D02*
X112161905Y-121558152D01*
X112161905Y-121558152D02*
X112304762Y-121558152D01*
X112304762Y-121558152D02*
X112400000Y-121605771D01*
X112400000Y-121605771D02*
X112447619Y-121701009D01*
X112447619Y-121701009D02*
X112447619Y-122224819D01*
X113352381Y-122177200D02*
X113257143Y-122224819D01*
X113257143Y-122224819D02*
X113066667Y-122224819D01*
X113066667Y-122224819D02*
X112971429Y-122177200D01*
X112971429Y-122177200D02*
X112923810Y-122129580D01*
X112923810Y-122129580D02*
X112876191Y-122034342D01*
X112876191Y-122034342D02*
X112876191Y-121748628D01*
X112876191Y-121748628D02*
X112923810Y-121653390D01*
X112923810Y-121653390D02*
X112971429Y-121605771D01*
X112971429Y-121605771D02*
X113066667Y-121558152D01*
X113066667Y-121558152D02*
X113257143Y-121558152D01*
X113257143Y-121558152D02*
X113352381Y-121605771D01*
X114161905Y-122177200D02*
X114066667Y-122224819D01*
X114066667Y-122224819D02*
X113876191Y-122224819D01*
X113876191Y-122224819D02*
X113780953Y-122177200D01*
X113780953Y-122177200D02*
X113733334Y-122081961D01*
X113733334Y-122081961D02*
X113733334Y-121701009D01*
X113733334Y-121701009D02*
X113780953Y-121605771D01*
X113780953Y-121605771D02*
X113876191Y-121558152D01*
X113876191Y-121558152D02*
X114066667Y-121558152D01*
X114066667Y-121558152D02*
X114161905Y-121605771D01*
X114161905Y-121605771D02*
X114209524Y-121701009D01*
X114209524Y-121701009D02*
X114209524Y-121796247D01*
X114209524Y-121796247D02*
X113733334Y-121891485D01*
X115161905Y-122224819D02*
X114590477Y-122224819D01*
X114876191Y-122224819D02*
X114876191Y-121224819D01*
X114876191Y-121224819D02*
X114780953Y-121367676D01*
X114780953Y-121367676D02*
X114685715Y-121462914D01*
X114685715Y-121462914D02*
X114590477Y-121510533D01*
X130298095Y-82304819D02*
X130298095Y-81304819D01*
X130298095Y-81304819D02*
X130631428Y-82019104D01*
X130631428Y-82019104D02*
X130964761Y-81304819D01*
X130964761Y-81304819D02*
X130964761Y-82304819D01*
X131393333Y-82019104D02*
X131869523Y-82019104D01*
X131298095Y-82304819D02*
X131631428Y-81304819D01*
X131631428Y-81304819D02*
X131964761Y-82304819D01*
X132298095Y-82304819D02*
X132298095Y-81304819D01*
X132774285Y-82304819D02*
X132774285Y-81304819D01*
X132774285Y-81304819D02*
X133345713Y-82304819D01*
X133345713Y-82304819D02*
X133345713Y-81304819D01*
X133583809Y-82400057D02*
X134345713Y-82400057D01*
X134917142Y-81781009D02*
X134583809Y-81781009D01*
X134583809Y-82304819D02*
X134583809Y-81304819D01*
X134583809Y-81304819D02*
X135059999Y-81304819D01*
X135393333Y-82019104D02*
X135869523Y-82019104D01*
X135298095Y-82304819D02*
X135631428Y-81304819D01*
X135631428Y-81304819D02*
X135964761Y-82304819D01*
X136298095Y-82304819D02*
X136298095Y-81304819D01*
X136298095Y-81304819D02*
X136869523Y-82304819D01*
X136869523Y-82304819D02*
X136869523Y-81304819D01*
X137869523Y-82304819D02*
X137298095Y-82304819D01*
X137583809Y-82304819D02*
X137583809Y-81304819D01*
X137583809Y-81304819D02*
X137488571Y-81447676D01*
X137488571Y-81447676D02*
X137393333Y-81542914D01*
X137393333Y-81542914D02*
X137298095Y-81590533D01*
X107994819Y-110185238D02*
X107518628Y-110518571D01*
X107994819Y-110756666D02*
X106994819Y-110756666D01*
X106994819Y-110756666D02*
X106994819Y-110375714D01*
X106994819Y-110375714D02*
X107042438Y-110280476D01*
X107042438Y-110280476D02*
X107090057Y-110232857D01*
X107090057Y-110232857D02*
X107185295Y-110185238D01*
X107185295Y-110185238D02*
X107328152Y-110185238D01*
X107328152Y-110185238D02*
X107423390Y-110232857D01*
X107423390Y-110232857D02*
X107471009Y-110280476D01*
X107471009Y-110280476D02*
X107518628Y-110375714D01*
X107518628Y-110375714D02*
X107518628Y-110756666D01*
X106994819Y-109899523D02*
X107994819Y-109566190D01*
X107994819Y-109566190D02*
X106994819Y-109232857D01*
X107994819Y-108375714D02*
X107994819Y-108947142D01*
X107994819Y-108661428D02*
X106994819Y-108661428D01*
X106994819Y-108661428D02*
X107137676Y-108756666D01*
X107137676Y-108756666D02*
X107232914Y-108851904D01*
X107232914Y-108851904D02*
X107280533Y-108947142D01*
X107616666Y-92004819D02*
X107616666Y-92719104D01*
X107616666Y-92719104D02*
X107569047Y-92861961D01*
X107569047Y-92861961D02*
X107473809Y-92957200D01*
X107473809Y-92957200D02*
X107330952Y-93004819D01*
X107330952Y-93004819D02*
X107235714Y-93004819D01*
X108616666Y-93004819D02*
X108045238Y-93004819D01*
X108330952Y-93004819D02*
X108330952Y-92004819D01*
X108330952Y-92004819D02*
X108235714Y-92147676D01*
X108235714Y-92147676D02*
X108140476Y-92242914D01*
X108140476Y-92242914D02*
X108045238Y-92290533D01*
D11*
%TO.C,C_Decoupling2*%
X129853733Y-101690000D02*
X130146267Y-101690000D01*
X129853733Y-102710000D02*
X130146267Y-102710000D01*
%TO.C,R1*%
X145945276Y-82477500D02*
X146454724Y-82477500D01*
X145945276Y-83522500D02*
X146454724Y-83522500D01*
%TO.C,C2*%
X145791233Y-92490000D02*
X146083767Y-92490000D01*
X145791233Y-93510000D02*
X146083767Y-93510000D01*
%TO.C,LCD1*%
X190701560Y-129698620D02*
G75*
G02*
X190201180Y-130198940I-500340J20D01*
G01*
X190200520Y-115199300D02*
G75*
G02*
X190700520Y-115699300I0J-500000D01*
G01*
X126701180Y-130199000D02*
G75*
G02*
X126200800Y-129698620I0J500380D01*
G01*
X126200800Y-115698140D02*
G75*
G02*
X126701180Y-115197760I500380J0D01*
G01*
X198640520Y-140839300D02*
X198640520Y-104559300D01*
X198640520Y-104559300D02*
X119160520Y-104559300D01*
X194500520Y-135199300D02*
X121500520Y-135199300D01*
X194500520Y-110199300D02*
X194500520Y-135199300D01*
X190700520Y-115699300D02*
X190700520Y-129699300D01*
X190201180Y-130199300D02*
X126700520Y-130199300D01*
X126700520Y-115199300D02*
X190200520Y-115199300D01*
X126200800Y-129698620D02*
X126200800Y-115699300D01*
X125000520Y-104199300D02*
X128000520Y-104199300D01*
X121500520Y-135199300D02*
X121500520Y-110199300D01*
X121500520Y-110199300D02*
X194500520Y-110199300D01*
X118370520Y-104559300D02*
X119160520Y-104559300D01*
X118360520Y-140839300D02*
X198640520Y-140839300D01*
X118360520Y-104559300D02*
X118360520Y-140839300D01*
%TO.C,A1*%
X152500000Y-81360000D02*
X152500000Y-99400000D01*
X152500000Y-99400000D02*
X155170000Y-99400000D01*
X155170000Y-84030000D02*
X155170000Y-81360000D01*
X155170000Y-84030000D02*
X193270000Y-84030000D01*
X155170000Y-96730000D02*
X155170000Y-99400000D01*
X157710000Y-96730000D02*
X155170000Y-96730000D01*
X157710000Y-96730000D02*
X157710000Y-99400000D01*
X157710000Y-96730000D02*
X193270000Y-96730000D01*
X157710000Y-99400000D02*
X195940000Y-99400000D01*
X188060000Y-86440000D02*
X198480000Y-86440000D01*
X188060000Y-94320000D02*
X188060000Y-86440000D01*
X193270000Y-84030000D02*
X193270000Y-81360000D01*
X193270000Y-96730000D02*
X193270000Y-99400000D01*
X195940000Y-81360000D02*
X152500000Y-81360000D01*
X195940000Y-81360000D02*
X195940000Y-86440000D01*
X195940000Y-99400000D02*
X195940000Y-94320000D01*
X198480000Y-86440000D02*
X198480000Y-94320000D01*
X198480000Y-94320000D02*
X188060000Y-94320000D01*
%TO.C,SW1*%
X107100000Y-128950000D02*
X107100000Y-133450000D01*
X109600000Y-134700000D02*
X111100000Y-134700000D01*
X111100000Y-127700000D02*
X109600000Y-127700000D01*
X113600000Y-133450000D02*
X113600000Y-128950000D01*
%TO.C,C3*%
X120440113Y-89525000D02*
X120940113Y-89525000D01*
X120690113Y-89275000D02*
X120690113Y-89775000D01*
X123244888Y-88420000D02*
X123244888Y-93580000D01*
X123284888Y-88420000D02*
X123284888Y-93580000D01*
X123324888Y-88421000D02*
X123324888Y-93579000D01*
X123364888Y-88422000D02*
X123364888Y-93578000D01*
X123404888Y-88424000D02*
X123404888Y-93576000D01*
X123444888Y-88427000D02*
X123444888Y-93573000D01*
X123484888Y-88431000D02*
X123484888Y-89960000D01*
X123484888Y-92040000D02*
X123484888Y-93569000D01*
X123524888Y-88435000D02*
X123524888Y-89960000D01*
X123524888Y-92040000D02*
X123524888Y-93565000D01*
X123564888Y-88439000D02*
X123564888Y-89960000D01*
X123564888Y-92040000D02*
X123564888Y-93561000D01*
X123604888Y-88444000D02*
X123604888Y-89960000D01*
X123604888Y-92040000D02*
X123604888Y-93556000D01*
X123644888Y-88450000D02*
X123644888Y-89960000D01*
X123644888Y-92040000D02*
X123644888Y-93550000D01*
X123684888Y-88457000D02*
X123684888Y-89960000D01*
X123684888Y-92040000D02*
X123684888Y-93543000D01*
X123724888Y-88464000D02*
X123724888Y-89960000D01*
X123724888Y-92040000D02*
X123724888Y-93536000D01*
X123764888Y-88472000D02*
X123764888Y-89960000D01*
X123764888Y-92040000D02*
X123764888Y-93528000D01*
X123804888Y-88480000D02*
X123804888Y-89960000D01*
X123804888Y-92040000D02*
X123804888Y-93520000D01*
X123844888Y-88489000D02*
X123844888Y-89960000D01*
X123844888Y-92040000D02*
X123844888Y-93511000D01*
X123884888Y-88499000D02*
X123884888Y-89960000D01*
X123884888Y-92040000D02*
X123884888Y-93501000D01*
X123924888Y-88509000D02*
X123924888Y-89960000D01*
X123924888Y-92040000D02*
X123924888Y-93491000D01*
X123965888Y-88520000D02*
X123965888Y-89960000D01*
X123965888Y-92040000D02*
X123965888Y-93480000D01*
X124005888Y-88532000D02*
X124005888Y-89960000D01*
X124005888Y-92040000D02*
X124005888Y-93468000D01*
X124045888Y-88545000D02*
X124045888Y-89960000D01*
X124045888Y-92040000D02*
X124045888Y-93455000D01*
X124085888Y-88558000D02*
X124085888Y-89960000D01*
X124085888Y-92040000D02*
X124085888Y-93442000D01*
X124125888Y-88572000D02*
X124125888Y-89960000D01*
X124125888Y-92040000D02*
X124125888Y-93428000D01*
X124165888Y-88586000D02*
X124165888Y-89960000D01*
X124165888Y-92040000D02*
X124165888Y-93414000D01*
X124205888Y-88602000D02*
X124205888Y-89960000D01*
X124205888Y-92040000D02*
X124205888Y-93398000D01*
X124245888Y-88618000D02*
X124245888Y-89960000D01*
X124245888Y-92040000D02*
X124245888Y-93382000D01*
X124285888Y-88635000D02*
X124285888Y-89960000D01*
X124285888Y-92040000D02*
X124285888Y-93365000D01*
X124325888Y-88652000D02*
X124325888Y-89960000D01*
X124325888Y-92040000D02*
X124325888Y-93348000D01*
X124365888Y-88671000D02*
X124365888Y-89960000D01*
X124365888Y-92040000D02*
X124365888Y-93329000D01*
X124405888Y-88690000D02*
X124405888Y-89960000D01*
X124405888Y-92040000D02*
X124405888Y-93310000D01*
X124445888Y-88710000D02*
X124445888Y-89960000D01*
X124445888Y-92040000D02*
X124445888Y-93290000D01*
X124485888Y-88732000D02*
X124485888Y-89960000D01*
X124485888Y-92040000D02*
X124485888Y-93268000D01*
X124525888Y-88753000D02*
X124525888Y-89960000D01*
X124525888Y-92040000D02*
X124525888Y-93247000D01*
X124565888Y-88776000D02*
X124565888Y-89960000D01*
X124565888Y-92040000D02*
X124565888Y-93224000D01*
X124605888Y-88800000D02*
X124605888Y-89960000D01*
X124605888Y-92040000D02*
X124605888Y-93200000D01*
X124645888Y-88825000D02*
X124645888Y-89960000D01*
X124645888Y-92040000D02*
X124645888Y-93175000D01*
X124685888Y-88851000D02*
X124685888Y-89960000D01*
X124685888Y-92040000D02*
X124685888Y-93149000D01*
X124725888Y-88878000D02*
X124725888Y-89960000D01*
X124725888Y-92040000D02*
X124725888Y-93122000D01*
X124765888Y-88905000D02*
X124765888Y-89960000D01*
X124765888Y-92040000D02*
X124765888Y-93095000D01*
X124805888Y-88935000D02*
X124805888Y-89960000D01*
X124805888Y-92040000D02*
X124805888Y-93065000D01*
X124845888Y-88965000D02*
X124845888Y-89960000D01*
X124845888Y-92040000D02*
X124845888Y-93035000D01*
X124885888Y-88996000D02*
X124885888Y-89960000D01*
X124885888Y-92040000D02*
X124885888Y-93004000D01*
X124925888Y-89029000D02*
X124925888Y-89960000D01*
X124925888Y-92040000D02*
X124925888Y-92971000D01*
X124965888Y-89063000D02*
X124965888Y-89960000D01*
X124965888Y-92040000D02*
X124965888Y-92937000D01*
X125005888Y-89099000D02*
X125005888Y-89960000D01*
X125005888Y-92040000D02*
X125005888Y-92901000D01*
X125045888Y-89136000D02*
X125045888Y-89960000D01*
X125045888Y-92040000D02*
X125045888Y-92864000D01*
X125085888Y-89174000D02*
X125085888Y-89960000D01*
X125085888Y-92040000D02*
X125085888Y-92826000D01*
X125125888Y-89215000D02*
X125125888Y-89960000D01*
X125125888Y-92040000D02*
X125125888Y-92785000D01*
X125165888Y-89257000D02*
X125165888Y-89960000D01*
X125165888Y-92040000D02*
X125165888Y-92743000D01*
X125205888Y-89301000D02*
X125205888Y-89960000D01*
X125205888Y-92040000D02*
X125205888Y-92699000D01*
X125245888Y-89347000D02*
X125245888Y-89960000D01*
X125245888Y-92040000D02*
X125245888Y-92653000D01*
X125285888Y-89395000D02*
X125285888Y-89960000D01*
X125285888Y-92040000D02*
X125285888Y-92605000D01*
X125325888Y-89446000D02*
X125325888Y-89960000D01*
X125325888Y-92040000D02*
X125325888Y-92554000D01*
X125365888Y-89500000D02*
X125365888Y-89960000D01*
X125365888Y-92040000D02*
X125365888Y-92500000D01*
X125405888Y-89557000D02*
X125405888Y-89960000D01*
X125405888Y-92040000D02*
X125405888Y-92443000D01*
X125445888Y-89617000D02*
X125445888Y-89960000D01*
X125445888Y-92040000D02*
X125445888Y-92383000D01*
X125485888Y-89681000D02*
X125485888Y-89960000D01*
X125485888Y-92040000D02*
X125485888Y-92319000D01*
X125525888Y-89749000D02*
X125525888Y-89960000D01*
X125525888Y-92040000D02*
X125525888Y-92251000D01*
X125565888Y-89822000D02*
X125565888Y-92178000D01*
X125605888Y-89902000D02*
X125605888Y-92098000D01*
X125645888Y-89989000D02*
X125645888Y-92011000D01*
X125685888Y-90085000D02*
X125685888Y-91915000D01*
X125725888Y-90195000D02*
X125725888Y-91805000D01*
X125765888Y-90323000D02*
X125765888Y-91677000D01*
X125805888Y-90482000D02*
X125805888Y-91518000D01*
X125845888Y-90716000D02*
X125845888Y-91284000D01*
X125864888Y-91000000D02*
G75*
G02*
X120624888Y-91000000I-2620000J0D01*
G01*
X120624888Y-91000000D02*
G75*
G02*
X125864888Y-91000000I2620000J0D01*
G01*
%TO.C,C_Decoupling1*%
X162853733Y-101490000D02*
X163146267Y-101490000D01*
X162853733Y-102510000D02*
X163146267Y-102510000D01*
%TO.C,FAN1*%
X128710000Y-92800000D02*
X134460000Y-92800000D01*
X128710000Y-98800000D02*
X128710000Y-92800000D01*
X130060000Y-97690000D02*
X135140000Y-97690000D01*
X130060000Y-98700000D02*
X130060000Y-97690000D01*
X135140000Y-97690000D02*
X135140000Y-98700000D01*
X135810000Y-92850000D02*
X139010000Y-92850000D01*
X139010000Y-92850000D02*
X139010000Y-98800000D01*
X139010000Y-98800000D02*
X128710000Y-98800000D01*
%TO.C,C_Debounce1*%
X110253733Y-118090000D02*
X110546267Y-118090000D01*
X110253733Y-119110000D02*
X110546267Y-119110000D01*
%TO.C,R_pull_up1*%
X146192224Y-88077500D02*
X145682776Y-88077500D01*
X146192224Y-89122500D02*
X145682776Y-89122500D01*
%TO.C,C1*%
X123053733Y-83490000D02*
X123346267Y-83490000D01*
X123053733Y-84510000D02*
X123346267Y-84510000D01*
%TO.C,R_Debounce1*%
X110145276Y-122677500D02*
X110654724Y-122677500D01*
X110145276Y-123722500D02*
X110654724Y-123722500D01*
%TO.C,MAIN_FAN1*%
X128710000Y-82800000D02*
X134460000Y-82800000D01*
X128710000Y-88800000D02*
X128710000Y-82800000D01*
X130060000Y-87690000D02*
X135140000Y-87690000D01*
X130060000Y-88700000D02*
X130060000Y-87690000D01*
X135140000Y-87690000D02*
X135140000Y-88700000D01*
X135810000Y-82850000D02*
X139010000Y-82850000D01*
X139010000Y-82850000D02*
X139010000Y-88800000D01*
X139010000Y-88800000D02*
X128710000Y-88800000D01*
%TO.C,RV1*%
X108670000Y-104705000D02*
X113740000Y-104705000D01*
X108670000Y-114475000D02*
X108670000Y-104705000D01*
X108670000Y-114475000D02*
X113740000Y-114475000D01*
X113740000Y-114475000D02*
X113740000Y-104705000D01*
%TO.C,J1*%
X102600000Y-82200000D02*
X117300000Y-82200000D01*
X102600000Y-91400000D02*
X102600000Y-82200000D01*
X111400000Y-91400000D02*
X102600000Y-91400000D01*
X116450000Y-82000000D02*
X117500000Y-82000000D01*
X117300000Y-82200000D02*
X117300000Y-84800000D01*
X117300000Y-88700000D02*
X117300000Y-91400000D01*
X117300000Y-91400000D02*
X115400000Y-91400000D01*
X117500000Y-83050000D02*
X117500000Y-82000000D01*
%TD*%
M02*
