%TF.GenerationSoftware,KiCad,Pcbnew,8.0.5*%
%TF.CreationDate,2024-10-30T03:14:11+09:00*%
%TF.ProjectId,FAN_controler_arduino_nano_2,46414e5f-636f-46e7-9472-6f6c65725f61,2.0*%
%TF.SameCoordinates,Original*%
%TF.FileFunction,Drillmap*%
%TF.FilePolarity,Positive*%
%FSLAX45Y45*%
G04 Gerber Fmt 4.5, Leading zero omitted, Abs format (unit mm)*
G04 Created by KiCad (PCBNEW 8.0.5) date 2024-10-30 03:14:11*
%MOMM*%
%LPD*%
G01*
G04 APERTURE LIST*
%ADD10C,0.050000*%
%ADD11C,0.200000*%
%ADD12C,0.100000*%
%ADD13C,0.102000*%
%ADD14C,0.110000*%
%ADD15C,0.120000*%
%ADD16C,0.250000*%
G04 APERTURE END LIST*
D10*
X10220000Y-8000000D02*
X19980000Y-8000000D01*
X19980000Y-14200000D01*
X10220000Y-14200000D01*
X10220000Y-8000000D01*
D11*
D12*
X10365000Y-8125000D02*
X10395000Y-8155000D01*
X10395000Y-8125000D02*
X10365000Y-8155000D01*
X10365000Y-8645000D02*
X10395000Y-8675000D01*
X10395000Y-8645000D02*
X10365000Y-8675000D01*
X10405000Y-10645000D02*
X10435000Y-10675000D01*
X10435000Y-10645000D02*
X10405000Y-10675000D01*
X10405000Y-11725000D02*
X10435000Y-11755000D01*
X10435000Y-11725000D02*
X10405000Y-11755000D01*
X10405000Y-12905000D02*
X10435000Y-12935000D01*
X10435000Y-12905000D02*
X10405000Y-12935000D01*
X10405000Y-13985000D02*
X10435000Y-14015000D01*
X10435000Y-13985000D02*
X10405000Y-14015000D01*
X10425000Y-9365000D02*
X10455000Y-9395000D01*
X10455000Y-9365000D02*
X10425000Y-9395000D01*
X10825000Y-8325000D02*
X10855000Y-8355000D01*
X10855000Y-8325000D02*
X10825000Y-8355000D01*
X10925000Y-10945000D02*
X10955000Y-10975000D01*
X10955000Y-10945000D02*
X10925000Y-10975000D01*
X11005000Y-9005000D02*
X11035000Y-9035000D01*
X11035000Y-9005000D02*
X11005000Y-9035000D01*
X11025000Y-12685000D02*
X11055000Y-12715000D01*
X11055000Y-12685000D02*
X11025000Y-12715000D01*
X11025000Y-13105000D02*
X11055000Y-13135000D01*
X11055000Y-13105000D02*
X11025000Y-13135000D01*
X11045000Y-10025000D02*
X11075000Y-10055000D01*
X11075000Y-10025000D02*
X11045000Y-10055000D01*
X11045000Y-11545000D02*
X11075000Y-11575000D01*
X11075000Y-11545000D02*
X11045000Y-11575000D01*
X11125000Y-12065000D02*
X11155000Y-12095000D01*
X11155000Y-12065000D02*
X11125000Y-12095000D01*
X11165000Y-14005000D02*
X11195000Y-14035000D01*
X11195000Y-14005000D02*
X11165000Y-14035000D01*
X11285000Y-11165000D02*
X11315000Y-11195000D01*
X11315000Y-11165000D02*
X11285000Y-11195000D01*
X11325000Y-8665000D02*
X11355000Y-8695000D01*
X11355000Y-8665000D02*
X11325000Y-8695000D01*
X11405000Y-12945000D02*
X11435000Y-12975000D01*
X11435000Y-12945000D02*
X11405000Y-12975000D01*
X11565000Y-13445000D02*
X11595000Y-13475000D01*
X11595000Y-13445000D02*
X11565000Y-13475000D01*
X11605000Y-10705000D02*
X11635000Y-10735000D01*
X11635000Y-10705000D02*
X11605000Y-10735000D01*
X11625000Y-8365000D02*
X11655000Y-8395000D01*
X11655000Y-8365000D02*
X11625000Y-8395000D01*
X11625000Y-12445000D02*
X11655000Y-12475000D01*
X11655000Y-12445000D02*
X11625000Y-12475000D01*
X11645000Y-9005000D02*
X11675000Y-9035000D01*
X11675000Y-9005000D02*
X11645000Y-9035000D01*
X11865000Y-10045000D02*
X11895000Y-10075000D01*
X11895000Y-10045000D02*
X11865000Y-10075000D01*
X11905000Y-13985000D02*
X11935000Y-14015000D01*
X11935000Y-13985000D02*
X11905000Y-14015000D01*
X11925000Y-10525000D02*
X11955000Y-10555000D01*
X11955000Y-10525000D02*
X11925000Y-10555000D01*
X11945000Y-9245000D02*
X11975000Y-9275000D01*
X11975000Y-9245000D02*
X11945000Y-9275000D01*
X12065000Y-8845000D02*
X12095000Y-8875000D01*
X12095000Y-8845000D02*
X12065000Y-8875000D01*
X12085000Y-8105000D02*
X12115000Y-8135000D01*
X12115000Y-8105000D02*
X12085000Y-8135000D01*
X12205000Y-11185000D02*
X12235000Y-11215000D01*
X12235000Y-11185000D02*
X12205000Y-11215000D01*
X12265000Y-11645000D02*
X12295000Y-11675000D01*
X12295000Y-11645000D02*
X12265000Y-11675000D01*
X12385000Y-8545000D02*
X12415000Y-8575000D01*
X12415000Y-8545000D02*
X12385000Y-8575000D01*
X12385000Y-8885000D02*
X12415000Y-8915000D01*
X12415000Y-8885000D02*
X12385000Y-8915000D01*
X12385000Y-10685000D02*
X12415000Y-10715000D01*
X12415000Y-10685000D02*
X12385000Y-10715000D01*
X12565000Y-12925000D02*
X12595000Y-12955000D01*
X12595000Y-12925000D02*
X12565000Y-12955000D01*
X12585000Y-8305000D02*
X12615000Y-8335000D01*
X12615000Y-8305000D02*
X12585000Y-8335000D01*
X12705000Y-10305000D02*
X12735000Y-10335000D01*
X12735000Y-10305000D02*
X12705000Y-10335000D01*
X12725000Y-9825000D02*
X12755000Y-9855000D01*
X12755000Y-9825000D02*
X12725000Y-9855000D01*
X12745000Y-9225000D02*
X12775000Y-9255000D01*
X12775000Y-9225000D02*
X12745000Y-9255000D01*
X12945000Y-8325000D02*
X12975000Y-8355000D01*
X12975000Y-8325000D02*
X12945000Y-8355000D01*
X12965000Y-11225000D02*
X12995000Y-11255000D01*
X12995000Y-11225000D02*
X12965000Y-11255000D01*
X13025000Y-10505000D02*
X13055000Y-10535000D01*
X13055000Y-10505000D02*
X13025000Y-10535000D01*
X13045000Y-9165000D02*
X13075000Y-9195000D01*
X13075000Y-9165000D02*
X13045000Y-9195000D01*
X13085000Y-8805000D02*
X13115000Y-8835000D01*
X13115000Y-8805000D02*
X13085000Y-8835000D01*
X13185000Y-8085000D02*
X13215000Y-8115000D01*
X13215000Y-8085000D02*
X13185000Y-8115000D01*
X13205000Y-13985000D02*
X13235000Y-14015000D01*
X13235000Y-13985000D02*
X13205000Y-14015000D01*
X13245000Y-10245000D02*
X13275000Y-10275000D01*
X13275000Y-10245000D02*
X13245000Y-10275000D01*
X13385000Y-9325000D02*
X13415000Y-9355000D01*
X13415000Y-9325000D02*
X13385000Y-9355000D01*
X13405000Y-8705000D02*
X13435000Y-8735000D01*
X13435000Y-8705000D02*
X13405000Y-8735000D01*
X13445000Y-10485000D02*
X13475000Y-10515000D01*
X13475000Y-10485000D02*
X13445000Y-10515000D01*
X13525000Y-10905000D02*
X13555000Y-10935000D01*
X13555000Y-10905000D02*
X13525000Y-10935000D01*
X13605000Y-8805000D02*
X13635000Y-8835000D01*
X13635000Y-8805000D02*
X13605000Y-8835000D01*
X13625000Y-9325000D02*
X13655000Y-9355000D01*
X13655000Y-9325000D02*
X13625000Y-9355000D01*
X13645000Y-8345000D02*
X13675000Y-8375000D01*
X13675000Y-8345000D02*
X13645000Y-8375000D01*
X13665000Y-10245000D02*
X13695000Y-10275000D01*
X13695000Y-10245000D02*
X13665000Y-10275000D01*
X13725000Y-11665000D02*
X13755000Y-11695000D01*
X13755000Y-11665000D02*
X13725000Y-11695000D01*
X13765000Y-10905000D02*
X13795000Y-10935000D01*
X13795000Y-10905000D02*
X13765000Y-10935000D01*
X13785000Y-9785000D02*
X13815000Y-9815000D01*
X13815000Y-9785000D02*
X13785000Y-9815000D01*
X13825000Y-12925000D02*
X13855000Y-12955000D01*
X13855000Y-12925000D02*
X13825000Y-12955000D01*
X13885000Y-9025000D02*
X13915000Y-9055000D01*
X13915000Y-9025000D02*
X13885000Y-9055000D01*
X13945000Y-9385000D02*
X13975000Y-9415000D01*
X13975000Y-9385000D02*
X13945000Y-9415000D01*
X13985000Y-8705000D02*
X14015000Y-8735000D01*
X14015000Y-8705000D02*
X13985000Y-8735000D01*
X14245000Y-11225000D02*
X14275000Y-11255000D01*
X14275000Y-11225000D02*
X14245000Y-11255000D01*
X14305000Y-9025000D02*
X14335000Y-9055000D01*
X14335000Y-9025000D02*
X14305000Y-9055000D01*
X14345000Y-8385000D02*
X14375000Y-8415000D01*
X14375000Y-8385000D02*
X14345000Y-8415000D01*
X14365000Y-9785000D02*
X14395000Y-9815000D01*
X14395000Y-9785000D02*
X14365000Y-9815000D01*
X14465000Y-9465000D02*
X14495000Y-9495000D01*
X14495000Y-9465000D02*
X14465000Y-9495000D01*
X14505000Y-13985000D02*
X14535000Y-14015000D01*
X14535000Y-13985000D02*
X14505000Y-14015000D01*
X14645000Y-9005000D02*
X14675000Y-9035000D01*
X14675000Y-9005000D02*
X14645000Y-9035000D01*
X14785000Y-8085000D02*
X14815000Y-8115000D01*
X14815000Y-8085000D02*
X14785000Y-8115000D01*
X14825000Y-9425000D02*
X14855000Y-9455000D01*
X14855000Y-9425000D02*
X14825000Y-9455000D01*
X14865000Y-9785000D02*
X14895000Y-9815000D01*
X14895000Y-9785000D02*
X14865000Y-9815000D01*
X15045000Y-8685000D02*
X15075000Y-8715000D01*
X15075000Y-8685000D02*
X15045000Y-8715000D01*
X15045000Y-12005000D02*
X15075000Y-12035000D01*
X15075000Y-12005000D02*
X15045000Y-12035000D01*
X15185000Y-12565000D02*
X15215000Y-12595000D01*
X15215000Y-12565000D02*
X15185000Y-12595000D01*
X15305000Y-8405000D02*
X15335000Y-8435000D01*
X15335000Y-8405000D02*
X15305000Y-8435000D01*
X15325000Y-8985000D02*
X15355000Y-9015000D01*
X15355000Y-8985000D02*
X15325000Y-9015000D01*
X15345000Y-9785000D02*
X15375000Y-9815000D01*
X15375000Y-9785000D02*
X15345000Y-9815000D01*
X15565000Y-9525000D02*
X15595000Y-9555000D01*
X15595000Y-9525000D02*
X15565000Y-9555000D01*
X15705000Y-8685000D02*
X15735000Y-8715000D01*
X15735000Y-8685000D02*
X15705000Y-8715000D01*
X15745000Y-12005000D02*
X15775000Y-12035000D01*
X15775000Y-12005000D02*
X15745000Y-12035000D01*
X15805000Y-11245000D02*
X15835000Y-11275000D01*
X15835000Y-11245000D02*
X15805000Y-11275000D01*
X15885000Y-8085000D02*
X15915000Y-8115000D01*
X15915000Y-8085000D02*
X15885000Y-8115000D01*
X15885000Y-8425000D02*
X15915000Y-8455000D01*
X15915000Y-8425000D02*
X15885000Y-8455000D01*
X16025000Y-8825000D02*
X16055000Y-8855000D01*
X16055000Y-8825000D02*
X16025000Y-8855000D01*
X16085000Y-13985000D02*
X16115000Y-14015000D01*
X16115000Y-13985000D02*
X16085000Y-14015000D01*
X16105000Y-9205000D02*
X16135000Y-9235000D01*
X16135000Y-9205000D02*
X16105000Y-9235000D01*
X16325000Y-10485000D02*
X16355000Y-10515000D01*
X16355000Y-10485000D02*
X16325000Y-10515000D01*
X16385000Y-8425000D02*
X16415000Y-8455000D01*
X16415000Y-8425000D02*
X16385000Y-8455000D01*
X16485000Y-9545000D02*
X16515000Y-9575000D01*
X16515000Y-9545000D02*
X16485000Y-9575000D01*
X16485000Y-10325000D02*
X16515000Y-10355000D01*
X16515000Y-10325000D02*
X16485000Y-10355000D01*
X16585000Y-12585000D02*
X16615000Y-12615000D01*
X16615000Y-12585000D02*
X16585000Y-12615000D01*
X16625000Y-8745000D02*
X16655000Y-8775000D01*
X16655000Y-8745000D02*
X16625000Y-8775000D01*
X16645000Y-10525000D02*
X16675000Y-10555000D01*
X16675000Y-10525000D02*
X16645000Y-10555000D01*
X16725000Y-10945000D02*
X16755000Y-10975000D01*
X16755000Y-10945000D02*
X16725000Y-10975000D01*
X16765000Y-8405000D02*
X16795000Y-8435000D01*
X16795000Y-8405000D02*
X16765000Y-8435000D01*
X16845000Y-10325000D02*
X16875000Y-10355000D01*
X16875000Y-10325000D02*
X16845000Y-10355000D01*
X16885000Y-8685000D02*
X16915000Y-8715000D01*
X16915000Y-8685000D02*
X16885000Y-8715000D01*
X16905000Y-9165000D02*
X16935000Y-9195000D01*
X16935000Y-9165000D02*
X16905000Y-9195000D01*
X16925000Y-9585000D02*
X16955000Y-9615000D01*
X16955000Y-9585000D02*
X16925000Y-9615000D01*
X17125000Y-8685000D02*
X17155000Y-8715000D01*
X17155000Y-8685000D02*
X17125000Y-8715000D01*
X17145000Y-8085000D02*
X17175000Y-8115000D01*
X17175000Y-8085000D02*
X17145000Y-8115000D01*
X17245000Y-12005000D02*
X17275000Y-12035000D01*
X17275000Y-12005000D02*
X17245000Y-12035000D01*
X17305000Y-10365000D02*
X17335000Y-10395000D01*
X17335000Y-10365000D02*
X17305000Y-10395000D01*
X17385000Y-13985000D02*
X17415000Y-14015000D01*
X17415000Y-13985000D02*
X17385000Y-14015000D01*
X17405000Y-8485000D02*
X17435000Y-8515000D01*
X17435000Y-8485000D02*
X17405000Y-8515000D01*
X17505000Y-9585000D02*
X17535000Y-9615000D01*
X17535000Y-9585000D02*
X17505000Y-9615000D01*
X17525000Y-9105000D02*
X17555000Y-9135000D01*
X17555000Y-9105000D02*
X17525000Y-9135000D01*
X17785000Y-8945000D02*
X17815000Y-8975000D01*
X17815000Y-8945000D02*
X17785000Y-8975000D01*
X18005000Y-9585000D02*
X18035000Y-9615000D01*
X18035000Y-9585000D02*
X18005000Y-9615000D01*
X18005000Y-11245000D02*
X18035000Y-11275000D01*
X18035000Y-11245000D02*
X18005000Y-11275000D01*
X18065000Y-12585000D02*
X18095000Y-12615000D01*
X18095000Y-12585000D02*
X18065000Y-12615000D01*
X18385000Y-9565000D02*
X18415000Y-9595000D01*
X18415000Y-9565000D02*
X18385000Y-9595000D01*
X18425000Y-8085000D02*
X18455000Y-8115000D01*
X18455000Y-8085000D02*
X18425000Y-8115000D01*
X18505000Y-10365000D02*
X18535000Y-10395000D01*
X18535000Y-10365000D02*
X18505000Y-10395000D01*
X18505000Y-12005000D02*
X18535000Y-12035000D01*
X18535000Y-12005000D02*
X18505000Y-12035000D01*
X18645000Y-8485000D02*
X18675000Y-8515000D01*
X18675000Y-8485000D02*
X18645000Y-8515000D01*
X18665000Y-9025000D02*
X18695000Y-9055000D01*
X18695000Y-9025000D02*
X18665000Y-9055000D01*
X18685000Y-13985000D02*
X18715000Y-14015000D01*
X18715000Y-13985000D02*
X18685000Y-14015000D01*
X19065000Y-9605000D02*
X19095000Y-9635000D01*
X19095000Y-9605000D02*
X19065000Y-9635000D01*
X19265000Y-11245000D02*
X19295000Y-11275000D01*
X19295000Y-11245000D02*
X19265000Y-11275000D01*
X19265000Y-12585000D02*
X19295000Y-12615000D01*
X19295000Y-12585000D02*
X19265000Y-12615000D01*
X19365000Y-10045000D02*
X19395000Y-10075000D01*
X19395000Y-10045000D02*
X19365000Y-10075000D01*
X19745000Y-9745000D02*
X19775000Y-9775000D01*
X19775000Y-9745000D02*
X19745000Y-9775000D01*
X19745000Y-10325000D02*
X19775000Y-10355000D01*
X19775000Y-10325000D02*
X19745000Y-10355000D01*
X19745000Y-10985000D02*
X19775000Y-11015000D01*
X19775000Y-10985000D02*
X19745000Y-11015000D01*
X19765000Y-8185000D02*
X19795000Y-8215000D01*
X19795000Y-8185000D02*
X19765000Y-8215000D01*
X19765000Y-8745000D02*
X19795000Y-8775000D01*
X19795000Y-8745000D02*
X19765000Y-8775000D01*
X19765000Y-11905000D02*
X19795000Y-11935000D01*
X19795000Y-11905000D02*
X19765000Y-11935000D01*
X19765000Y-13185000D02*
X19795000Y-13215000D01*
X19795000Y-13185000D02*
X19765000Y-13215000D01*
X19785000Y-13985000D02*
X19815000Y-14015000D01*
X19815000Y-13985000D02*
X19785000Y-14015000D01*
X11160000Y-10705000D02*
G75*
G02*
X11080000Y-10705000I-40000J0D01*
G01*
X11080000Y-10705000D02*
G75*
G02*
X11160000Y-10705000I40000J0D01*
G01*
X11160000Y-10959000D02*
G75*
G02*
X11080000Y-10959000I-40000J0D01*
G01*
X11080000Y-10959000D02*
G75*
G02*
X11160000Y-10959000I40000J0D01*
G01*
X11160000Y-11213000D02*
G75*
G02*
X11080000Y-11213000I-40000J0D01*
G01*
X11080000Y-11213000D02*
G75*
G02*
X11160000Y-11213000I40000J0D01*
G01*
X12239489Y-9100000D02*
G75*
G02*
X12159489Y-9100000I-40000J0D01*
G01*
X12159489Y-9100000D02*
G75*
G02*
X12239489Y-9100000I40000J0D01*
G01*
X12489489Y-9100000D02*
G75*
G02*
X12409489Y-9100000I-40000J0D01*
G01*
X12409489Y-9100000D02*
G75*
G02*
X12489489Y-9100000I40000J0D01*
G01*
X11040000Y-8630000D02*
X11040000Y-8730000D01*
X10990000Y-8680000D02*
X11090000Y-8680000D01*
X10990000Y-8580000D02*
X10990000Y-8780000D01*
X11090000Y-8780000D02*
G75*
G02*
X10990000Y-8780000I-50000J0D01*
G01*
X11090000Y-8780000D02*
X11090000Y-8580000D01*
X11090000Y-8580000D02*
G75*
G03*
X10990000Y-8580000I-50000J0D01*
G01*
X11340000Y-9100000D02*
X11340000Y-9200000D01*
X11290000Y-9150000D02*
X11390000Y-9150000D01*
X11240000Y-9200000D02*
X11440000Y-9200000D01*
X11440000Y-9100000D02*
G75*
G02*
X11440000Y-9200000I0J-50000D01*
G01*
X11440000Y-9100000D02*
X11240000Y-9100000D01*
X11240000Y-9100000D02*
G75*
G03*
X11240000Y-9200000I0J-50000D01*
G01*
X11640000Y-8630000D02*
X11640000Y-8730000D01*
X11590000Y-8680000D02*
X11690000Y-8680000D01*
X11590000Y-8580000D02*
X11590000Y-8780000D01*
X11690000Y-8780000D02*
G75*
G02*
X11590000Y-8780000I-50000J0D01*
G01*
X11690000Y-8780000D02*
X11690000Y-8580000D01*
X11690000Y-8580000D02*
G75*
G03*
X11590000Y-8580000I-50000J0D01*
G01*
X15644000Y-8226000D02*
X15644000Y-8326000D01*
X15594000Y-8276000D02*
X15694000Y-8276000D01*
X15644000Y-9750000D02*
X15644000Y-9850000D01*
X15594000Y-9800000D02*
X15694000Y-9800000D01*
X15898000Y-8226000D02*
X15898000Y-8326000D01*
X15848000Y-8276000D02*
X15948000Y-8276000D01*
X15898000Y-9750000D02*
X15898000Y-9850000D01*
X15848000Y-9800000D02*
X15948000Y-9800000D01*
X16152000Y-8226000D02*
X16152000Y-8326000D01*
X16102000Y-8276000D02*
X16202000Y-8276000D01*
X16152000Y-9750000D02*
X16152000Y-9850000D01*
X16102000Y-9800000D02*
X16202000Y-9800000D01*
X16406000Y-8226000D02*
X16406000Y-8326000D01*
X16356000Y-8276000D02*
X16456000Y-8276000D01*
X16406000Y-9750000D02*
X16406000Y-9850000D01*
X16356000Y-9800000D02*
X16456000Y-9800000D01*
X16660000Y-8226000D02*
X16660000Y-8326000D01*
X16610000Y-8276000D02*
X16710000Y-8276000D01*
X16660000Y-9750000D02*
X16660000Y-9850000D01*
X16610000Y-9800000D02*
X16710000Y-9800000D01*
X16914000Y-8226000D02*
X16914000Y-8326000D01*
X16864000Y-8276000D02*
X16964000Y-8276000D01*
X16914000Y-9750000D02*
X16914000Y-9850000D01*
X16864000Y-9800000D02*
X16964000Y-9800000D01*
X17168000Y-8226000D02*
X17168000Y-8326000D01*
X17118000Y-8276000D02*
X17218000Y-8276000D01*
X17168000Y-9750000D02*
X17168000Y-9850000D01*
X17118000Y-9800000D02*
X17218000Y-9800000D01*
X17422000Y-8226000D02*
X17422000Y-8326000D01*
X17372000Y-8276000D02*
X17472000Y-8276000D01*
X17422000Y-9750000D02*
X17422000Y-9850000D01*
X17372000Y-9800000D02*
X17472000Y-9800000D01*
X17676000Y-8226000D02*
X17676000Y-8326000D01*
X17626000Y-8276000D02*
X17726000Y-8276000D01*
X17676000Y-9750000D02*
X17676000Y-9850000D01*
X17626000Y-9800000D02*
X17726000Y-9800000D01*
X17930000Y-8226000D02*
X17930000Y-8326000D01*
X17880000Y-8276000D02*
X17980000Y-8276000D01*
X17930000Y-9750000D02*
X17930000Y-9850000D01*
X17880000Y-9800000D02*
X17980000Y-9800000D01*
X18184000Y-8226000D02*
X18184000Y-8326000D01*
X18134000Y-8276000D02*
X18234000Y-8276000D01*
X18184000Y-9750000D02*
X18184000Y-9850000D01*
X18134000Y-9800000D02*
X18234000Y-9800000D01*
X18438000Y-8226000D02*
X18438000Y-8326000D01*
X18388000Y-8276000D02*
X18488000Y-8276000D01*
X18438000Y-9750000D02*
X18438000Y-9850000D01*
X18388000Y-9800000D02*
X18488000Y-9800000D01*
X18692000Y-8226000D02*
X18692000Y-8326000D01*
X18642000Y-8276000D02*
X18742000Y-8276000D01*
X18692000Y-9750000D02*
X18692000Y-9850000D01*
X18642000Y-9800000D02*
X18742000Y-9800000D01*
X18946000Y-8226000D02*
X18946000Y-8326000D01*
X18896000Y-8276000D02*
X18996000Y-8276000D01*
X18946000Y-9750000D02*
X18946000Y-9850000D01*
X18896000Y-9800000D02*
X18996000Y-9800000D01*
X19200000Y-8226000D02*
X19200000Y-8326000D01*
X19150000Y-8276000D02*
X19250000Y-8276000D01*
X19200000Y-9750000D02*
X19200000Y-9850000D01*
X19150000Y-9800000D02*
X19250000Y-9800000D01*
D13*
X13042063Y-8576063D02*
X13042063Y-8503937D01*
X12969937Y-8503937D01*
X12969937Y-8576063D01*
X13042063Y-8576063D01*
X13042063Y-9576063D02*
X13042063Y-9503937D01*
X12969937Y-9503937D01*
X12969937Y-9576063D01*
X13042063Y-9576063D01*
X13296063Y-8576063D02*
X13296063Y-8503937D01*
X13223937Y-8503937D01*
X13223937Y-8576063D01*
X13296063Y-8576063D01*
X13296063Y-9576063D02*
X13296063Y-9503937D01*
X13223937Y-9503937D01*
X13223937Y-9576063D01*
X13296063Y-9576063D01*
X13550063Y-8576063D02*
X13550063Y-8503937D01*
X13477937Y-8503937D01*
X13477937Y-8576063D01*
X13550063Y-8576063D01*
X13550063Y-9576063D02*
X13550063Y-9503937D01*
X13477937Y-9503937D01*
X13477937Y-9576063D01*
X13550063Y-9576063D01*
X13804063Y-8576063D02*
X13804063Y-8503937D01*
X13731937Y-8503937D01*
X13731937Y-8576063D01*
X13804063Y-8576063D01*
X13804063Y-9576063D02*
X13804063Y-9503937D01*
X13731937Y-9503937D01*
X13731937Y-9576063D01*
X13804063Y-9576063D01*
D14*
X10810000Y-12850000D02*
X10865000Y-12795000D01*
X10810000Y-12740000D01*
X10755000Y-12795000D01*
X10810000Y-12850000D01*
X10810000Y-13500000D02*
X10865000Y-13445000D01*
X10810000Y-13390000D01*
X10755000Y-13445000D01*
X10810000Y-13500000D01*
X11260000Y-12850000D02*
X11315000Y-12795000D01*
X11260000Y-12740000D01*
X11205000Y-12795000D01*
X11260000Y-12850000D01*
X11260000Y-13500000D02*
X11315000Y-13445000D01*
X11260000Y-13390000D01*
X11205000Y-13445000D01*
X11260000Y-13500000D01*
D15*
X12590052Y-10659930D02*
X12710052Y-10779930D01*
X12710052Y-10659930D02*
X12590052Y-10779930D01*
X12710052Y-10719930D02*
G75*
G02*
X12590052Y-10719930I-60000J0D01*
G01*
X12590052Y-10719930D02*
G75*
G02*
X12710052Y-10719930I60000J0D01*
G01*
X12844052Y-10659930D02*
X12964052Y-10779930D01*
X12964052Y-10659930D02*
X12844052Y-10779930D01*
X12964052Y-10719930D02*
G75*
G02*
X12844052Y-10719930I-60000J0D01*
G01*
X12844052Y-10719930D02*
G75*
G02*
X12964052Y-10719930I60000J0D01*
G01*
X13098052Y-10659930D02*
X13218052Y-10779930D01*
X13218052Y-10659930D02*
X13098052Y-10779930D01*
X13218052Y-10719930D02*
G75*
G02*
X13098052Y-10719930I-60000J0D01*
G01*
X13098052Y-10719930D02*
G75*
G02*
X13218052Y-10719930I60000J0D01*
G01*
X13352052Y-10659930D02*
X13472052Y-10779930D01*
X13472052Y-10659930D02*
X13352052Y-10779930D01*
X13472052Y-10719930D02*
G75*
G02*
X13352052Y-10719930I-60000J0D01*
G01*
X13352052Y-10719930D02*
G75*
G02*
X13472052Y-10719930I60000J0D01*
G01*
X13606052Y-10659930D02*
X13726052Y-10779930D01*
X13726052Y-10659930D02*
X13606052Y-10779930D01*
X13726052Y-10719930D02*
G75*
G02*
X13606052Y-10719930I-60000J0D01*
G01*
X13606052Y-10719930D02*
G75*
G02*
X13726052Y-10719930I60000J0D01*
G01*
X13860052Y-10659930D02*
X13980052Y-10779930D01*
X13980052Y-10659930D02*
X13860052Y-10779930D01*
X13980052Y-10719930D02*
G75*
G02*
X13860052Y-10719930I-60000J0D01*
G01*
X13860052Y-10719930D02*
G75*
G02*
X13980052Y-10719930I60000J0D01*
G01*
X14114052Y-10659930D02*
X14234052Y-10779930D01*
X14234052Y-10659930D02*
X14114052Y-10779930D01*
X14234052Y-10719930D02*
G75*
G02*
X14114052Y-10719930I-60000J0D01*
G01*
X14114052Y-10719930D02*
G75*
G02*
X14234052Y-10719930I60000J0D01*
G01*
X14368052Y-10659930D02*
X14488052Y-10779930D01*
X14488052Y-10659930D02*
X14368052Y-10779930D01*
X14488052Y-10719930D02*
G75*
G02*
X14368052Y-10719930I-60000J0D01*
G01*
X14368052Y-10719930D02*
G75*
G02*
X14488052Y-10719930I60000J0D01*
G01*
X14622052Y-10659930D02*
X14742052Y-10779930D01*
X14742052Y-10659930D02*
X14622052Y-10779930D01*
X14742052Y-10719930D02*
G75*
G02*
X14622052Y-10719930I-60000J0D01*
G01*
X14622052Y-10719930D02*
G75*
G02*
X14742052Y-10719930I60000J0D01*
G01*
X14876052Y-10659930D02*
X14996052Y-10779930D01*
X14996052Y-10659930D02*
X14876052Y-10779930D01*
X14996052Y-10719930D02*
G75*
G02*
X14876052Y-10719930I-60000J0D01*
G01*
X14876052Y-10719930D02*
G75*
G02*
X14996052Y-10719930I60000J0D01*
G01*
X15130052Y-10659930D02*
X15250052Y-10779930D01*
X15250052Y-10659930D02*
X15130052Y-10779930D01*
X15250052Y-10719930D02*
G75*
G02*
X15130052Y-10719930I-60000J0D01*
G01*
X15130052Y-10719930D02*
G75*
G02*
X15250052Y-10719930I60000J0D01*
G01*
X15384052Y-10659930D02*
X15504052Y-10779930D01*
X15504052Y-10659930D02*
X15384052Y-10779930D01*
X15504052Y-10719930D02*
G75*
G02*
X15384052Y-10719930I-60000J0D01*
G01*
X15384052Y-10719930D02*
G75*
G02*
X15504052Y-10719930I60000J0D01*
G01*
X15638052Y-10659930D02*
X15758052Y-10779930D01*
X15758052Y-10659930D02*
X15638052Y-10779930D01*
X15758052Y-10719930D02*
G75*
G02*
X15638052Y-10719930I-60000J0D01*
G01*
X15638052Y-10719930D02*
G75*
G02*
X15758052Y-10719930I60000J0D01*
G01*
X15892052Y-10659930D02*
X16012052Y-10779930D01*
X16012052Y-10659930D02*
X15892052Y-10779930D01*
X16012052Y-10719930D02*
G75*
G02*
X15892052Y-10719930I-60000J0D01*
G01*
X15892052Y-10719930D02*
G75*
G02*
X16012052Y-10719930I60000J0D01*
G01*
X16146052Y-10659930D02*
X16266052Y-10779930D01*
X16266052Y-10659930D02*
X16146052Y-10779930D01*
X16266052Y-10719930D02*
G75*
G02*
X16146052Y-10719930I-60000J0D01*
G01*
X16146052Y-10719930D02*
G75*
G02*
X16266052Y-10719930I60000J0D01*
G01*
X16400052Y-10659930D02*
X16520052Y-10779930D01*
X16520052Y-10659930D02*
X16400052Y-10779930D01*
X16520052Y-10719930D02*
G75*
G02*
X16400052Y-10719930I-60000J0D01*
G01*
X16400052Y-10719930D02*
G75*
G02*
X16520052Y-10719930I60000J0D01*
G01*
D16*
X11975142Y-10594930D02*
X12225142Y-10844930D01*
X12225142Y-10594930D02*
X11975142Y-10844930D01*
X12100142Y-10594930D02*
X12100142Y-10844930D01*
X11975142Y-10719930D02*
X12225142Y-10719930D01*
X11975142Y-13695000D02*
X12225142Y-13945000D01*
X12225142Y-13695000D02*
X11975142Y-13945000D01*
X12100142Y-13695000D02*
X12100142Y-13945000D01*
X11975142Y-13820000D02*
X12225142Y-13820000D01*
X19475000Y-13695000D02*
X19725000Y-13945000D01*
X19725000Y-13695000D02*
X19475000Y-13945000D01*
X19600000Y-13695000D02*
X19600000Y-13945000D01*
X19475000Y-13820000D02*
X19725000Y-13820000D01*
X19475052Y-10594930D02*
X19725052Y-10844930D01*
X19725052Y-10594930D02*
X19475052Y-10844930D01*
X19600052Y-10594930D02*
X19600052Y-10844930D01*
X19475052Y-10719930D02*
X19725052Y-10719930D01*
D14*
X13459000Y-8269000D02*
X13569000Y-8379000D01*
X13569000Y-8269000D02*
X13459000Y-8379000D01*
X13552891Y-8362891D02*
X13552891Y-8285109D01*
X13475109Y-8285109D01*
X13475109Y-8362891D01*
X13552891Y-8362891D01*
X13459000Y-9269000D02*
X13569000Y-9379000D01*
X13569000Y-9269000D02*
X13459000Y-9379000D01*
X13552891Y-9362891D02*
X13552891Y-9285109D01*
X13475109Y-9285109D01*
X13475109Y-9362891D01*
X13552891Y-9362891D01*
D11*
X10478277Y-14513984D02*
X10478277Y-14313984D01*
X10478277Y-14313984D02*
X10525896Y-14313984D01*
X10525896Y-14313984D02*
X10554467Y-14323508D01*
X10554467Y-14323508D02*
X10573515Y-14342555D01*
X10573515Y-14342555D02*
X10583039Y-14361603D01*
X10583039Y-14361603D02*
X10592563Y-14399698D01*
X10592563Y-14399698D02*
X10592563Y-14428269D01*
X10592563Y-14428269D02*
X10583039Y-14466365D01*
X10583039Y-14466365D02*
X10573515Y-14485412D01*
X10573515Y-14485412D02*
X10554467Y-14504460D01*
X10554467Y-14504460D02*
X10525896Y-14513984D01*
X10525896Y-14513984D02*
X10478277Y-14513984D01*
X10678277Y-14513984D02*
X10678277Y-14380650D01*
X10678277Y-14418746D02*
X10687801Y-14399698D01*
X10687801Y-14399698D02*
X10697324Y-14390174D01*
X10697324Y-14390174D02*
X10716372Y-14380650D01*
X10716372Y-14380650D02*
X10735420Y-14380650D01*
X10802086Y-14513984D02*
X10802086Y-14380650D01*
X10802086Y-14313984D02*
X10792563Y-14323508D01*
X10792563Y-14323508D02*
X10802086Y-14333031D01*
X10802086Y-14333031D02*
X10811610Y-14323508D01*
X10811610Y-14323508D02*
X10802086Y-14313984D01*
X10802086Y-14313984D02*
X10802086Y-14333031D01*
X10925896Y-14513984D02*
X10906848Y-14504460D01*
X10906848Y-14504460D02*
X10897324Y-14485412D01*
X10897324Y-14485412D02*
X10897324Y-14313984D01*
X11030658Y-14513984D02*
X11011610Y-14504460D01*
X11011610Y-14504460D02*
X11002086Y-14485412D01*
X11002086Y-14485412D02*
X11002086Y-14313984D01*
X11259229Y-14513984D02*
X11259229Y-14313984D01*
X11259229Y-14313984D02*
X11325896Y-14456841D01*
X11325896Y-14456841D02*
X11392562Y-14313984D01*
X11392562Y-14313984D02*
X11392562Y-14513984D01*
X11573515Y-14513984D02*
X11573515Y-14409222D01*
X11573515Y-14409222D02*
X11563991Y-14390174D01*
X11563991Y-14390174D02*
X11544943Y-14380650D01*
X11544943Y-14380650D02*
X11506848Y-14380650D01*
X11506848Y-14380650D02*
X11487801Y-14390174D01*
X11573515Y-14504460D02*
X11554467Y-14513984D01*
X11554467Y-14513984D02*
X11506848Y-14513984D01*
X11506848Y-14513984D02*
X11487801Y-14504460D01*
X11487801Y-14504460D02*
X11478277Y-14485412D01*
X11478277Y-14485412D02*
X11478277Y-14466365D01*
X11478277Y-14466365D02*
X11487801Y-14447317D01*
X11487801Y-14447317D02*
X11506848Y-14437793D01*
X11506848Y-14437793D02*
X11554467Y-14437793D01*
X11554467Y-14437793D02*
X11573515Y-14428269D01*
X11668753Y-14380650D02*
X11668753Y-14580650D01*
X11668753Y-14390174D02*
X11687801Y-14380650D01*
X11687801Y-14380650D02*
X11725896Y-14380650D01*
X11725896Y-14380650D02*
X11744943Y-14390174D01*
X11744943Y-14390174D02*
X11754467Y-14399698D01*
X11754467Y-14399698D02*
X11763991Y-14418746D01*
X11763991Y-14418746D02*
X11763991Y-14475888D01*
X11763991Y-14475888D02*
X11754467Y-14494936D01*
X11754467Y-14494936D02*
X11744943Y-14504460D01*
X11744943Y-14504460D02*
X11725896Y-14513984D01*
X11725896Y-14513984D02*
X11687801Y-14513984D01*
X11687801Y-14513984D02*
X11668753Y-14504460D01*
X11849705Y-14494936D02*
X11859229Y-14504460D01*
X11859229Y-14504460D02*
X11849705Y-14513984D01*
X11849705Y-14513984D02*
X11840182Y-14504460D01*
X11840182Y-14504460D02*
X11849705Y-14494936D01*
X11849705Y-14494936D02*
X11849705Y-14513984D01*
X11849705Y-14390174D02*
X11859229Y-14399698D01*
X11859229Y-14399698D02*
X11849705Y-14409222D01*
X11849705Y-14409222D02*
X11840182Y-14399698D01*
X11840182Y-14399698D02*
X11849705Y-14390174D01*
X11849705Y-14390174D02*
X11849705Y-14409222D01*
D12*
X10187500Y-14827500D02*
X10217500Y-14857500D01*
X10217500Y-14827500D02*
X10187500Y-14857500D01*
D11*
X10516372Y-14733984D02*
X10535420Y-14733984D01*
X10535420Y-14733984D02*
X10554467Y-14743508D01*
X10554467Y-14743508D02*
X10563991Y-14753031D01*
X10563991Y-14753031D02*
X10573515Y-14772079D01*
X10573515Y-14772079D02*
X10583039Y-14810174D01*
X10583039Y-14810174D02*
X10583039Y-14857793D01*
X10583039Y-14857793D02*
X10573515Y-14895888D01*
X10573515Y-14895888D02*
X10563991Y-14914936D01*
X10563991Y-14914936D02*
X10554467Y-14924460D01*
X10554467Y-14924460D02*
X10535420Y-14933984D01*
X10535420Y-14933984D02*
X10516372Y-14933984D01*
X10516372Y-14933984D02*
X10497324Y-14924460D01*
X10497324Y-14924460D02*
X10487801Y-14914936D01*
X10487801Y-14914936D02*
X10478277Y-14895888D01*
X10478277Y-14895888D02*
X10468753Y-14857793D01*
X10468753Y-14857793D02*
X10468753Y-14810174D01*
X10468753Y-14810174D02*
X10478277Y-14772079D01*
X10478277Y-14772079D02*
X10487801Y-14753031D01*
X10487801Y-14753031D02*
X10497324Y-14743508D01*
X10497324Y-14743508D02*
X10516372Y-14733984D01*
X10668753Y-14914936D02*
X10678277Y-14924460D01*
X10678277Y-14924460D02*
X10668753Y-14933984D01*
X10668753Y-14933984D02*
X10659229Y-14924460D01*
X10659229Y-14924460D02*
X10668753Y-14914936D01*
X10668753Y-14914936D02*
X10668753Y-14933984D01*
X10744944Y-14733984D02*
X10868753Y-14733984D01*
X10868753Y-14733984D02*
X10802086Y-14810174D01*
X10802086Y-14810174D02*
X10830658Y-14810174D01*
X10830658Y-14810174D02*
X10849705Y-14819698D01*
X10849705Y-14819698D02*
X10859229Y-14829222D01*
X10859229Y-14829222D02*
X10868753Y-14848269D01*
X10868753Y-14848269D02*
X10868753Y-14895888D01*
X10868753Y-14895888D02*
X10859229Y-14914936D01*
X10859229Y-14914936D02*
X10849705Y-14924460D01*
X10849705Y-14924460D02*
X10830658Y-14933984D01*
X10830658Y-14933984D02*
X10773515Y-14933984D01*
X10773515Y-14933984D02*
X10754467Y-14924460D01*
X10754467Y-14924460D02*
X10744944Y-14914936D01*
X10992563Y-14733984D02*
X11011610Y-14733984D01*
X11011610Y-14733984D02*
X11030658Y-14743508D01*
X11030658Y-14743508D02*
X11040182Y-14753031D01*
X11040182Y-14753031D02*
X11049705Y-14772079D01*
X11049705Y-14772079D02*
X11059229Y-14810174D01*
X11059229Y-14810174D02*
X11059229Y-14857793D01*
X11059229Y-14857793D02*
X11049705Y-14895888D01*
X11049705Y-14895888D02*
X11040182Y-14914936D01*
X11040182Y-14914936D02*
X11030658Y-14924460D01*
X11030658Y-14924460D02*
X11011610Y-14933984D01*
X11011610Y-14933984D02*
X10992563Y-14933984D01*
X10992563Y-14933984D02*
X10973515Y-14924460D01*
X10973515Y-14924460D02*
X10963991Y-14914936D01*
X10963991Y-14914936D02*
X10954467Y-14895888D01*
X10954467Y-14895888D02*
X10944944Y-14857793D01*
X10944944Y-14857793D02*
X10944944Y-14810174D01*
X10944944Y-14810174D02*
X10954467Y-14772079D01*
X10954467Y-14772079D02*
X10963991Y-14753031D01*
X10963991Y-14753031D02*
X10973515Y-14743508D01*
X10973515Y-14743508D02*
X10992563Y-14733984D01*
X11183039Y-14733984D02*
X11202086Y-14733984D01*
X11202086Y-14733984D02*
X11221134Y-14743508D01*
X11221134Y-14743508D02*
X11230658Y-14753031D01*
X11230658Y-14753031D02*
X11240182Y-14772079D01*
X11240182Y-14772079D02*
X11249705Y-14810174D01*
X11249705Y-14810174D02*
X11249705Y-14857793D01*
X11249705Y-14857793D02*
X11240182Y-14895888D01*
X11240182Y-14895888D02*
X11230658Y-14914936D01*
X11230658Y-14914936D02*
X11221134Y-14924460D01*
X11221134Y-14924460D02*
X11202086Y-14933984D01*
X11202086Y-14933984D02*
X11183039Y-14933984D01*
X11183039Y-14933984D02*
X11163991Y-14924460D01*
X11163991Y-14924460D02*
X11154467Y-14914936D01*
X11154467Y-14914936D02*
X11144944Y-14895888D01*
X11144944Y-14895888D02*
X11135420Y-14857793D01*
X11135420Y-14857793D02*
X11135420Y-14810174D01*
X11135420Y-14810174D02*
X11144944Y-14772079D01*
X11144944Y-14772079D02*
X11154467Y-14753031D01*
X11154467Y-14753031D02*
X11163991Y-14743508D01*
X11163991Y-14743508D02*
X11183039Y-14733984D01*
X11335420Y-14933984D02*
X11335420Y-14800650D01*
X11335420Y-14819698D02*
X11344943Y-14810174D01*
X11344943Y-14810174D02*
X11363991Y-14800650D01*
X11363991Y-14800650D02*
X11392563Y-14800650D01*
X11392563Y-14800650D02*
X11411610Y-14810174D01*
X11411610Y-14810174D02*
X11421134Y-14829222D01*
X11421134Y-14829222D02*
X11421134Y-14933984D01*
X11421134Y-14829222D02*
X11430658Y-14810174D01*
X11430658Y-14810174D02*
X11449705Y-14800650D01*
X11449705Y-14800650D02*
X11478277Y-14800650D01*
X11478277Y-14800650D02*
X11497324Y-14810174D01*
X11497324Y-14810174D02*
X11506848Y-14829222D01*
X11506848Y-14829222D02*
X11506848Y-14933984D01*
X11602086Y-14933984D02*
X11602086Y-14800650D01*
X11602086Y-14819698D02*
X11611610Y-14810174D01*
X11611610Y-14810174D02*
X11630658Y-14800650D01*
X11630658Y-14800650D02*
X11659229Y-14800650D01*
X11659229Y-14800650D02*
X11678277Y-14810174D01*
X11678277Y-14810174D02*
X11687801Y-14829222D01*
X11687801Y-14829222D02*
X11687801Y-14933984D01*
X11687801Y-14829222D02*
X11697324Y-14810174D01*
X11697324Y-14810174D02*
X11716372Y-14800650D01*
X11716372Y-14800650D02*
X11744943Y-14800650D01*
X11744943Y-14800650D02*
X11763991Y-14810174D01*
X11763991Y-14810174D02*
X11773515Y-14829222D01*
X11773515Y-14829222D02*
X11773515Y-14933984D01*
X12163991Y-14724460D02*
X11992563Y-14981603D01*
X12421134Y-14733984D02*
X12440182Y-14733984D01*
X12440182Y-14733984D02*
X12459229Y-14743508D01*
X12459229Y-14743508D02*
X12468753Y-14753031D01*
X12468753Y-14753031D02*
X12478277Y-14772079D01*
X12478277Y-14772079D02*
X12487801Y-14810174D01*
X12487801Y-14810174D02*
X12487801Y-14857793D01*
X12487801Y-14857793D02*
X12478277Y-14895888D01*
X12478277Y-14895888D02*
X12468753Y-14914936D01*
X12468753Y-14914936D02*
X12459229Y-14924460D01*
X12459229Y-14924460D02*
X12440182Y-14933984D01*
X12440182Y-14933984D02*
X12421134Y-14933984D01*
X12421134Y-14933984D02*
X12402086Y-14924460D01*
X12402086Y-14924460D02*
X12392563Y-14914936D01*
X12392563Y-14914936D02*
X12383039Y-14895888D01*
X12383039Y-14895888D02*
X12373515Y-14857793D01*
X12373515Y-14857793D02*
X12373515Y-14810174D01*
X12373515Y-14810174D02*
X12383039Y-14772079D01*
X12383039Y-14772079D02*
X12392563Y-14753031D01*
X12392563Y-14753031D02*
X12402086Y-14743508D01*
X12402086Y-14743508D02*
X12421134Y-14733984D01*
X12573515Y-14914936D02*
X12583039Y-14924460D01*
X12583039Y-14924460D02*
X12573515Y-14933984D01*
X12573515Y-14933984D02*
X12563991Y-14924460D01*
X12563991Y-14924460D02*
X12573515Y-14914936D01*
X12573515Y-14914936D02*
X12573515Y-14933984D01*
X12706848Y-14733984D02*
X12725896Y-14733984D01*
X12725896Y-14733984D02*
X12744944Y-14743508D01*
X12744944Y-14743508D02*
X12754467Y-14753031D01*
X12754467Y-14753031D02*
X12763991Y-14772079D01*
X12763991Y-14772079D02*
X12773515Y-14810174D01*
X12773515Y-14810174D02*
X12773515Y-14857793D01*
X12773515Y-14857793D02*
X12763991Y-14895888D01*
X12763991Y-14895888D02*
X12754467Y-14914936D01*
X12754467Y-14914936D02*
X12744944Y-14924460D01*
X12744944Y-14924460D02*
X12725896Y-14933984D01*
X12725896Y-14933984D02*
X12706848Y-14933984D01*
X12706848Y-14933984D02*
X12687801Y-14924460D01*
X12687801Y-14924460D02*
X12678277Y-14914936D01*
X12678277Y-14914936D02*
X12668753Y-14895888D01*
X12668753Y-14895888D02*
X12659229Y-14857793D01*
X12659229Y-14857793D02*
X12659229Y-14810174D01*
X12659229Y-14810174D02*
X12668753Y-14772079D01*
X12668753Y-14772079D02*
X12678277Y-14753031D01*
X12678277Y-14753031D02*
X12687801Y-14743508D01*
X12687801Y-14743508D02*
X12706848Y-14733984D01*
X12963991Y-14933984D02*
X12849706Y-14933984D01*
X12906848Y-14933984D02*
X12906848Y-14733984D01*
X12906848Y-14733984D02*
X12887801Y-14762555D01*
X12887801Y-14762555D02*
X12868753Y-14781603D01*
X12868753Y-14781603D02*
X12849706Y-14791127D01*
X13154467Y-14933984D02*
X13040182Y-14933984D01*
X13097325Y-14933984D02*
X13097325Y-14733984D01*
X13097325Y-14733984D02*
X13078277Y-14762555D01*
X13078277Y-14762555D02*
X13059229Y-14781603D01*
X13059229Y-14781603D02*
X13040182Y-14791127D01*
X13268753Y-14819698D02*
X13249706Y-14810174D01*
X13249706Y-14810174D02*
X13240182Y-14800650D01*
X13240182Y-14800650D02*
X13230658Y-14781603D01*
X13230658Y-14781603D02*
X13230658Y-14772079D01*
X13230658Y-14772079D02*
X13240182Y-14753031D01*
X13240182Y-14753031D02*
X13249706Y-14743508D01*
X13249706Y-14743508D02*
X13268753Y-14733984D01*
X13268753Y-14733984D02*
X13306848Y-14733984D01*
X13306848Y-14733984D02*
X13325896Y-14743508D01*
X13325896Y-14743508D02*
X13335420Y-14753031D01*
X13335420Y-14753031D02*
X13344944Y-14772079D01*
X13344944Y-14772079D02*
X13344944Y-14781603D01*
X13344944Y-14781603D02*
X13335420Y-14800650D01*
X13335420Y-14800650D02*
X13325896Y-14810174D01*
X13325896Y-14810174D02*
X13306848Y-14819698D01*
X13306848Y-14819698D02*
X13268753Y-14819698D01*
X13268753Y-14819698D02*
X13249706Y-14829222D01*
X13249706Y-14829222D02*
X13240182Y-14838746D01*
X13240182Y-14838746D02*
X13230658Y-14857793D01*
X13230658Y-14857793D02*
X13230658Y-14895888D01*
X13230658Y-14895888D02*
X13240182Y-14914936D01*
X13240182Y-14914936D02*
X13249706Y-14924460D01*
X13249706Y-14924460D02*
X13268753Y-14933984D01*
X13268753Y-14933984D02*
X13306848Y-14933984D01*
X13306848Y-14933984D02*
X13325896Y-14924460D01*
X13325896Y-14924460D02*
X13335420Y-14914936D01*
X13335420Y-14914936D02*
X13344944Y-14895888D01*
X13344944Y-14895888D02*
X13344944Y-14857793D01*
X13344944Y-14857793D02*
X13335420Y-14838746D01*
X13335420Y-14838746D02*
X13325896Y-14829222D01*
X13325896Y-14829222D02*
X13306848Y-14819698D01*
X13421134Y-14733984D02*
X13421134Y-14772079D01*
X13497325Y-14733984D02*
X13497325Y-14772079D01*
X13792563Y-15010174D02*
X13783039Y-15000650D01*
X13783039Y-15000650D02*
X13763991Y-14972079D01*
X13763991Y-14972079D02*
X13754468Y-14953031D01*
X13754468Y-14953031D02*
X13744944Y-14924460D01*
X13744944Y-14924460D02*
X13735420Y-14876841D01*
X13735420Y-14876841D02*
X13735420Y-14838746D01*
X13735420Y-14838746D02*
X13744944Y-14791127D01*
X13744944Y-14791127D02*
X13754468Y-14762555D01*
X13754468Y-14762555D02*
X13763991Y-14743508D01*
X13763991Y-14743508D02*
X13783039Y-14714936D01*
X13783039Y-14714936D02*
X13792563Y-14705412D01*
X13973515Y-14933984D02*
X13859229Y-14933984D01*
X13916372Y-14933984D02*
X13916372Y-14733984D01*
X13916372Y-14733984D02*
X13897325Y-14762555D01*
X13897325Y-14762555D02*
X13878277Y-14781603D01*
X13878277Y-14781603D02*
X13859229Y-14791127D01*
X14040182Y-14733984D02*
X14163991Y-14733984D01*
X14163991Y-14733984D02*
X14097325Y-14810174D01*
X14097325Y-14810174D02*
X14125896Y-14810174D01*
X14125896Y-14810174D02*
X14144944Y-14819698D01*
X14144944Y-14819698D02*
X14154468Y-14829222D01*
X14154468Y-14829222D02*
X14163991Y-14848269D01*
X14163991Y-14848269D02*
X14163991Y-14895888D01*
X14163991Y-14895888D02*
X14154468Y-14914936D01*
X14154468Y-14914936D02*
X14144944Y-14924460D01*
X14144944Y-14924460D02*
X14125896Y-14933984D01*
X14125896Y-14933984D02*
X14068753Y-14933984D01*
X14068753Y-14933984D02*
X14049706Y-14924460D01*
X14049706Y-14924460D02*
X14040182Y-14914936D01*
X14240182Y-14753031D02*
X14249706Y-14743508D01*
X14249706Y-14743508D02*
X14268753Y-14733984D01*
X14268753Y-14733984D02*
X14316372Y-14733984D01*
X14316372Y-14733984D02*
X14335420Y-14743508D01*
X14335420Y-14743508D02*
X14344944Y-14753031D01*
X14344944Y-14753031D02*
X14354468Y-14772079D01*
X14354468Y-14772079D02*
X14354468Y-14791127D01*
X14354468Y-14791127D02*
X14344944Y-14819698D01*
X14344944Y-14819698D02*
X14230658Y-14933984D01*
X14230658Y-14933984D02*
X14354468Y-14933984D01*
X14592563Y-14933984D02*
X14592563Y-14733984D01*
X14678277Y-14933984D02*
X14678277Y-14829222D01*
X14678277Y-14829222D02*
X14668753Y-14810174D01*
X14668753Y-14810174D02*
X14649706Y-14800650D01*
X14649706Y-14800650D02*
X14621134Y-14800650D01*
X14621134Y-14800650D02*
X14602087Y-14810174D01*
X14602087Y-14810174D02*
X14592563Y-14819698D01*
X14802087Y-14933984D02*
X14783039Y-14924460D01*
X14783039Y-14924460D02*
X14773515Y-14914936D01*
X14773515Y-14914936D02*
X14763991Y-14895888D01*
X14763991Y-14895888D02*
X14763991Y-14838746D01*
X14763991Y-14838746D02*
X14773515Y-14819698D01*
X14773515Y-14819698D02*
X14783039Y-14810174D01*
X14783039Y-14810174D02*
X14802087Y-14800650D01*
X14802087Y-14800650D02*
X14830658Y-14800650D01*
X14830658Y-14800650D02*
X14849706Y-14810174D01*
X14849706Y-14810174D02*
X14859230Y-14819698D01*
X14859230Y-14819698D02*
X14868753Y-14838746D01*
X14868753Y-14838746D02*
X14868753Y-14895888D01*
X14868753Y-14895888D02*
X14859230Y-14914936D01*
X14859230Y-14914936D02*
X14849706Y-14924460D01*
X14849706Y-14924460D02*
X14830658Y-14933984D01*
X14830658Y-14933984D02*
X14802087Y-14933984D01*
X14983039Y-14933984D02*
X14963991Y-14924460D01*
X14963991Y-14924460D02*
X14954468Y-14905412D01*
X14954468Y-14905412D02*
X14954468Y-14733984D01*
X15135420Y-14924460D02*
X15116372Y-14933984D01*
X15116372Y-14933984D02*
X15078277Y-14933984D01*
X15078277Y-14933984D02*
X15059230Y-14924460D01*
X15059230Y-14924460D02*
X15049706Y-14905412D01*
X15049706Y-14905412D02*
X15049706Y-14829222D01*
X15049706Y-14829222D02*
X15059230Y-14810174D01*
X15059230Y-14810174D02*
X15078277Y-14800650D01*
X15078277Y-14800650D02*
X15116372Y-14800650D01*
X15116372Y-14800650D02*
X15135420Y-14810174D01*
X15135420Y-14810174D02*
X15144944Y-14829222D01*
X15144944Y-14829222D02*
X15144944Y-14848269D01*
X15144944Y-14848269D02*
X15049706Y-14867317D01*
X15221134Y-14924460D02*
X15240182Y-14933984D01*
X15240182Y-14933984D02*
X15278277Y-14933984D01*
X15278277Y-14933984D02*
X15297325Y-14924460D01*
X15297325Y-14924460D02*
X15306849Y-14905412D01*
X15306849Y-14905412D02*
X15306849Y-14895888D01*
X15306849Y-14895888D02*
X15297325Y-14876841D01*
X15297325Y-14876841D02*
X15278277Y-14867317D01*
X15278277Y-14867317D02*
X15249706Y-14867317D01*
X15249706Y-14867317D02*
X15230658Y-14857793D01*
X15230658Y-14857793D02*
X15221134Y-14838746D01*
X15221134Y-14838746D02*
X15221134Y-14829222D01*
X15221134Y-14829222D02*
X15230658Y-14810174D01*
X15230658Y-14810174D02*
X15249706Y-14800650D01*
X15249706Y-14800650D02*
X15278277Y-14800650D01*
X15278277Y-14800650D02*
X15297325Y-14810174D01*
X15373515Y-15010174D02*
X15383039Y-15000650D01*
X15383039Y-15000650D02*
X15402087Y-14972079D01*
X15402087Y-14972079D02*
X15411611Y-14953031D01*
X15411611Y-14953031D02*
X15421134Y-14924460D01*
X15421134Y-14924460D02*
X15430658Y-14876841D01*
X15430658Y-14876841D02*
X15430658Y-14838746D01*
X15430658Y-14838746D02*
X15421134Y-14791127D01*
X15421134Y-14791127D02*
X15411611Y-14762555D01*
X15411611Y-14762555D02*
X15402087Y-14743508D01*
X15402087Y-14743508D02*
X15383039Y-14714936D01*
X15383039Y-14714936D02*
X15373515Y-14705412D01*
D12*
X10217500Y-15106500D02*
G75*
G02*
X10137500Y-15106500I-40000J0D01*
G01*
X10137500Y-15106500D02*
G75*
G02*
X10217500Y-15106500I40000J0D01*
G01*
D11*
X10516372Y-14997984D02*
X10535420Y-14997984D01*
X10535420Y-14997984D02*
X10554467Y-15007508D01*
X10554467Y-15007508D02*
X10563991Y-15017031D01*
X10563991Y-15017031D02*
X10573515Y-15036079D01*
X10573515Y-15036079D02*
X10583039Y-15074174D01*
X10583039Y-15074174D02*
X10583039Y-15121793D01*
X10583039Y-15121793D02*
X10573515Y-15159888D01*
X10573515Y-15159888D02*
X10563991Y-15178936D01*
X10563991Y-15178936D02*
X10554467Y-15188460D01*
X10554467Y-15188460D02*
X10535420Y-15197984D01*
X10535420Y-15197984D02*
X10516372Y-15197984D01*
X10516372Y-15197984D02*
X10497324Y-15188460D01*
X10497324Y-15188460D02*
X10487801Y-15178936D01*
X10487801Y-15178936D02*
X10478277Y-15159888D01*
X10478277Y-15159888D02*
X10468753Y-15121793D01*
X10468753Y-15121793D02*
X10468753Y-15074174D01*
X10468753Y-15074174D02*
X10478277Y-15036079D01*
X10478277Y-15036079D02*
X10487801Y-15017031D01*
X10487801Y-15017031D02*
X10497324Y-15007508D01*
X10497324Y-15007508D02*
X10516372Y-14997984D01*
X10668753Y-15178936D02*
X10678277Y-15188460D01*
X10678277Y-15188460D02*
X10668753Y-15197984D01*
X10668753Y-15197984D02*
X10659229Y-15188460D01*
X10659229Y-15188460D02*
X10668753Y-15178936D01*
X10668753Y-15178936D02*
X10668753Y-15197984D01*
X10792563Y-15083698D02*
X10773515Y-15074174D01*
X10773515Y-15074174D02*
X10763991Y-15064650D01*
X10763991Y-15064650D02*
X10754467Y-15045603D01*
X10754467Y-15045603D02*
X10754467Y-15036079D01*
X10754467Y-15036079D02*
X10763991Y-15017031D01*
X10763991Y-15017031D02*
X10773515Y-15007508D01*
X10773515Y-15007508D02*
X10792563Y-14997984D01*
X10792563Y-14997984D02*
X10830658Y-14997984D01*
X10830658Y-14997984D02*
X10849705Y-15007508D01*
X10849705Y-15007508D02*
X10859229Y-15017031D01*
X10859229Y-15017031D02*
X10868753Y-15036079D01*
X10868753Y-15036079D02*
X10868753Y-15045603D01*
X10868753Y-15045603D02*
X10859229Y-15064650D01*
X10859229Y-15064650D02*
X10849705Y-15074174D01*
X10849705Y-15074174D02*
X10830658Y-15083698D01*
X10830658Y-15083698D02*
X10792563Y-15083698D01*
X10792563Y-15083698D02*
X10773515Y-15093222D01*
X10773515Y-15093222D02*
X10763991Y-15102746D01*
X10763991Y-15102746D02*
X10754467Y-15121793D01*
X10754467Y-15121793D02*
X10754467Y-15159888D01*
X10754467Y-15159888D02*
X10763991Y-15178936D01*
X10763991Y-15178936D02*
X10773515Y-15188460D01*
X10773515Y-15188460D02*
X10792563Y-15197984D01*
X10792563Y-15197984D02*
X10830658Y-15197984D01*
X10830658Y-15197984D02*
X10849705Y-15188460D01*
X10849705Y-15188460D02*
X10859229Y-15178936D01*
X10859229Y-15178936D02*
X10868753Y-15159888D01*
X10868753Y-15159888D02*
X10868753Y-15121793D01*
X10868753Y-15121793D02*
X10859229Y-15102746D01*
X10859229Y-15102746D02*
X10849705Y-15093222D01*
X10849705Y-15093222D02*
X10830658Y-15083698D01*
X10992563Y-14997984D02*
X11011610Y-14997984D01*
X11011610Y-14997984D02*
X11030658Y-15007508D01*
X11030658Y-15007508D02*
X11040182Y-15017031D01*
X11040182Y-15017031D02*
X11049705Y-15036079D01*
X11049705Y-15036079D02*
X11059229Y-15074174D01*
X11059229Y-15074174D02*
X11059229Y-15121793D01*
X11059229Y-15121793D02*
X11049705Y-15159888D01*
X11049705Y-15159888D02*
X11040182Y-15178936D01*
X11040182Y-15178936D02*
X11030658Y-15188460D01*
X11030658Y-15188460D02*
X11011610Y-15197984D01*
X11011610Y-15197984D02*
X10992563Y-15197984D01*
X10992563Y-15197984D02*
X10973515Y-15188460D01*
X10973515Y-15188460D02*
X10963991Y-15178936D01*
X10963991Y-15178936D02*
X10954467Y-15159888D01*
X10954467Y-15159888D02*
X10944944Y-15121793D01*
X10944944Y-15121793D02*
X10944944Y-15074174D01*
X10944944Y-15074174D02*
X10954467Y-15036079D01*
X10954467Y-15036079D02*
X10963991Y-15017031D01*
X10963991Y-15017031D02*
X10973515Y-15007508D01*
X10973515Y-15007508D02*
X10992563Y-14997984D01*
X11183039Y-14997984D02*
X11202086Y-14997984D01*
X11202086Y-14997984D02*
X11221134Y-15007508D01*
X11221134Y-15007508D02*
X11230658Y-15017031D01*
X11230658Y-15017031D02*
X11240182Y-15036079D01*
X11240182Y-15036079D02*
X11249705Y-15074174D01*
X11249705Y-15074174D02*
X11249705Y-15121793D01*
X11249705Y-15121793D02*
X11240182Y-15159888D01*
X11240182Y-15159888D02*
X11230658Y-15178936D01*
X11230658Y-15178936D02*
X11221134Y-15188460D01*
X11221134Y-15188460D02*
X11202086Y-15197984D01*
X11202086Y-15197984D02*
X11183039Y-15197984D01*
X11183039Y-15197984D02*
X11163991Y-15188460D01*
X11163991Y-15188460D02*
X11154467Y-15178936D01*
X11154467Y-15178936D02*
X11144944Y-15159888D01*
X11144944Y-15159888D02*
X11135420Y-15121793D01*
X11135420Y-15121793D02*
X11135420Y-15074174D01*
X11135420Y-15074174D02*
X11144944Y-15036079D01*
X11144944Y-15036079D02*
X11154467Y-15017031D01*
X11154467Y-15017031D02*
X11163991Y-15007508D01*
X11163991Y-15007508D02*
X11183039Y-14997984D01*
X11335420Y-15197984D02*
X11335420Y-15064650D01*
X11335420Y-15083698D02*
X11344943Y-15074174D01*
X11344943Y-15074174D02*
X11363991Y-15064650D01*
X11363991Y-15064650D02*
X11392563Y-15064650D01*
X11392563Y-15064650D02*
X11411610Y-15074174D01*
X11411610Y-15074174D02*
X11421134Y-15093222D01*
X11421134Y-15093222D02*
X11421134Y-15197984D01*
X11421134Y-15093222D02*
X11430658Y-15074174D01*
X11430658Y-15074174D02*
X11449705Y-15064650D01*
X11449705Y-15064650D02*
X11478277Y-15064650D01*
X11478277Y-15064650D02*
X11497324Y-15074174D01*
X11497324Y-15074174D02*
X11506848Y-15093222D01*
X11506848Y-15093222D02*
X11506848Y-15197984D01*
X11602086Y-15197984D02*
X11602086Y-15064650D01*
X11602086Y-15083698D02*
X11611610Y-15074174D01*
X11611610Y-15074174D02*
X11630658Y-15064650D01*
X11630658Y-15064650D02*
X11659229Y-15064650D01*
X11659229Y-15064650D02*
X11678277Y-15074174D01*
X11678277Y-15074174D02*
X11687801Y-15093222D01*
X11687801Y-15093222D02*
X11687801Y-15197984D01*
X11687801Y-15093222D02*
X11697324Y-15074174D01*
X11697324Y-15074174D02*
X11716372Y-15064650D01*
X11716372Y-15064650D02*
X11744943Y-15064650D01*
X11744943Y-15064650D02*
X11763991Y-15074174D01*
X11763991Y-15074174D02*
X11773515Y-15093222D01*
X11773515Y-15093222D02*
X11773515Y-15197984D01*
X12163991Y-14988460D02*
X11992563Y-15245603D01*
X12421134Y-14997984D02*
X12440182Y-14997984D01*
X12440182Y-14997984D02*
X12459229Y-15007508D01*
X12459229Y-15007508D02*
X12468753Y-15017031D01*
X12468753Y-15017031D02*
X12478277Y-15036079D01*
X12478277Y-15036079D02*
X12487801Y-15074174D01*
X12487801Y-15074174D02*
X12487801Y-15121793D01*
X12487801Y-15121793D02*
X12478277Y-15159888D01*
X12478277Y-15159888D02*
X12468753Y-15178936D01*
X12468753Y-15178936D02*
X12459229Y-15188460D01*
X12459229Y-15188460D02*
X12440182Y-15197984D01*
X12440182Y-15197984D02*
X12421134Y-15197984D01*
X12421134Y-15197984D02*
X12402086Y-15188460D01*
X12402086Y-15188460D02*
X12392563Y-15178936D01*
X12392563Y-15178936D02*
X12383039Y-15159888D01*
X12383039Y-15159888D02*
X12373515Y-15121793D01*
X12373515Y-15121793D02*
X12373515Y-15074174D01*
X12373515Y-15074174D02*
X12383039Y-15036079D01*
X12383039Y-15036079D02*
X12392563Y-15017031D01*
X12392563Y-15017031D02*
X12402086Y-15007508D01*
X12402086Y-15007508D02*
X12421134Y-14997984D01*
X12573515Y-15178936D02*
X12583039Y-15188460D01*
X12583039Y-15188460D02*
X12573515Y-15197984D01*
X12573515Y-15197984D02*
X12563991Y-15188460D01*
X12563991Y-15188460D02*
X12573515Y-15178936D01*
X12573515Y-15178936D02*
X12573515Y-15197984D01*
X12706848Y-14997984D02*
X12725896Y-14997984D01*
X12725896Y-14997984D02*
X12744944Y-15007508D01*
X12744944Y-15007508D02*
X12754467Y-15017031D01*
X12754467Y-15017031D02*
X12763991Y-15036079D01*
X12763991Y-15036079D02*
X12773515Y-15074174D01*
X12773515Y-15074174D02*
X12773515Y-15121793D01*
X12773515Y-15121793D02*
X12763991Y-15159888D01*
X12763991Y-15159888D02*
X12754467Y-15178936D01*
X12754467Y-15178936D02*
X12744944Y-15188460D01*
X12744944Y-15188460D02*
X12725896Y-15197984D01*
X12725896Y-15197984D02*
X12706848Y-15197984D01*
X12706848Y-15197984D02*
X12687801Y-15188460D01*
X12687801Y-15188460D02*
X12678277Y-15178936D01*
X12678277Y-15178936D02*
X12668753Y-15159888D01*
X12668753Y-15159888D02*
X12659229Y-15121793D01*
X12659229Y-15121793D02*
X12659229Y-15074174D01*
X12659229Y-15074174D02*
X12668753Y-15036079D01*
X12668753Y-15036079D02*
X12678277Y-15017031D01*
X12678277Y-15017031D02*
X12687801Y-15007508D01*
X12687801Y-15007508D02*
X12706848Y-14997984D01*
X12840182Y-14997984D02*
X12963991Y-14997984D01*
X12963991Y-14997984D02*
X12897325Y-15074174D01*
X12897325Y-15074174D02*
X12925896Y-15074174D01*
X12925896Y-15074174D02*
X12944944Y-15083698D01*
X12944944Y-15083698D02*
X12954467Y-15093222D01*
X12954467Y-15093222D02*
X12963991Y-15112269D01*
X12963991Y-15112269D02*
X12963991Y-15159888D01*
X12963991Y-15159888D02*
X12954467Y-15178936D01*
X12954467Y-15178936D02*
X12944944Y-15188460D01*
X12944944Y-15188460D02*
X12925896Y-15197984D01*
X12925896Y-15197984D02*
X12868753Y-15197984D01*
X12868753Y-15197984D02*
X12849706Y-15188460D01*
X12849706Y-15188460D02*
X12840182Y-15178936D01*
X13154467Y-15197984D02*
X13040182Y-15197984D01*
X13097325Y-15197984D02*
X13097325Y-14997984D01*
X13097325Y-14997984D02*
X13078277Y-15026555D01*
X13078277Y-15026555D02*
X13059229Y-15045603D01*
X13059229Y-15045603D02*
X13040182Y-15055127D01*
X13335420Y-14997984D02*
X13240182Y-14997984D01*
X13240182Y-14997984D02*
X13230658Y-15093222D01*
X13230658Y-15093222D02*
X13240182Y-15083698D01*
X13240182Y-15083698D02*
X13259229Y-15074174D01*
X13259229Y-15074174D02*
X13306848Y-15074174D01*
X13306848Y-15074174D02*
X13325896Y-15083698D01*
X13325896Y-15083698D02*
X13335420Y-15093222D01*
X13335420Y-15093222D02*
X13344944Y-15112269D01*
X13344944Y-15112269D02*
X13344944Y-15159888D01*
X13344944Y-15159888D02*
X13335420Y-15178936D01*
X13335420Y-15178936D02*
X13325896Y-15188460D01*
X13325896Y-15188460D02*
X13306848Y-15197984D01*
X13306848Y-15197984D02*
X13259229Y-15197984D01*
X13259229Y-15197984D02*
X13240182Y-15188460D01*
X13240182Y-15188460D02*
X13230658Y-15178936D01*
X13421134Y-14997984D02*
X13421134Y-15036079D01*
X13497325Y-14997984D02*
X13497325Y-15036079D01*
X13792563Y-15274174D02*
X13783039Y-15264650D01*
X13783039Y-15264650D02*
X13763991Y-15236079D01*
X13763991Y-15236079D02*
X13754468Y-15217031D01*
X13754468Y-15217031D02*
X13744944Y-15188460D01*
X13744944Y-15188460D02*
X13735420Y-15140841D01*
X13735420Y-15140841D02*
X13735420Y-15102746D01*
X13735420Y-15102746D02*
X13744944Y-15055127D01*
X13744944Y-15055127D02*
X13754468Y-15026555D01*
X13754468Y-15026555D02*
X13763991Y-15007508D01*
X13763991Y-15007508D02*
X13783039Y-14978936D01*
X13783039Y-14978936D02*
X13792563Y-14969412D01*
X13963991Y-14997984D02*
X13868753Y-14997984D01*
X13868753Y-14997984D02*
X13859229Y-15093222D01*
X13859229Y-15093222D02*
X13868753Y-15083698D01*
X13868753Y-15083698D02*
X13887801Y-15074174D01*
X13887801Y-15074174D02*
X13935420Y-15074174D01*
X13935420Y-15074174D02*
X13954468Y-15083698D01*
X13954468Y-15083698D02*
X13963991Y-15093222D01*
X13963991Y-15093222D02*
X13973515Y-15112269D01*
X13973515Y-15112269D02*
X13973515Y-15159888D01*
X13973515Y-15159888D02*
X13963991Y-15178936D01*
X13963991Y-15178936D02*
X13954468Y-15188460D01*
X13954468Y-15188460D02*
X13935420Y-15197984D01*
X13935420Y-15197984D02*
X13887801Y-15197984D01*
X13887801Y-15197984D02*
X13868753Y-15188460D01*
X13868753Y-15188460D02*
X13859229Y-15178936D01*
X14211610Y-15197984D02*
X14211610Y-14997984D01*
X14297325Y-15197984D02*
X14297325Y-15093222D01*
X14297325Y-15093222D02*
X14287801Y-15074174D01*
X14287801Y-15074174D02*
X14268753Y-15064650D01*
X14268753Y-15064650D02*
X14240182Y-15064650D01*
X14240182Y-15064650D02*
X14221134Y-15074174D01*
X14221134Y-15074174D02*
X14211610Y-15083698D01*
X14421134Y-15197984D02*
X14402087Y-15188460D01*
X14402087Y-15188460D02*
X14392563Y-15178936D01*
X14392563Y-15178936D02*
X14383039Y-15159888D01*
X14383039Y-15159888D02*
X14383039Y-15102746D01*
X14383039Y-15102746D02*
X14392563Y-15083698D01*
X14392563Y-15083698D02*
X14402087Y-15074174D01*
X14402087Y-15074174D02*
X14421134Y-15064650D01*
X14421134Y-15064650D02*
X14449706Y-15064650D01*
X14449706Y-15064650D02*
X14468753Y-15074174D01*
X14468753Y-15074174D02*
X14478277Y-15083698D01*
X14478277Y-15083698D02*
X14487801Y-15102746D01*
X14487801Y-15102746D02*
X14487801Y-15159888D01*
X14487801Y-15159888D02*
X14478277Y-15178936D01*
X14478277Y-15178936D02*
X14468753Y-15188460D01*
X14468753Y-15188460D02*
X14449706Y-15197984D01*
X14449706Y-15197984D02*
X14421134Y-15197984D01*
X14602087Y-15197984D02*
X14583039Y-15188460D01*
X14583039Y-15188460D02*
X14573515Y-15169412D01*
X14573515Y-15169412D02*
X14573515Y-14997984D01*
X14754468Y-15188460D02*
X14735420Y-15197984D01*
X14735420Y-15197984D02*
X14697325Y-15197984D01*
X14697325Y-15197984D02*
X14678277Y-15188460D01*
X14678277Y-15188460D02*
X14668753Y-15169412D01*
X14668753Y-15169412D02*
X14668753Y-15093222D01*
X14668753Y-15093222D02*
X14678277Y-15074174D01*
X14678277Y-15074174D02*
X14697325Y-15064650D01*
X14697325Y-15064650D02*
X14735420Y-15064650D01*
X14735420Y-15064650D02*
X14754468Y-15074174D01*
X14754468Y-15074174D02*
X14763991Y-15093222D01*
X14763991Y-15093222D02*
X14763991Y-15112269D01*
X14763991Y-15112269D02*
X14668753Y-15131317D01*
X14840182Y-15188460D02*
X14859230Y-15197984D01*
X14859230Y-15197984D02*
X14897325Y-15197984D01*
X14897325Y-15197984D02*
X14916372Y-15188460D01*
X14916372Y-15188460D02*
X14925896Y-15169412D01*
X14925896Y-15169412D02*
X14925896Y-15159888D01*
X14925896Y-15159888D02*
X14916372Y-15140841D01*
X14916372Y-15140841D02*
X14897325Y-15131317D01*
X14897325Y-15131317D02*
X14868753Y-15131317D01*
X14868753Y-15131317D02*
X14849706Y-15121793D01*
X14849706Y-15121793D02*
X14840182Y-15102746D01*
X14840182Y-15102746D02*
X14840182Y-15093222D01*
X14840182Y-15093222D02*
X14849706Y-15074174D01*
X14849706Y-15074174D02*
X14868753Y-15064650D01*
X14868753Y-15064650D02*
X14897325Y-15064650D01*
X14897325Y-15064650D02*
X14916372Y-15074174D01*
X14992563Y-15274174D02*
X15002087Y-15264650D01*
X15002087Y-15264650D02*
X15021134Y-15236079D01*
X15021134Y-15236079D02*
X15030658Y-15217031D01*
X15030658Y-15217031D02*
X15040182Y-15188460D01*
X15040182Y-15188460D02*
X15049706Y-15140841D01*
X15049706Y-15140841D02*
X15049706Y-15102746D01*
X15049706Y-15102746D02*
X15040182Y-15055127D01*
X15040182Y-15055127D02*
X15030658Y-15026555D01*
X15030658Y-15026555D02*
X15021134Y-15007508D01*
X15021134Y-15007508D02*
X15002087Y-14978936D01*
X15002087Y-14978936D02*
X14992563Y-14969412D01*
D12*
X10167500Y-15320500D02*
X10167500Y-15420500D01*
X10117500Y-15370500D02*
X10217500Y-15370500D01*
D11*
X10583039Y-15461984D02*
X10468753Y-15461984D01*
X10525896Y-15461984D02*
X10525896Y-15261984D01*
X10525896Y-15261984D02*
X10506848Y-15290555D01*
X10506848Y-15290555D02*
X10487801Y-15309603D01*
X10487801Y-15309603D02*
X10468753Y-15319127D01*
X10668753Y-15442936D02*
X10678277Y-15452460D01*
X10678277Y-15452460D02*
X10668753Y-15461984D01*
X10668753Y-15461984D02*
X10659229Y-15452460D01*
X10659229Y-15452460D02*
X10668753Y-15442936D01*
X10668753Y-15442936D02*
X10668753Y-15461984D01*
X10802086Y-15261984D02*
X10821134Y-15261984D01*
X10821134Y-15261984D02*
X10840182Y-15271508D01*
X10840182Y-15271508D02*
X10849705Y-15281031D01*
X10849705Y-15281031D02*
X10859229Y-15300079D01*
X10859229Y-15300079D02*
X10868753Y-15338174D01*
X10868753Y-15338174D02*
X10868753Y-15385793D01*
X10868753Y-15385793D02*
X10859229Y-15423888D01*
X10859229Y-15423888D02*
X10849705Y-15442936D01*
X10849705Y-15442936D02*
X10840182Y-15452460D01*
X10840182Y-15452460D02*
X10821134Y-15461984D01*
X10821134Y-15461984D02*
X10802086Y-15461984D01*
X10802086Y-15461984D02*
X10783039Y-15452460D01*
X10783039Y-15452460D02*
X10773515Y-15442936D01*
X10773515Y-15442936D02*
X10763991Y-15423888D01*
X10763991Y-15423888D02*
X10754467Y-15385793D01*
X10754467Y-15385793D02*
X10754467Y-15338174D01*
X10754467Y-15338174D02*
X10763991Y-15300079D01*
X10763991Y-15300079D02*
X10773515Y-15281031D01*
X10773515Y-15281031D02*
X10783039Y-15271508D01*
X10783039Y-15271508D02*
X10802086Y-15261984D01*
X10992563Y-15261984D02*
X11011610Y-15261984D01*
X11011610Y-15261984D02*
X11030658Y-15271508D01*
X11030658Y-15271508D02*
X11040182Y-15281031D01*
X11040182Y-15281031D02*
X11049705Y-15300079D01*
X11049705Y-15300079D02*
X11059229Y-15338174D01*
X11059229Y-15338174D02*
X11059229Y-15385793D01*
X11059229Y-15385793D02*
X11049705Y-15423888D01*
X11049705Y-15423888D02*
X11040182Y-15442936D01*
X11040182Y-15442936D02*
X11030658Y-15452460D01*
X11030658Y-15452460D02*
X11011610Y-15461984D01*
X11011610Y-15461984D02*
X10992563Y-15461984D01*
X10992563Y-15461984D02*
X10973515Y-15452460D01*
X10973515Y-15452460D02*
X10963991Y-15442936D01*
X10963991Y-15442936D02*
X10954467Y-15423888D01*
X10954467Y-15423888D02*
X10944944Y-15385793D01*
X10944944Y-15385793D02*
X10944944Y-15338174D01*
X10944944Y-15338174D02*
X10954467Y-15300079D01*
X10954467Y-15300079D02*
X10963991Y-15281031D01*
X10963991Y-15281031D02*
X10973515Y-15271508D01*
X10973515Y-15271508D02*
X10992563Y-15261984D01*
X11183039Y-15261984D02*
X11202086Y-15261984D01*
X11202086Y-15261984D02*
X11221134Y-15271508D01*
X11221134Y-15271508D02*
X11230658Y-15281031D01*
X11230658Y-15281031D02*
X11240182Y-15300079D01*
X11240182Y-15300079D02*
X11249705Y-15338174D01*
X11249705Y-15338174D02*
X11249705Y-15385793D01*
X11249705Y-15385793D02*
X11240182Y-15423888D01*
X11240182Y-15423888D02*
X11230658Y-15442936D01*
X11230658Y-15442936D02*
X11221134Y-15452460D01*
X11221134Y-15452460D02*
X11202086Y-15461984D01*
X11202086Y-15461984D02*
X11183039Y-15461984D01*
X11183039Y-15461984D02*
X11163991Y-15452460D01*
X11163991Y-15452460D02*
X11154467Y-15442936D01*
X11154467Y-15442936D02*
X11144944Y-15423888D01*
X11144944Y-15423888D02*
X11135420Y-15385793D01*
X11135420Y-15385793D02*
X11135420Y-15338174D01*
X11135420Y-15338174D02*
X11144944Y-15300079D01*
X11144944Y-15300079D02*
X11154467Y-15281031D01*
X11154467Y-15281031D02*
X11163991Y-15271508D01*
X11163991Y-15271508D02*
X11183039Y-15261984D01*
X11335420Y-15461984D02*
X11335420Y-15328650D01*
X11335420Y-15347698D02*
X11344943Y-15338174D01*
X11344943Y-15338174D02*
X11363991Y-15328650D01*
X11363991Y-15328650D02*
X11392563Y-15328650D01*
X11392563Y-15328650D02*
X11411610Y-15338174D01*
X11411610Y-15338174D02*
X11421134Y-15357222D01*
X11421134Y-15357222D02*
X11421134Y-15461984D01*
X11421134Y-15357222D02*
X11430658Y-15338174D01*
X11430658Y-15338174D02*
X11449705Y-15328650D01*
X11449705Y-15328650D02*
X11478277Y-15328650D01*
X11478277Y-15328650D02*
X11497324Y-15338174D01*
X11497324Y-15338174D02*
X11506848Y-15357222D01*
X11506848Y-15357222D02*
X11506848Y-15461984D01*
X11602086Y-15461984D02*
X11602086Y-15328650D01*
X11602086Y-15347698D02*
X11611610Y-15338174D01*
X11611610Y-15338174D02*
X11630658Y-15328650D01*
X11630658Y-15328650D02*
X11659229Y-15328650D01*
X11659229Y-15328650D02*
X11678277Y-15338174D01*
X11678277Y-15338174D02*
X11687801Y-15357222D01*
X11687801Y-15357222D02*
X11687801Y-15461984D01*
X11687801Y-15357222D02*
X11697324Y-15338174D01*
X11697324Y-15338174D02*
X11716372Y-15328650D01*
X11716372Y-15328650D02*
X11744943Y-15328650D01*
X11744943Y-15328650D02*
X11763991Y-15338174D01*
X11763991Y-15338174D02*
X11773515Y-15357222D01*
X11773515Y-15357222D02*
X11773515Y-15461984D01*
X12163991Y-15252460D02*
X11992563Y-15509603D01*
X12421134Y-15261984D02*
X12440182Y-15261984D01*
X12440182Y-15261984D02*
X12459229Y-15271508D01*
X12459229Y-15271508D02*
X12468753Y-15281031D01*
X12468753Y-15281031D02*
X12478277Y-15300079D01*
X12478277Y-15300079D02*
X12487801Y-15338174D01*
X12487801Y-15338174D02*
X12487801Y-15385793D01*
X12487801Y-15385793D02*
X12478277Y-15423888D01*
X12478277Y-15423888D02*
X12468753Y-15442936D01*
X12468753Y-15442936D02*
X12459229Y-15452460D01*
X12459229Y-15452460D02*
X12440182Y-15461984D01*
X12440182Y-15461984D02*
X12421134Y-15461984D01*
X12421134Y-15461984D02*
X12402086Y-15452460D01*
X12402086Y-15452460D02*
X12392563Y-15442936D01*
X12392563Y-15442936D02*
X12383039Y-15423888D01*
X12383039Y-15423888D02*
X12373515Y-15385793D01*
X12373515Y-15385793D02*
X12373515Y-15338174D01*
X12373515Y-15338174D02*
X12383039Y-15300079D01*
X12383039Y-15300079D02*
X12392563Y-15281031D01*
X12392563Y-15281031D02*
X12402086Y-15271508D01*
X12402086Y-15271508D02*
X12421134Y-15261984D01*
X12573515Y-15442936D02*
X12583039Y-15452460D01*
X12583039Y-15452460D02*
X12573515Y-15461984D01*
X12573515Y-15461984D02*
X12563991Y-15452460D01*
X12563991Y-15452460D02*
X12573515Y-15442936D01*
X12573515Y-15442936D02*
X12573515Y-15461984D01*
X12706848Y-15261984D02*
X12725896Y-15261984D01*
X12725896Y-15261984D02*
X12744944Y-15271508D01*
X12744944Y-15271508D02*
X12754467Y-15281031D01*
X12754467Y-15281031D02*
X12763991Y-15300079D01*
X12763991Y-15300079D02*
X12773515Y-15338174D01*
X12773515Y-15338174D02*
X12773515Y-15385793D01*
X12773515Y-15385793D02*
X12763991Y-15423888D01*
X12763991Y-15423888D02*
X12754467Y-15442936D01*
X12754467Y-15442936D02*
X12744944Y-15452460D01*
X12744944Y-15452460D02*
X12725896Y-15461984D01*
X12725896Y-15461984D02*
X12706848Y-15461984D01*
X12706848Y-15461984D02*
X12687801Y-15452460D01*
X12687801Y-15452460D02*
X12678277Y-15442936D01*
X12678277Y-15442936D02*
X12668753Y-15423888D01*
X12668753Y-15423888D02*
X12659229Y-15385793D01*
X12659229Y-15385793D02*
X12659229Y-15338174D01*
X12659229Y-15338174D02*
X12668753Y-15300079D01*
X12668753Y-15300079D02*
X12678277Y-15281031D01*
X12678277Y-15281031D02*
X12687801Y-15271508D01*
X12687801Y-15271508D02*
X12706848Y-15261984D01*
X12840182Y-15261984D02*
X12963991Y-15261984D01*
X12963991Y-15261984D02*
X12897325Y-15338174D01*
X12897325Y-15338174D02*
X12925896Y-15338174D01*
X12925896Y-15338174D02*
X12944944Y-15347698D01*
X12944944Y-15347698D02*
X12954467Y-15357222D01*
X12954467Y-15357222D02*
X12963991Y-15376269D01*
X12963991Y-15376269D02*
X12963991Y-15423888D01*
X12963991Y-15423888D02*
X12954467Y-15442936D01*
X12954467Y-15442936D02*
X12944944Y-15452460D01*
X12944944Y-15452460D02*
X12925896Y-15461984D01*
X12925896Y-15461984D02*
X12868753Y-15461984D01*
X12868753Y-15461984D02*
X12849706Y-15452460D01*
X12849706Y-15452460D02*
X12840182Y-15442936D01*
X13059229Y-15461984D02*
X13097325Y-15461984D01*
X13097325Y-15461984D02*
X13116372Y-15452460D01*
X13116372Y-15452460D02*
X13125896Y-15442936D01*
X13125896Y-15442936D02*
X13144944Y-15414365D01*
X13144944Y-15414365D02*
X13154467Y-15376269D01*
X13154467Y-15376269D02*
X13154467Y-15300079D01*
X13154467Y-15300079D02*
X13144944Y-15281031D01*
X13144944Y-15281031D02*
X13135420Y-15271508D01*
X13135420Y-15271508D02*
X13116372Y-15261984D01*
X13116372Y-15261984D02*
X13078277Y-15261984D01*
X13078277Y-15261984D02*
X13059229Y-15271508D01*
X13059229Y-15271508D02*
X13049706Y-15281031D01*
X13049706Y-15281031D02*
X13040182Y-15300079D01*
X13040182Y-15300079D02*
X13040182Y-15347698D01*
X13040182Y-15347698D02*
X13049706Y-15366746D01*
X13049706Y-15366746D02*
X13059229Y-15376269D01*
X13059229Y-15376269D02*
X13078277Y-15385793D01*
X13078277Y-15385793D02*
X13116372Y-15385793D01*
X13116372Y-15385793D02*
X13135420Y-15376269D01*
X13135420Y-15376269D02*
X13144944Y-15366746D01*
X13144944Y-15366746D02*
X13154467Y-15347698D01*
X13325896Y-15328650D02*
X13325896Y-15461984D01*
X13278277Y-15252460D02*
X13230658Y-15395317D01*
X13230658Y-15395317D02*
X13354467Y-15395317D01*
X13421134Y-15261984D02*
X13421134Y-15300079D01*
X13497325Y-15261984D02*
X13497325Y-15300079D01*
X13792563Y-15538174D02*
X13783039Y-15528650D01*
X13783039Y-15528650D02*
X13763991Y-15500079D01*
X13763991Y-15500079D02*
X13754468Y-15481031D01*
X13754468Y-15481031D02*
X13744944Y-15452460D01*
X13744944Y-15452460D02*
X13735420Y-15404841D01*
X13735420Y-15404841D02*
X13735420Y-15366746D01*
X13735420Y-15366746D02*
X13744944Y-15319127D01*
X13744944Y-15319127D02*
X13754468Y-15290555D01*
X13754468Y-15290555D02*
X13763991Y-15271508D01*
X13763991Y-15271508D02*
X13783039Y-15242936D01*
X13783039Y-15242936D02*
X13792563Y-15233412D01*
X13849706Y-15261984D02*
X13973515Y-15261984D01*
X13973515Y-15261984D02*
X13906848Y-15338174D01*
X13906848Y-15338174D02*
X13935420Y-15338174D01*
X13935420Y-15338174D02*
X13954468Y-15347698D01*
X13954468Y-15347698D02*
X13963991Y-15357222D01*
X13963991Y-15357222D02*
X13973515Y-15376269D01*
X13973515Y-15376269D02*
X13973515Y-15423888D01*
X13973515Y-15423888D02*
X13963991Y-15442936D01*
X13963991Y-15442936D02*
X13954468Y-15452460D01*
X13954468Y-15452460D02*
X13935420Y-15461984D01*
X13935420Y-15461984D02*
X13878277Y-15461984D01*
X13878277Y-15461984D02*
X13859229Y-15452460D01*
X13859229Y-15452460D02*
X13849706Y-15442936D01*
X14097325Y-15261984D02*
X14116372Y-15261984D01*
X14116372Y-15261984D02*
X14135420Y-15271508D01*
X14135420Y-15271508D02*
X14144944Y-15281031D01*
X14144944Y-15281031D02*
X14154468Y-15300079D01*
X14154468Y-15300079D02*
X14163991Y-15338174D01*
X14163991Y-15338174D02*
X14163991Y-15385793D01*
X14163991Y-15385793D02*
X14154468Y-15423888D01*
X14154468Y-15423888D02*
X14144944Y-15442936D01*
X14144944Y-15442936D02*
X14135420Y-15452460D01*
X14135420Y-15452460D02*
X14116372Y-15461984D01*
X14116372Y-15461984D02*
X14097325Y-15461984D01*
X14097325Y-15461984D02*
X14078277Y-15452460D01*
X14078277Y-15452460D02*
X14068753Y-15442936D01*
X14068753Y-15442936D02*
X14059229Y-15423888D01*
X14059229Y-15423888D02*
X14049706Y-15385793D01*
X14049706Y-15385793D02*
X14049706Y-15338174D01*
X14049706Y-15338174D02*
X14059229Y-15300079D01*
X14059229Y-15300079D02*
X14068753Y-15281031D01*
X14068753Y-15281031D02*
X14078277Y-15271508D01*
X14078277Y-15271508D02*
X14097325Y-15261984D01*
X14402087Y-15461984D02*
X14402087Y-15261984D01*
X14487801Y-15461984D02*
X14487801Y-15357222D01*
X14487801Y-15357222D02*
X14478277Y-15338174D01*
X14478277Y-15338174D02*
X14459230Y-15328650D01*
X14459230Y-15328650D02*
X14430658Y-15328650D01*
X14430658Y-15328650D02*
X14411610Y-15338174D01*
X14411610Y-15338174D02*
X14402087Y-15347698D01*
X14611610Y-15461984D02*
X14592563Y-15452460D01*
X14592563Y-15452460D02*
X14583039Y-15442936D01*
X14583039Y-15442936D02*
X14573515Y-15423888D01*
X14573515Y-15423888D02*
X14573515Y-15366746D01*
X14573515Y-15366746D02*
X14583039Y-15347698D01*
X14583039Y-15347698D02*
X14592563Y-15338174D01*
X14592563Y-15338174D02*
X14611610Y-15328650D01*
X14611610Y-15328650D02*
X14640182Y-15328650D01*
X14640182Y-15328650D02*
X14659230Y-15338174D01*
X14659230Y-15338174D02*
X14668753Y-15347698D01*
X14668753Y-15347698D02*
X14678277Y-15366746D01*
X14678277Y-15366746D02*
X14678277Y-15423888D01*
X14678277Y-15423888D02*
X14668753Y-15442936D01*
X14668753Y-15442936D02*
X14659230Y-15452460D01*
X14659230Y-15452460D02*
X14640182Y-15461984D01*
X14640182Y-15461984D02*
X14611610Y-15461984D01*
X14792563Y-15461984D02*
X14773515Y-15452460D01*
X14773515Y-15452460D02*
X14763991Y-15433412D01*
X14763991Y-15433412D02*
X14763991Y-15261984D01*
X14944944Y-15452460D02*
X14925896Y-15461984D01*
X14925896Y-15461984D02*
X14887801Y-15461984D01*
X14887801Y-15461984D02*
X14868753Y-15452460D01*
X14868753Y-15452460D02*
X14859230Y-15433412D01*
X14859230Y-15433412D02*
X14859230Y-15357222D01*
X14859230Y-15357222D02*
X14868753Y-15338174D01*
X14868753Y-15338174D02*
X14887801Y-15328650D01*
X14887801Y-15328650D02*
X14925896Y-15328650D01*
X14925896Y-15328650D02*
X14944944Y-15338174D01*
X14944944Y-15338174D02*
X14954468Y-15357222D01*
X14954468Y-15357222D02*
X14954468Y-15376269D01*
X14954468Y-15376269D02*
X14859230Y-15395317D01*
X15030658Y-15452460D02*
X15049706Y-15461984D01*
X15049706Y-15461984D02*
X15087801Y-15461984D01*
X15087801Y-15461984D02*
X15106849Y-15452460D01*
X15106849Y-15452460D02*
X15116372Y-15433412D01*
X15116372Y-15433412D02*
X15116372Y-15423888D01*
X15116372Y-15423888D02*
X15106849Y-15404841D01*
X15106849Y-15404841D02*
X15087801Y-15395317D01*
X15087801Y-15395317D02*
X15059230Y-15395317D01*
X15059230Y-15395317D02*
X15040182Y-15385793D01*
X15040182Y-15385793D02*
X15030658Y-15366746D01*
X15030658Y-15366746D02*
X15030658Y-15357222D01*
X15030658Y-15357222D02*
X15040182Y-15338174D01*
X15040182Y-15338174D02*
X15059230Y-15328650D01*
X15059230Y-15328650D02*
X15087801Y-15328650D01*
X15087801Y-15328650D02*
X15106849Y-15338174D01*
X15354468Y-15385793D02*
X15506849Y-15385793D01*
X15430658Y-15461984D02*
X15430658Y-15309603D01*
X15735420Y-15261984D02*
X15859230Y-15261984D01*
X15859230Y-15261984D02*
X15792563Y-15338174D01*
X15792563Y-15338174D02*
X15821134Y-15338174D01*
X15821134Y-15338174D02*
X15840182Y-15347698D01*
X15840182Y-15347698D02*
X15849706Y-15357222D01*
X15849706Y-15357222D02*
X15859230Y-15376269D01*
X15859230Y-15376269D02*
X15859230Y-15423888D01*
X15859230Y-15423888D02*
X15849706Y-15442936D01*
X15849706Y-15442936D02*
X15840182Y-15452460D01*
X15840182Y-15452460D02*
X15821134Y-15461984D01*
X15821134Y-15461984D02*
X15763992Y-15461984D01*
X15763992Y-15461984D02*
X15744944Y-15452460D01*
X15744944Y-15452460D02*
X15735420Y-15442936D01*
X16087801Y-15452460D02*
X16106849Y-15461984D01*
X16106849Y-15461984D02*
X16144944Y-15461984D01*
X16144944Y-15461984D02*
X16163992Y-15452460D01*
X16163992Y-15452460D02*
X16173515Y-15433412D01*
X16173515Y-15433412D02*
X16173515Y-15423888D01*
X16173515Y-15423888D02*
X16163992Y-15404841D01*
X16163992Y-15404841D02*
X16144944Y-15395317D01*
X16144944Y-15395317D02*
X16116373Y-15395317D01*
X16116373Y-15395317D02*
X16097325Y-15385793D01*
X16097325Y-15385793D02*
X16087801Y-15366746D01*
X16087801Y-15366746D02*
X16087801Y-15357222D01*
X16087801Y-15357222D02*
X16097325Y-15338174D01*
X16097325Y-15338174D02*
X16116373Y-15328650D01*
X16116373Y-15328650D02*
X16144944Y-15328650D01*
X16144944Y-15328650D02*
X16163992Y-15338174D01*
X16287801Y-15461984D02*
X16268754Y-15452460D01*
X16268754Y-15452460D02*
X16259230Y-15433412D01*
X16259230Y-15433412D02*
X16259230Y-15261984D01*
X16392563Y-15461984D02*
X16373515Y-15452460D01*
X16373515Y-15452460D02*
X16363992Y-15442936D01*
X16363992Y-15442936D02*
X16354468Y-15423888D01*
X16354468Y-15423888D02*
X16354468Y-15366746D01*
X16354468Y-15366746D02*
X16363992Y-15347698D01*
X16363992Y-15347698D02*
X16373515Y-15338174D01*
X16373515Y-15338174D02*
X16392563Y-15328650D01*
X16392563Y-15328650D02*
X16421135Y-15328650D01*
X16421135Y-15328650D02*
X16440182Y-15338174D01*
X16440182Y-15338174D02*
X16449706Y-15347698D01*
X16449706Y-15347698D02*
X16459230Y-15366746D01*
X16459230Y-15366746D02*
X16459230Y-15423888D01*
X16459230Y-15423888D02*
X16449706Y-15442936D01*
X16449706Y-15442936D02*
X16440182Y-15452460D01*
X16440182Y-15452460D02*
X16421135Y-15461984D01*
X16421135Y-15461984D02*
X16392563Y-15461984D01*
X16516373Y-15328650D02*
X16592563Y-15328650D01*
X16544944Y-15261984D02*
X16544944Y-15433412D01*
X16544944Y-15433412D02*
X16554468Y-15452460D01*
X16554468Y-15452460D02*
X16573515Y-15461984D01*
X16573515Y-15461984D02*
X16592563Y-15461984D01*
X16649706Y-15452460D02*
X16668754Y-15461984D01*
X16668754Y-15461984D02*
X16706849Y-15461984D01*
X16706849Y-15461984D02*
X16725896Y-15452460D01*
X16725896Y-15452460D02*
X16735420Y-15433412D01*
X16735420Y-15433412D02*
X16735420Y-15423888D01*
X16735420Y-15423888D02*
X16725896Y-15404841D01*
X16725896Y-15404841D02*
X16706849Y-15395317D01*
X16706849Y-15395317D02*
X16678277Y-15395317D01*
X16678277Y-15395317D02*
X16659230Y-15385793D01*
X16659230Y-15385793D02*
X16649706Y-15366746D01*
X16649706Y-15366746D02*
X16649706Y-15357222D01*
X16649706Y-15357222D02*
X16659230Y-15338174D01*
X16659230Y-15338174D02*
X16678277Y-15328650D01*
X16678277Y-15328650D02*
X16706849Y-15328650D01*
X16706849Y-15328650D02*
X16725896Y-15338174D01*
X16802087Y-15538174D02*
X16811611Y-15528650D01*
X16811611Y-15528650D02*
X16830658Y-15500079D01*
X16830658Y-15500079D02*
X16840182Y-15481031D01*
X16840182Y-15481031D02*
X16849706Y-15452460D01*
X16849706Y-15452460D02*
X16859230Y-15404841D01*
X16859230Y-15404841D02*
X16859230Y-15366746D01*
X16859230Y-15366746D02*
X16849706Y-15319127D01*
X16849706Y-15319127D02*
X16840182Y-15290555D01*
X16840182Y-15290555D02*
X16830658Y-15271508D01*
X16830658Y-15271508D02*
X16811611Y-15242936D01*
X16811611Y-15242936D02*
X16802087Y-15233412D01*
D13*
X10202563Y-15670563D02*
X10202563Y-15598437D01*
X10130437Y-15598437D01*
X10130437Y-15670563D01*
X10202563Y-15670563D01*
D11*
X10583039Y-15725984D02*
X10468753Y-15725984D01*
X10525896Y-15725984D02*
X10525896Y-15525984D01*
X10525896Y-15525984D02*
X10506848Y-15554555D01*
X10506848Y-15554555D02*
X10487801Y-15573603D01*
X10487801Y-15573603D02*
X10468753Y-15583127D01*
X10668753Y-15706936D02*
X10678277Y-15716460D01*
X10678277Y-15716460D02*
X10668753Y-15725984D01*
X10668753Y-15725984D02*
X10659229Y-15716460D01*
X10659229Y-15716460D02*
X10668753Y-15706936D01*
X10668753Y-15706936D02*
X10668753Y-15725984D01*
X10802086Y-15525984D02*
X10821134Y-15525984D01*
X10821134Y-15525984D02*
X10840182Y-15535508D01*
X10840182Y-15535508D02*
X10849705Y-15545031D01*
X10849705Y-15545031D02*
X10859229Y-15564079D01*
X10859229Y-15564079D02*
X10868753Y-15602174D01*
X10868753Y-15602174D02*
X10868753Y-15649793D01*
X10868753Y-15649793D02*
X10859229Y-15687888D01*
X10859229Y-15687888D02*
X10849705Y-15706936D01*
X10849705Y-15706936D02*
X10840182Y-15716460D01*
X10840182Y-15716460D02*
X10821134Y-15725984D01*
X10821134Y-15725984D02*
X10802086Y-15725984D01*
X10802086Y-15725984D02*
X10783039Y-15716460D01*
X10783039Y-15716460D02*
X10773515Y-15706936D01*
X10773515Y-15706936D02*
X10763991Y-15687888D01*
X10763991Y-15687888D02*
X10754467Y-15649793D01*
X10754467Y-15649793D02*
X10754467Y-15602174D01*
X10754467Y-15602174D02*
X10763991Y-15564079D01*
X10763991Y-15564079D02*
X10773515Y-15545031D01*
X10773515Y-15545031D02*
X10783039Y-15535508D01*
X10783039Y-15535508D02*
X10802086Y-15525984D01*
X10944944Y-15545031D02*
X10954467Y-15535508D01*
X10954467Y-15535508D02*
X10973515Y-15525984D01*
X10973515Y-15525984D02*
X11021134Y-15525984D01*
X11021134Y-15525984D02*
X11040182Y-15535508D01*
X11040182Y-15535508D02*
X11049705Y-15545031D01*
X11049705Y-15545031D02*
X11059229Y-15564079D01*
X11059229Y-15564079D02*
X11059229Y-15583127D01*
X11059229Y-15583127D02*
X11049705Y-15611698D01*
X11049705Y-15611698D02*
X10935420Y-15725984D01*
X10935420Y-15725984D02*
X11059229Y-15725984D01*
X11183039Y-15525984D02*
X11202086Y-15525984D01*
X11202086Y-15525984D02*
X11221134Y-15535508D01*
X11221134Y-15535508D02*
X11230658Y-15545031D01*
X11230658Y-15545031D02*
X11240182Y-15564079D01*
X11240182Y-15564079D02*
X11249705Y-15602174D01*
X11249705Y-15602174D02*
X11249705Y-15649793D01*
X11249705Y-15649793D02*
X11240182Y-15687888D01*
X11240182Y-15687888D02*
X11230658Y-15706936D01*
X11230658Y-15706936D02*
X11221134Y-15716460D01*
X11221134Y-15716460D02*
X11202086Y-15725984D01*
X11202086Y-15725984D02*
X11183039Y-15725984D01*
X11183039Y-15725984D02*
X11163991Y-15716460D01*
X11163991Y-15716460D02*
X11154467Y-15706936D01*
X11154467Y-15706936D02*
X11144944Y-15687888D01*
X11144944Y-15687888D02*
X11135420Y-15649793D01*
X11135420Y-15649793D02*
X11135420Y-15602174D01*
X11135420Y-15602174D02*
X11144944Y-15564079D01*
X11144944Y-15564079D02*
X11154467Y-15545031D01*
X11154467Y-15545031D02*
X11163991Y-15535508D01*
X11163991Y-15535508D02*
X11183039Y-15525984D01*
X11335420Y-15725984D02*
X11335420Y-15592650D01*
X11335420Y-15611698D02*
X11344943Y-15602174D01*
X11344943Y-15602174D02*
X11363991Y-15592650D01*
X11363991Y-15592650D02*
X11392563Y-15592650D01*
X11392563Y-15592650D02*
X11411610Y-15602174D01*
X11411610Y-15602174D02*
X11421134Y-15621222D01*
X11421134Y-15621222D02*
X11421134Y-15725984D01*
X11421134Y-15621222D02*
X11430658Y-15602174D01*
X11430658Y-15602174D02*
X11449705Y-15592650D01*
X11449705Y-15592650D02*
X11478277Y-15592650D01*
X11478277Y-15592650D02*
X11497324Y-15602174D01*
X11497324Y-15602174D02*
X11506848Y-15621222D01*
X11506848Y-15621222D02*
X11506848Y-15725984D01*
X11602086Y-15725984D02*
X11602086Y-15592650D01*
X11602086Y-15611698D02*
X11611610Y-15602174D01*
X11611610Y-15602174D02*
X11630658Y-15592650D01*
X11630658Y-15592650D02*
X11659229Y-15592650D01*
X11659229Y-15592650D02*
X11678277Y-15602174D01*
X11678277Y-15602174D02*
X11687801Y-15621222D01*
X11687801Y-15621222D02*
X11687801Y-15725984D01*
X11687801Y-15621222D02*
X11697324Y-15602174D01*
X11697324Y-15602174D02*
X11716372Y-15592650D01*
X11716372Y-15592650D02*
X11744943Y-15592650D01*
X11744943Y-15592650D02*
X11763991Y-15602174D01*
X11763991Y-15602174D02*
X11773515Y-15621222D01*
X11773515Y-15621222D02*
X11773515Y-15725984D01*
X12163991Y-15516460D02*
X11992563Y-15773603D01*
X12421134Y-15525984D02*
X12440182Y-15525984D01*
X12440182Y-15525984D02*
X12459229Y-15535508D01*
X12459229Y-15535508D02*
X12468753Y-15545031D01*
X12468753Y-15545031D02*
X12478277Y-15564079D01*
X12478277Y-15564079D02*
X12487801Y-15602174D01*
X12487801Y-15602174D02*
X12487801Y-15649793D01*
X12487801Y-15649793D02*
X12478277Y-15687888D01*
X12478277Y-15687888D02*
X12468753Y-15706936D01*
X12468753Y-15706936D02*
X12459229Y-15716460D01*
X12459229Y-15716460D02*
X12440182Y-15725984D01*
X12440182Y-15725984D02*
X12421134Y-15725984D01*
X12421134Y-15725984D02*
X12402086Y-15716460D01*
X12402086Y-15716460D02*
X12392563Y-15706936D01*
X12392563Y-15706936D02*
X12383039Y-15687888D01*
X12383039Y-15687888D02*
X12373515Y-15649793D01*
X12373515Y-15649793D02*
X12373515Y-15602174D01*
X12373515Y-15602174D02*
X12383039Y-15564079D01*
X12383039Y-15564079D02*
X12392563Y-15545031D01*
X12392563Y-15545031D02*
X12402086Y-15535508D01*
X12402086Y-15535508D02*
X12421134Y-15525984D01*
X12573515Y-15706936D02*
X12583039Y-15716460D01*
X12583039Y-15716460D02*
X12573515Y-15725984D01*
X12573515Y-15725984D02*
X12563991Y-15716460D01*
X12563991Y-15716460D02*
X12573515Y-15706936D01*
X12573515Y-15706936D02*
X12573515Y-15725984D01*
X12706848Y-15525984D02*
X12725896Y-15525984D01*
X12725896Y-15525984D02*
X12744944Y-15535508D01*
X12744944Y-15535508D02*
X12754467Y-15545031D01*
X12754467Y-15545031D02*
X12763991Y-15564079D01*
X12763991Y-15564079D02*
X12773515Y-15602174D01*
X12773515Y-15602174D02*
X12773515Y-15649793D01*
X12773515Y-15649793D02*
X12763991Y-15687888D01*
X12763991Y-15687888D02*
X12754467Y-15706936D01*
X12754467Y-15706936D02*
X12744944Y-15716460D01*
X12744944Y-15716460D02*
X12725896Y-15725984D01*
X12725896Y-15725984D02*
X12706848Y-15725984D01*
X12706848Y-15725984D02*
X12687801Y-15716460D01*
X12687801Y-15716460D02*
X12678277Y-15706936D01*
X12678277Y-15706936D02*
X12668753Y-15687888D01*
X12668753Y-15687888D02*
X12659229Y-15649793D01*
X12659229Y-15649793D02*
X12659229Y-15602174D01*
X12659229Y-15602174D02*
X12668753Y-15564079D01*
X12668753Y-15564079D02*
X12678277Y-15545031D01*
X12678277Y-15545031D02*
X12687801Y-15535508D01*
X12687801Y-15535508D02*
X12706848Y-15525984D01*
X12944944Y-15592650D02*
X12944944Y-15725984D01*
X12897325Y-15516460D02*
X12849706Y-15659317D01*
X12849706Y-15659317D02*
X12973515Y-15659317D01*
X13087801Y-15525984D02*
X13106848Y-15525984D01*
X13106848Y-15525984D02*
X13125896Y-15535508D01*
X13125896Y-15535508D02*
X13135420Y-15545031D01*
X13135420Y-15545031D02*
X13144944Y-15564079D01*
X13144944Y-15564079D02*
X13154467Y-15602174D01*
X13154467Y-15602174D02*
X13154467Y-15649793D01*
X13154467Y-15649793D02*
X13144944Y-15687888D01*
X13144944Y-15687888D02*
X13135420Y-15706936D01*
X13135420Y-15706936D02*
X13125896Y-15716460D01*
X13125896Y-15716460D02*
X13106848Y-15725984D01*
X13106848Y-15725984D02*
X13087801Y-15725984D01*
X13087801Y-15725984D02*
X13068753Y-15716460D01*
X13068753Y-15716460D02*
X13059229Y-15706936D01*
X13059229Y-15706936D02*
X13049706Y-15687888D01*
X13049706Y-15687888D02*
X13040182Y-15649793D01*
X13040182Y-15649793D02*
X13040182Y-15602174D01*
X13040182Y-15602174D02*
X13049706Y-15564079D01*
X13049706Y-15564079D02*
X13059229Y-15545031D01*
X13059229Y-15545031D02*
X13068753Y-15535508D01*
X13068753Y-15535508D02*
X13087801Y-15525984D01*
X13230658Y-15545031D02*
X13240182Y-15535508D01*
X13240182Y-15535508D02*
X13259229Y-15525984D01*
X13259229Y-15525984D02*
X13306848Y-15525984D01*
X13306848Y-15525984D02*
X13325896Y-15535508D01*
X13325896Y-15535508D02*
X13335420Y-15545031D01*
X13335420Y-15545031D02*
X13344944Y-15564079D01*
X13344944Y-15564079D02*
X13344944Y-15583127D01*
X13344944Y-15583127D02*
X13335420Y-15611698D01*
X13335420Y-15611698D02*
X13221134Y-15725984D01*
X13221134Y-15725984D02*
X13344944Y-15725984D01*
X13421134Y-15525984D02*
X13421134Y-15564079D01*
X13497325Y-15525984D02*
X13497325Y-15564079D01*
X13792563Y-15802174D02*
X13783039Y-15792650D01*
X13783039Y-15792650D02*
X13763991Y-15764079D01*
X13763991Y-15764079D02*
X13754468Y-15745031D01*
X13754468Y-15745031D02*
X13744944Y-15716460D01*
X13744944Y-15716460D02*
X13735420Y-15668841D01*
X13735420Y-15668841D02*
X13735420Y-15630746D01*
X13735420Y-15630746D02*
X13744944Y-15583127D01*
X13744944Y-15583127D02*
X13754468Y-15554555D01*
X13754468Y-15554555D02*
X13763991Y-15535508D01*
X13763991Y-15535508D02*
X13783039Y-15506936D01*
X13783039Y-15506936D02*
X13792563Y-15497412D01*
X13897325Y-15611698D02*
X13878277Y-15602174D01*
X13878277Y-15602174D02*
X13868753Y-15592650D01*
X13868753Y-15592650D02*
X13859229Y-15573603D01*
X13859229Y-15573603D02*
X13859229Y-15564079D01*
X13859229Y-15564079D02*
X13868753Y-15545031D01*
X13868753Y-15545031D02*
X13878277Y-15535508D01*
X13878277Y-15535508D02*
X13897325Y-15525984D01*
X13897325Y-15525984D02*
X13935420Y-15525984D01*
X13935420Y-15525984D02*
X13954468Y-15535508D01*
X13954468Y-15535508D02*
X13963991Y-15545031D01*
X13963991Y-15545031D02*
X13973515Y-15564079D01*
X13973515Y-15564079D02*
X13973515Y-15573603D01*
X13973515Y-15573603D02*
X13963991Y-15592650D01*
X13963991Y-15592650D02*
X13954468Y-15602174D01*
X13954468Y-15602174D02*
X13935420Y-15611698D01*
X13935420Y-15611698D02*
X13897325Y-15611698D01*
X13897325Y-15611698D02*
X13878277Y-15621222D01*
X13878277Y-15621222D02*
X13868753Y-15630746D01*
X13868753Y-15630746D02*
X13859229Y-15649793D01*
X13859229Y-15649793D02*
X13859229Y-15687888D01*
X13859229Y-15687888D02*
X13868753Y-15706936D01*
X13868753Y-15706936D02*
X13878277Y-15716460D01*
X13878277Y-15716460D02*
X13897325Y-15725984D01*
X13897325Y-15725984D02*
X13935420Y-15725984D01*
X13935420Y-15725984D02*
X13954468Y-15716460D01*
X13954468Y-15716460D02*
X13963991Y-15706936D01*
X13963991Y-15706936D02*
X13973515Y-15687888D01*
X13973515Y-15687888D02*
X13973515Y-15649793D01*
X13973515Y-15649793D02*
X13963991Y-15630746D01*
X13963991Y-15630746D02*
X13954468Y-15621222D01*
X13954468Y-15621222D02*
X13935420Y-15611698D01*
X14211610Y-15725984D02*
X14211610Y-15525984D01*
X14297325Y-15725984D02*
X14297325Y-15621222D01*
X14297325Y-15621222D02*
X14287801Y-15602174D01*
X14287801Y-15602174D02*
X14268753Y-15592650D01*
X14268753Y-15592650D02*
X14240182Y-15592650D01*
X14240182Y-15592650D02*
X14221134Y-15602174D01*
X14221134Y-15602174D02*
X14211610Y-15611698D01*
X14421134Y-15725984D02*
X14402087Y-15716460D01*
X14402087Y-15716460D02*
X14392563Y-15706936D01*
X14392563Y-15706936D02*
X14383039Y-15687888D01*
X14383039Y-15687888D02*
X14383039Y-15630746D01*
X14383039Y-15630746D02*
X14392563Y-15611698D01*
X14392563Y-15611698D02*
X14402087Y-15602174D01*
X14402087Y-15602174D02*
X14421134Y-15592650D01*
X14421134Y-15592650D02*
X14449706Y-15592650D01*
X14449706Y-15592650D02*
X14468753Y-15602174D01*
X14468753Y-15602174D02*
X14478277Y-15611698D01*
X14478277Y-15611698D02*
X14487801Y-15630746D01*
X14487801Y-15630746D02*
X14487801Y-15687888D01*
X14487801Y-15687888D02*
X14478277Y-15706936D01*
X14478277Y-15706936D02*
X14468753Y-15716460D01*
X14468753Y-15716460D02*
X14449706Y-15725984D01*
X14449706Y-15725984D02*
X14421134Y-15725984D01*
X14602087Y-15725984D02*
X14583039Y-15716460D01*
X14583039Y-15716460D02*
X14573515Y-15697412D01*
X14573515Y-15697412D02*
X14573515Y-15525984D01*
X14754468Y-15716460D02*
X14735420Y-15725984D01*
X14735420Y-15725984D02*
X14697325Y-15725984D01*
X14697325Y-15725984D02*
X14678277Y-15716460D01*
X14678277Y-15716460D02*
X14668753Y-15697412D01*
X14668753Y-15697412D02*
X14668753Y-15621222D01*
X14668753Y-15621222D02*
X14678277Y-15602174D01*
X14678277Y-15602174D02*
X14697325Y-15592650D01*
X14697325Y-15592650D02*
X14735420Y-15592650D01*
X14735420Y-15592650D02*
X14754468Y-15602174D01*
X14754468Y-15602174D02*
X14763991Y-15621222D01*
X14763991Y-15621222D02*
X14763991Y-15640269D01*
X14763991Y-15640269D02*
X14668753Y-15659317D01*
X14840182Y-15716460D02*
X14859230Y-15725984D01*
X14859230Y-15725984D02*
X14897325Y-15725984D01*
X14897325Y-15725984D02*
X14916372Y-15716460D01*
X14916372Y-15716460D02*
X14925896Y-15697412D01*
X14925896Y-15697412D02*
X14925896Y-15687888D01*
X14925896Y-15687888D02*
X14916372Y-15668841D01*
X14916372Y-15668841D02*
X14897325Y-15659317D01*
X14897325Y-15659317D02*
X14868753Y-15659317D01*
X14868753Y-15659317D02*
X14849706Y-15649793D01*
X14849706Y-15649793D02*
X14840182Y-15630746D01*
X14840182Y-15630746D02*
X14840182Y-15621222D01*
X14840182Y-15621222D02*
X14849706Y-15602174D01*
X14849706Y-15602174D02*
X14868753Y-15592650D01*
X14868753Y-15592650D02*
X14897325Y-15592650D01*
X14897325Y-15592650D02*
X14916372Y-15602174D01*
X14992563Y-15802174D02*
X15002087Y-15792650D01*
X15002087Y-15792650D02*
X15021134Y-15764079D01*
X15021134Y-15764079D02*
X15030658Y-15745031D01*
X15030658Y-15745031D02*
X15040182Y-15716460D01*
X15040182Y-15716460D02*
X15049706Y-15668841D01*
X15049706Y-15668841D02*
X15049706Y-15630746D01*
X15049706Y-15630746D02*
X15040182Y-15583127D01*
X15040182Y-15583127D02*
X15030658Y-15554555D01*
X15030658Y-15554555D02*
X15021134Y-15535508D01*
X15021134Y-15535508D02*
X15002087Y-15506936D01*
X15002087Y-15506936D02*
X14992563Y-15497412D01*
D14*
X10162500Y-15953500D02*
X10217500Y-15898500D01*
X10162500Y-15843500D01*
X10107500Y-15898500D01*
X10162500Y-15953500D01*
D11*
X10583039Y-15989984D02*
X10468753Y-15989984D01*
X10525896Y-15989984D02*
X10525896Y-15789984D01*
X10525896Y-15789984D02*
X10506848Y-15818555D01*
X10506848Y-15818555D02*
X10487801Y-15837603D01*
X10487801Y-15837603D02*
X10468753Y-15847127D01*
X10668753Y-15970936D02*
X10678277Y-15980460D01*
X10678277Y-15980460D02*
X10668753Y-15989984D01*
X10668753Y-15989984D02*
X10659229Y-15980460D01*
X10659229Y-15980460D02*
X10668753Y-15970936D01*
X10668753Y-15970936D02*
X10668753Y-15989984D01*
X10868753Y-15989984D02*
X10754467Y-15989984D01*
X10811610Y-15989984D02*
X10811610Y-15789984D01*
X10811610Y-15789984D02*
X10792563Y-15818555D01*
X10792563Y-15818555D02*
X10773515Y-15837603D01*
X10773515Y-15837603D02*
X10754467Y-15847127D01*
X10992563Y-15789984D02*
X11011610Y-15789984D01*
X11011610Y-15789984D02*
X11030658Y-15799508D01*
X11030658Y-15799508D02*
X11040182Y-15809031D01*
X11040182Y-15809031D02*
X11049705Y-15828079D01*
X11049705Y-15828079D02*
X11059229Y-15866174D01*
X11059229Y-15866174D02*
X11059229Y-15913793D01*
X11059229Y-15913793D02*
X11049705Y-15951888D01*
X11049705Y-15951888D02*
X11040182Y-15970936D01*
X11040182Y-15970936D02*
X11030658Y-15980460D01*
X11030658Y-15980460D02*
X11011610Y-15989984D01*
X11011610Y-15989984D02*
X10992563Y-15989984D01*
X10992563Y-15989984D02*
X10973515Y-15980460D01*
X10973515Y-15980460D02*
X10963991Y-15970936D01*
X10963991Y-15970936D02*
X10954467Y-15951888D01*
X10954467Y-15951888D02*
X10944944Y-15913793D01*
X10944944Y-15913793D02*
X10944944Y-15866174D01*
X10944944Y-15866174D02*
X10954467Y-15828079D01*
X10954467Y-15828079D02*
X10963991Y-15809031D01*
X10963991Y-15809031D02*
X10973515Y-15799508D01*
X10973515Y-15799508D02*
X10992563Y-15789984D01*
X11183039Y-15789984D02*
X11202086Y-15789984D01*
X11202086Y-15789984D02*
X11221134Y-15799508D01*
X11221134Y-15799508D02*
X11230658Y-15809031D01*
X11230658Y-15809031D02*
X11240182Y-15828079D01*
X11240182Y-15828079D02*
X11249705Y-15866174D01*
X11249705Y-15866174D02*
X11249705Y-15913793D01*
X11249705Y-15913793D02*
X11240182Y-15951888D01*
X11240182Y-15951888D02*
X11230658Y-15970936D01*
X11230658Y-15970936D02*
X11221134Y-15980460D01*
X11221134Y-15980460D02*
X11202086Y-15989984D01*
X11202086Y-15989984D02*
X11183039Y-15989984D01*
X11183039Y-15989984D02*
X11163991Y-15980460D01*
X11163991Y-15980460D02*
X11154467Y-15970936D01*
X11154467Y-15970936D02*
X11144944Y-15951888D01*
X11144944Y-15951888D02*
X11135420Y-15913793D01*
X11135420Y-15913793D02*
X11135420Y-15866174D01*
X11135420Y-15866174D02*
X11144944Y-15828079D01*
X11144944Y-15828079D02*
X11154467Y-15809031D01*
X11154467Y-15809031D02*
X11163991Y-15799508D01*
X11163991Y-15799508D02*
X11183039Y-15789984D01*
X11335420Y-15989984D02*
X11335420Y-15856650D01*
X11335420Y-15875698D02*
X11344943Y-15866174D01*
X11344943Y-15866174D02*
X11363991Y-15856650D01*
X11363991Y-15856650D02*
X11392563Y-15856650D01*
X11392563Y-15856650D02*
X11411610Y-15866174D01*
X11411610Y-15866174D02*
X11421134Y-15885222D01*
X11421134Y-15885222D02*
X11421134Y-15989984D01*
X11421134Y-15885222D02*
X11430658Y-15866174D01*
X11430658Y-15866174D02*
X11449705Y-15856650D01*
X11449705Y-15856650D02*
X11478277Y-15856650D01*
X11478277Y-15856650D02*
X11497324Y-15866174D01*
X11497324Y-15866174D02*
X11506848Y-15885222D01*
X11506848Y-15885222D02*
X11506848Y-15989984D01*
X11602086Y-15989984D02*
X11602086Y-15856650D01*
X11602086Y-15875698D02*
X11611610Y-15866174D01*
X11611610Y-15866174D02*
X11630658Y-15856650D01*
X11630658Y-15856650D02*
X11659229Y-15856650D01*
X11659229Y-15856650D02*
X11678277Y-15866174D01*
X11678277Y-15866174D02*
X11687801Y-15885222D01*
X11687801Y-15885222D02*
X11687801Y-15989984D01*
X11687801Y-15885222D02*
X11697324Y-15866174D01*
X11697324Y-15866174D02*
X11716372Y-15856650D01*
X11716372Y-15856650D02*
X11744943Y-15856650D01*
X11744943Y-15856650D02*
X11763991Y-15866174D01*
X11763991Y-15866174D02*
X11773515Y-15885222D01*
X11773515Y-15885222D02*
X11773515Y-15989984D01*
X12163991Y-15780460D02*
X11992563Y-16037603D01*
X12421134Y-15789984D02*
X12440182Y-15789984D01*
X12440182Y-15789984D02*
X12459229Y-15799508D01*
X12459229Y-15799508D02*
X12468753Y-15809031D01*
X12468753Y-15809031D02*
X12478277Y-15828079D01*
X12478277Y-15828079D02*
X12487801Y-15866174D01*
X12487801Y-15866174D02*
X12487801Y-15913793D01*
X12487801Y-15913793D02*
X12478277Y-15951888D01*
X12478277Y-15951888D02*
X12468753Y-15970936D01*
X12468753Y-15970936D02*
X12459229Y-15980460D01*
X12459229Y-15980460D02*
X12440182Y-15989984D01*
X12440182Y-15989984D02*
X12421134Y-15989984D01*
X12421134Y-15989984D02*
X12402086Y-15980460D01*
X12402086Y-15980460D02*
X12392563Y-15970936D01*
X12392563Y-15970936D02*
X12383039Y-15951888D01*
X12383039Y-15951888D02*
X12373515Y-15913793D01*
X12373515Y-15913793D02*
X12373515Y-15866174D01*
X12373515Y-15866174D02*
X12383039Y-15828079D01*
X12383039Y-15828079D02*
X12392563Y-15809031D01*
X12392563Y-15809031D02*
X12402086Y-15799508D01*
X12402086Y-15799508D02*
X12421134Y-15789984D01*
X12573515Y-15970936D02*
X12583039Y-15980460D01*
X12583039Y-15980460D02*
X12573515Y-15989984D01*
X12573515Y-15989984D02*
X12563991Y-15980460D01*
X12563991Y-15980460D02*
X12573515Y-15970936D01*
X12573515Y-15970936D02*
X12573515Y-15989984D01*
X12706848Y-15789984D02*
X12725896Y-15789984D01*
X12725896Y-15789984D02*
X12744944Y-15799508D01*
X12744944Y-15799508D02*
X12754467Y-15809031D01*
X12754467Y-15809031D02*
X12763991Y-15828079D01*
X12763991Y-15828079D02*
X12773515Y-15866174D01*
X12773515Y-15866174D02*
X12773515Y-15913793D01*
X12773515Y-15913793D02*
X12763991Y-15951888D01*
X12763991Y-15951888D02*
X12754467Y-15970936D01*
X12754467Y-15970936D02*
X12744944Y-15980460D01*
X12744944Y-15980460D02*
X12725896Y-15989984D01*
X12725896Y-15989984D02*
X12706848Y-15989984D01*
X12706848Y-15989984D02*
X12687801Y-15980460D01*
X12687801Y-15980460D02*
X12678277Y-15970936D01*
X12678277Y-15970936D02*
X12668753Y-15951888D01*
X12668753Y-15951888D02*
X12659229Y-15913793D01*
X12659229Y-15913793D02*
X12659229Y-15866174D01*
X12659229Y-15866174D02*
X12668753Y-15828079D01*
X12668753Y-15828079D02*
X12678277Y-15809031D01*
X12678277Y-15809031D02*
X12687801Y-15799508D01*
X12687801Y-15799508D02*
X12706848Y-15789984D01*
X12944944Y-15856650D02*
X12944944Y-15989984D01*
X12897325Y-15780460D02*
X12849706Y-15923317D01*
X12849706Y-15923317D02*
X12973515Y-15923317D01*
X13030658Y-15789984D02*
X13154467Y-15789984D01*
X13154467Y-15789984D02*
X13087801Y-15866174D01*
X13087801Y-15866174D02*
X13116372Y-15866174D01*
X13116372Y-15866174D02*
X13135420Y-15875698D01*
X13135420Y-15875698D02*
X13144944Y-15885222D01*
X13144944Y-15885222D02*
X13154467Y-15904269D01*
X13154467Y-15904269D02*
X13154467Y-15951888D01*
X13154467Y-15951888D02*
X13144944Y-15970936D01*
X13144944Y-15970936D02*
X13135420Y-15980460D01*
X13135420Y-15980460D02*
X13116372Y-15989984D01*
X13116372Y-15989984D02*
X13059229Y-15989984D01*
X13059229Y-15989984D02*
X13040182Y-15980460D01*
X13040182Y-15980460D02*
X13030658Y-15970936D01*
X13221134Y-15789984D02*
X13344944Y-15789984D01*
X13344944Y-15789984D02*
X13278277Y-15866174D01*
X13278277Y-15866174D02*
X13306848Y-15866174D01*
X13306848Y-15866174D02*
X13325896Y-15875698D01*
X13325896Y-15875698D02*
X13335420Y-15885222D01*
X13335420Y-15885222D02*
X13344944Y-15904269D01*
X13344944Y-15904269D02*
X13344944Y-15951888D01*
X13344944Y-15951888D02*
X13335420Y-15970936D01*
X13335420Y-15970936D02*
X13325896Y-15980460D01*
X13325896Y-15980460D02*
X13306848Y-15989984D01*
X13306848Y-15989984D02*
X13249706Y-15989984D01*
X13249706Y-15989984D02*
X13230658Y-15980460D01*
X13230658Y-15980460D02*
X13221134Y-15970936D01*
X13421134Y-15789984D02*
X13421134Y-15828079D01*
X13497325Y-15789984D02*
X13497325Y-15828079D01*
X13792563Y-16066174D02*
X13783039Y-16056650D01*
X13783039Y-16056650D02*
X13763991Y-16028079D01*
X13763991Y-16028079D02*
X13754468Y-16009031D01*
X13754468Y-16009031D02*
X13744944Y-15980460D01*
X13744944Y-15980460D02*
X13735420Y-15932841D01*
X13735420Y-15932841D02*
X13735420Y-15894746D01*
X13735420Y-15894746D02*
X13744944Y-15847127D01*
X13744944Y-15847127D02*
X13754468Y-15818555D01*
X13754468Y-15818555D02*
X13763991Y-15799508D01*
X13763991Y-15799508D02*
X13783039Y-15770936D01*
X13783039Y-15770936D02*
X13792563Y-15761412D01*
X13954468Y-15856650D02*
X13954468Y-15989984D01*
X13906848Y-15780460D02*
X13859229Y-15923317D01*
X13859229Y-15923317D02*
X13983039Y-15923317D01*
X14211610Y-15989984D02*
X14211610Y-15789984D01*
X14297325Y-15989984D02*
X14297325Y-15885222D01*
X14297325Y-15885222D02*
X14287801Y-15866174D01*
X14287801Y-15866174D02*
X14268753Y-15856650D01*
X14268753Y-15856650D02*
X14240182Y-15856650D01*
X14240182Y-15856650D02*
X14221134Y-15866174D01*
X14221134Y-15866174D02*
X14211610Y-15875698D01*
X14421134Y-15989984D02*
X14402087Y-15980460D01*
X14402087Y-15980460D02*
X14392563Y-15970936D01*
X14392563Y-15970936D02*
X14383039Y-15951888D01*
X14383039Y-15951888D02*
X14383039Y-15894746D01*
X14383039Y-15894746D02*
X14392563Y-15875698D01*
X14392563Y-15875698D02*
X14402087Y-15866174D01*
X14402087Y-15866174D02*
X14421134Y-15856650D01*
X14421134Y-15856650D02*
X14449706Y-15856650D01*
X14449706Y-15856650D02*
X14468753Y-15866174D01*
X14468753Y-15866174D02*
X14478277Y-15875698D01*
X14478277Y-15875698D02*
X14487801Y-15894746D01*
X14487801Y-15894746D02*
X14487801Y-15951888D01*
X14487801Y-15951888D02*
X14478277Y-15970936D01*
X14478277Y-15970936D02*
X14468753Y-15980460D01*
X14468753Y-15980460D02*
X14449706Y-15989984D01*
X14449706Y-15989984D02*
X14421134Y-15989984D01*
X14602087Y-15989984D02*
X14583039Y-15980460D01*
X14583039Y-15980460D02*
X14573515Y-15961412D01*
X14573515Y-15961412D02*
X14573515Y-15789984D01*
X14754468Y-15980460D02*
X14735420Y-15989984D01*
X14735420Y-15989984D02*
X14697325Y-15989984D01*
X14697325Y-15989984D02*
X14678277Y-15980460D01*
X14678277Y-15980460D02*
X14668753Y-15961412D01*
X14668753Y-15961412D02*
X14668753Y-15885222D01*
X14668753Y-15885222D02*
X14678277Y-15866174D01*
X14678277Y-15866174D02*
X14697325Y-15856650D01*
X14697325Y-15856650D02*
X14735420Y-15856650D01*
X14735420Y-15856650D02*
X14754468Y-15866174D01*
X14754468Y-15866174D02*
X14763991Y-15885222D01*
X14763991Y-15885222D02*
X14763991Y-15904269D01*
X14763991Y-15904269D02*
X14668753Y-15923317D01*
X14840182Y-15980460D02*
X14859230Y-15989984D01*
X14859230Y-15989984D02*
X14897325Y-15989984D01*
X14897325Y-15989984D02*
X14916372Y-15980460D01*
X14916372Y-15980460D02*
X14925896Y-15961412D01*
X14925896Y-15961412D02*
X14925896Y-15951888D01*
X14925896Y-15951888D02*
X14916372Y-15932841D01*
X14916372Y-15932841D02*
X14897325Y-15923317D01*
X14897325Y-15923317D02*
X14868753Y-15923317D01*
X14868753Y-15923317D02*
X14849706Y-15913793D01*
X14849706Y-15913793D02*
X14840182Y-15894746D01*
X14840182Y-15894746D02*
X14840182Y-15885222D01*
X14840182Y-15885222D02*
X14849706Y-15866174D01*
X14849706Y-15866174D02*
X14868753Y-15856650D01*
X14868753Y-15856650D02*
X14897325Y-15856650D01*
X14897325Y-15856650D02*
X14916372Y-15866174D01*
X14992563Y-16066174D02*
X15002087Y-16056650D01*
X15002087Y-16056650D02*
X15021134Y-16028079D01*
X15021134Y-16028079D02*
X15030658Y-16009031D01*
X15030658Y-16009031D02*
X15040182Y-15980460D01*
X15040182Y-15980460D02*
X15049706Y-15932841D01*
X15049706Y-15932841D02*
X15049706Y-15894746D01*
X15049706Y-15894746D02*
X15040182Y-15847127D01*
X15040182Y-15847127D02*
X15030658Y-15818555D01*
X15030658Y-15818555D02*
X15021134Y-15799508D01*
X15021134Y-15799508D02*
X15002087Y-15770936D01*
X15002087Y-15770936D02*
X14992563Y-15761412D01*
D15*
X10097500Y-16102500D02*
X10217500Y-16222500D01*
X10217500Y-16102500D02*
X10097500Y-16222500D01*
X10217500Y-16162500D02*
G75*
G02*
X10097500Y-16162500I-60000J0D01*
G01*
X10097500Y-16162500D02*
G75*
G02*
X10217500Y-16162500I60000J0D01*
G01*
D11*
X10583039Y-16253984D02*
X10468753Y-16253984D01*
X10525896Y-16253984D02*
X10525896Y-16053984D01*
X10525896Y-16053984D02*
X10506848Y-16082555D01*
X10506848Y-16082555D02*
X10487801Y-16101603D01*
X10487801Y-16101603D02*
X10468753Y-16111127D01*
X10668753Y-16234936D02*
X10678277Y-16244460D01*
X10678277Y-16244460D02*
X10668753Y-16253984D01*
X10668753Y-16253984D02*
X10659229Y-16244460D01*
X10659229Y-16244460D02*
X10668753Y-16234936D01*
X10668753Y-16234936D02*
X10668753Y-16253984D01*
X10754467Y-16073031D02*
X10763991Y-16063508D01*
X10763991Y-16063508D02*
X10783039Y-16053984D01*
X10783039Y-16053984D02*
X10830658Y-16053984D01*
X10830658Y-16053984D02*
X10849705Y-16063508D01*
X10849705Y-16063508D02*
X10859229Y-16073031D01*
X10859229Y-16073031D02*
X10868753Y-16092079D01*
X10868753Y-16092079D02*
X10868753Y-16111127D01*
X10868753Y-16111127D02*
X10859229Y-16139698D01*
X10859229Y-16139698D02*
X10744944Y-16253984D01*
X10744944Y-16253984D02*
X10868753Y-16253984D01*
X10992563Y-16053984D02*
X11011610Y-16053984D01*
X11011610Y-16053984D02*
X11030658Y-16063508D01*
X11030658Y-16063508D02*
X11040182Y-16073031D01*
X11040182Y-16073031D02*
X11049705Y-16092079D01*
X11049705Y-16092079D02*
X11059229Y-16130174D01*
X11059229Y-16130174D02*
X11059229Y-16177793D01*
X11059229Y-16177793D02*
X11049705Y-16215888D01*
X11049705Y-16215888D02*
X11040182Y-16234936D01*
X11040182Y-16234936D02*
X11030658Y-16244460D01*
X11030658Y-16244460D02*
X11011610Y-16253984D01*
X11011610Y-16253984D02*
X10992563Y-16253984D01*
X10992563Y-16253984D02*
X10973515Y-16244460D01*
X10973515Y-16244460D02*
X10963991Y-16234936D01*
X10963991Y-16234936D02*
X10954467Y-16215888D01*
X10954467Y-16215888D02*
X10944944Y-16177793D01*
X10944944Y-16177793D02*
X10944944Y-16130174D01*
X10944944Y-16130174D02*
X10954467Y-16092079D01*
X10954467Y-16092079D02*
X10963991Y-16073031D01*
X10963991Y-16073031D02*
X10973515Y-16063508D01*
X10973515Y-16063508D02*
X10992563Y-16053984D01*
X11183039Y-16053984D02*
X11202086Y-16053984D01*
X11202086Y-16053984D02*
X11221134Y-16063508D01*
X11221134Y-16063508D02*
X11230658Y-16073031D01*
X11230658Y-16073031D02*
X11240182Y-16092079D01*
X11240182Y-16092079D02*
X11249705Y-16130174D01*
X11249705Y-16130174D02*
X11249705Y-16177793D01*
X11249705Y-16177793D02*
X11240182Y-16215888D01*
X11240182Y-16215888D02*
X11230658Y-16234936D01*
X11230658Y-16234936D02*
X11221134Y-16244460D01*
X11221134Y-16244460D02*
X11202086Y-16253984D01*
X11202086Y-16253984D02*
X11183039Y-16253984D01*
X11183039Y-16253984D02*
X11163991Y-16244460D01*
X11163991Y-16244460D02*
X11154467Y-16234936D01*
X11154467Y-16234936D02*
X11144944Y-16215888D01*
X11144944Y-16215888D02*
X11135420Y-16177793D01*
X11135420Y-16177793D02*
X11135420Y-16130174D01*
X11135420Y-16130174D02*
X11144944Y-16092079D01*
X11144944Y-16092079D02*
X11154467Y-16073031D01*
X11154467Y-16073031D02*
X11163991Y-16063508D01*
X11163991Y-16063508D02*
X11183039Y-16053984D01*
X11335420Y-16253984D02*
X11335420Y-16120650D01*
X11335420Y-16139698D02*
X11344943Y-16130174D01*
X11344943Y-16130174D02*
X11363991Y-16120650D01*
X11363991Y-16120650D02*
X11392563Y-16120650D01*
X11392563Y-16120650D02*
X11411610Y-16130174D01*
X11411610Y-16130174D02*
X11421134Y-16149222D01*
X11421134Y-16149222D02*
X11421134Y-16253984D01*
X11421134Y-16149222D02*
X11430658Y-16130174D01*
X11430658Y-16130174D02*
X11449705Y-16120650D01*
X11449705Y-16120650D02*
X11478277Y-16120650D01*
X11478277Y-16120650D02*
X11497324Y-16130174D01*
X11497324Y-16130174D02*
X11506848Y-16149222D01*
X11506848Y-16149222D02*
X11506848Y-16253984D01*
X11602086Y-16253984D02*
X11602086Y-16120650D01*
X11602086Y-16139698D02*
X11611610Y-16130174D01*
X11611610Y-16130174D02*
X11630658Y-16120650D01*
X11630658Y-16120650D02*
X11659229Y-16120650D01*
X11659229Y-16120650D02*
X11678277Y-16130174D01*
X11678277Y-16130174D02*
X11687801Y-16149222D01*
X11687801Y-16149222D02*
X11687801Y-16253984D01*
X11687801Y-16149222D02*
X11697324Y-16130174D01*
X11697324Y-16130174D02*
X11716372Y-16120650D01*
X11716372Y-16120650D02*
X11744943Y-16120650D01*
X11744943Y-16120650D02*
X11763991Y-16130174D01*
X11763991Y-16130174D02*
X11773515Y-16149222D01*
X11773515Y-16149222D02*
X11773515Y-16253984D01*
X12163991Y-16044460D02*
X11992563Y-16301603D01*
X12421134Y-16053984D02*
X12440182Y-16053984D01*
X12440182Y-16053984D02*
X12459229Y-16063508D01*
X12459229Y-16063508D02*
X12468753Y-16073031D01*
X12468753Y-16073031D02*
X12478277Y-16092079D01*
X12478277Y-16092079D02*
X12487801Y-16130174D01*
X12487801Y-16130174D02*
X12487801Y-16177793D01*
X12487801Y-16177793D02*
X12478277Y-16215888D01*
X12478277Y-16215888D02*
X12468753Y-16234936D01*
X12468753Y-16234936D02*
X12459229Y-16244460D01*
X12459229Y-16244460D02*
X12440182Y-16253984D01*
X12440182Y-16253984D02*
X12421134Y-16253984D01*
X12421134Y-16253984D02*
X12402086Y-16244460D01*
X12402086Y-16244460D02*
X12392563Y-16234936D01*
X12392563Y-16234936D02*
X12383039Y-16215888D01*
X12383039Y-16215888D02*
X12373515Y-16177793D01*
X12373515Y-16177793D02*
X12373515Y-16130174D01*
X12373515Y-16130174D02*
X12383039Y-16092079D01*
X12383039Y-16092079D02*
X12392563Y-16073031D01*
X12392563Y-16073031D02*
X12402086Y-16063508D01*
X12402086Y-16063508D02*
X12421134Y-16053984D01*
X12573515Y-16234936D02*
X12583039Y-16244460D01*
X12583039Y-16244460D02*
X12573515Y-16253984D01*
X12573515Y-16253984D02*
X12563991Y-16244460D01*
X12563991Y-16244460D02*
X12573515Y-16234936D01*
X12573515Y-16234936D02*
X12573515Y-16253984D01*
X12706848Y-16053984D02*
X12725896Y-16053984D01*
X12725896Y-16053984D02*
X12744944Y-16063508D01*
X12744944Y-16063508D02*
X12754467Y-16073031D01*
X12754467Y-16073031D02*
X12763991Y-16092079D01*
X12763991Y-16092079D02*
X12773515Y-16130174D01*
X12773515Y-16130174D02*
X12773515Y-16177793D01*
X12773515Y-16177793D02*
X12763991Y-16215888D01*
X12763991Y-16215888D02*
X12754467Y-16234936D01*
X12754467Y-16234936D02*
X12744944Y-16244460D01*
X12744944Y-16244460D02*
X12725896Y-16253984D01*
X12725896Y-16253984D02*
X12706848Y-16253984D01*
X12706848Y-16253984D02*
X12687801Y-16244460D01*
X12687801Y-16244460D02*
X12678277Y-16234936D01*
X12678277Y-16234936D02*
X12668753Y-16215888D01*
X12668753Y-16215888D02*
X12659229Y-16177793D01*
X12659229Y-16177793D02*
X12659229Y-16130174D01*
X12659229Y-16130174D02*
X12668753Y-16092079D01*
X12668753Y-16092079D02*
X12678277Y-16073031D01*
X12678277Y-16073031D02*
X12687801Y-16063508D01*
X12687801Y-16063508D02*
X12706848Y-16053984D01*
X12944944Y-16120650D02*
X12944944Y-16253984D01*
X12897325Y-16044460D02*
X12849706Y-16187317D01*
X12849706Y-16187317D02*
X12973515Y-16187317D01*
X13030658Y-16053984D02*
X13163991Y-16053984D01*
X13163991Y-16053984D02*
X13078277Y-16253984D01*
X13230658Y-16073031D02*
X13240182Y-16063508D01*
X13240182Y-16063508D02*
X13259229Y-16053984D01*
X13259229Y-16053984D02*
X13306848Y-16053984D01*
X13306848Y-16053984D02*
X13325896Y-16063508D01*
X13325896Y-16063508D02*
X13335420Y-16073031D01*
X13335420Y-16073031D02*
X13344944Y-16092079D01*
X13344944Y-16092079D02*
X13344944Y-16111127D01*
X13344944Y-16111127D02*
X13335420Y-16139698D01*
X13335420Y-16139698D02*
X13221134Y-16253984D01*
X13221134Y-16253984D02*
X13344944Y-16253984D01*
X13421134Y-16053984D02*
X13421134Y-16092079D01*
X13497325Y-16053984D02*
X13497325Y-16092079D01*
X13792563Y-16330174D02*
X13783039Y-16320650D01*
X13783039Y-16320650D02*
X13763991Y-16292079D01*
X13763991Y-16292079D02*
X13754468Y-16273031D01*
X13754468Y-16273031D02*
X13744944Y-16244460D01*
X13744944Y-16244460D02*
X13735420Y-16196841D01*
X13735420Y-16196841D02*
X13735420Y-16158746D01*
X13735420Y-16158746D02*
X13744944Y-16111127D01*
X13744944Y-16111127D02*
X13754468Y-16082555D01*
X13754468Y-16082555D02*
X13763991Y-16063508D01*
X13763991Y-16063508D02*
X13783039Y-16034936D01*
X13783039Y-16034936D02*
X13792563Y-16025412D01*
X13973515Y-16253984D02*
X13859229Y-16253984D01*
X13916372Y-16253984D02*
X13916372Y-16053984D01*
X13916372Y-16053984D02*
X13897325Y-16082555D01*
X13897325Y-16082555D02*
X13878277Y-16101603D01*
X13878277Y-16101603D02*
X13859229Y-16111127D01*
X14144944Y-16053984D02*
X14106848Y-16053984D01*
X14106848Y-16053984D02*
X14087801Y-16063508D01*
X14087801Y-16063508D02*
X14078277Y-16073031D01*
X14078277Y-16073031D02*
X14059229Y-16101603D01*
X14059229Y-16101603D02*
X14049706Y-16139698D01*
X14049706Y-16139698D02*
X14049706Y-16215888D01*
X14049706Y-16215888D02*
X14059229Y-16234936D01*
X14059229Y-16234936D02*
X14068753Y-16244460D01*
X14068753Y-16244460D02*
X14087801Y-16253984D01*
X14087801Y-16253984D02*
X14125896Y-16253984D01*
X14125896Y-16253984D02*
X14144944Y-16244460D01*
X14144944Y-16244460D02*
X14154468Y-16234936D01*
X14154468Y-16234936D02*
X14163991Y-16215888D01*
X14163991Y-16215888D02*
X14163991Y-16168269D01*
X14163991Y-16168269D02*
X14154468Y-16149222D01*
X14154468Y-16149222D02*
X14144944Y-16139698D01*
X14144944Y-16139698D02*
X14125896Y-16130174D01*
X14125896Y-16130174D02*
X14087801Y-16130174D01*
X14087801Y-16130174D02*
X14068753Y-16139698D01*
X14068753Y-16139698D02*
X14059229Y-16149222D01*
X14059229Y-16149222D02*
X14049706Y-16168269D01*
X14402087Y-16253984D02*
X14402087Y-16053984D01*
X14487801Y-16253984D02*
X14487801Y-16149222D01*
X14487801Y-16149222D02*
X14478277Y-16130174D01*
X14478277Y-16130174D02*
X14459230Y-16120650D01*
X14459230Y-16120650D02*
X14430658Y-16120650D01*
X14430658Y-16120650D02*
X14411610Y-16130174D01*
X14411610Y-16130174D02*
X14402087Y-16139698D01*
X14611610Y-16253984D02*
X14592563Y-16244460D01*
X14592563Y-16244460D02*
X14583039Y-16234936D01*
X14583039Y-16234936D02*
X14573515Y-16215888D01*
X14573515Y-16215888D02*
X14573515Y-16158746D01*
X14573515Y-16158746D02*
X14583039Y-16139698D01*
X14583039Y-16139698D02*
X14592563Y-16130174D01*
X14592563Y-16130174D02*
X14611610Y-16120650D01*
X14611610Y-16120650D02*
X14640182Y-16120650D01*
X14640182Y-16120650D02*
X14659230Y-16130174D01*
X14659230Y-16130174D02*
X14668753Y-16139698D01*
X14668753Y-16139698D02*
X14678277Y-16158746D01*
X14678277Y-16158746D02*
X14678277Y-16215888D01*
X14678277Y-16215888D02*
X14668753Y-16234936D01*
X14668753Y-16234936D02*
X14659230Y-16244460D01*
X14659230Y-16244460D02*
X14640182Y-16253984D01*
X14640182Y-16253984D02*
X14611610Y-16253984D01*
X14792563Y-16253984D02*
X14773515Y-16244460D01*
X14773515Y-16244460D02*
X14763991Y-16225412D01*
X14763991Y-16225412D02*
X14763991Y-16053984D01*
X14944944Y-16244460D02*
X14925896Y-16253984D01*
X14925896Y-16253984D02*
X14887801Y-16253984D01*
X14887801Y-16253984D02*
X14868753Y-16244460D01*
X14868753Y-16244460D02*
X14859230Y-16225412D01*
X14859230Y-16225412D02*
X14859230Y-16149222D01*
X14859230Y-16149222D02*
X14868753Y-16130174D01*
X14868753Y-16130174D02*
X14887801Y-16120650D01*
X14887801Y-16120650D02*
X14925896Y-16120650D01*
X14925896Y-16120650D02*
X14944944Y-16130174D01*
X14944944Y-16130174D02*
X14954468Y-16149222D01*
X14954468Y-16149222D02*
X14954468Y-16168269D01*
X14954468Y-16168269D02*
X14859230Y-16187317D01*
X15030658Y-16244460D02*
X15049706Y-16253984D01*
X15049706Y-16253984D02*
X15087801Y-16253984D01*
X15087801Y-16253984D02*
X15106849Y-16244460D01*
X15106849Y-16244460D02*
X15116372Y-16225412D01*
X15116372Y-16225412D02*
X15116372Y-16215888D01*
X15116372Y-16215888D02*
X15106849Y-16196841D01*
X15106849Y-16196841D02*
X15087801Y-16187317D01*
X15087801Y-16187317D02*
X15059230Y-16187317D01*
X15059230Y-16187317D02*
X15040182Y-16177793D01*
X15040182Y-16177793D02*
X15030658Y-16158746D01*
X15030658Y-16158746D02*
X15030658Y-16149222D01*
X15030658Y-16149222D02*
X15040182Y-16130174D01*
X15040182Y-16130174D02*
X15059230Y-16120650D01*
X15059230Y-16120650D02*
X15087801Y-16120650D01*
X15087801Y-16120650D02*
X15106849Y-16130174D01*
X15183039Y-16330174D02*
X15192563Y-16320650D01*
X15192563Y-16320650D02*
X15211611Y-16292079D01*
X15211611Y-16292079D02*
X15221134Y-16273031D01*
X15221134Y-16273031D02*
X15230658Y-16244460D01*
X15230658Y-16244460D02*
X15240182Y-16196841D01*
X15240182Y-16196841D02*
X15240182Y-16158746D01*
X15240182Y-16158746D02*
X15230658Y-16111127D01*
X15230658Y-16111127D02*
X15221134Y-16082555D01*
X15221134Y-16082555D02*
X15211611Y-16063508D01*
X15211611Y-16063508D02*
X15192563Y-16034936D01*
X15192563Y-16034936D02*
X15183039Y-16025412D01*
X10017500Y-16326500D02*
X10217500Y-16526500D01*
X10217500Y-16326500D02*
X10017500Y-16526500D01*
X10117500Y-16326500D02*
X10117500Y-16526500D01*
X10017500Y-16426500D02*
X10217500Y-16426500D01*
X10468753Y-16337031D02*
X10478277Y-16327508D01*
X10478277Y-16327508D02*
X10497324Y-16317984D01*
X10497324Y-16317984D02*
X10544944Y-16317984D01*
X10544944Y-16317984D02*
X10563991Y-16327508D01*
X10563991Y-16327508D02*
X10573515Y-16337031D01*
X10573515Y-16337031D02*
X10583039Y-16356079D01*
X10583039Y-16356079D02*
X10583039Y-16375127D01*
X10583039Y-16375127D02*
X10573515Y-16403698D01*
X10573515Y-16403698D02*
X10459229Y-16517984D01*
X10459229Y-16517984D02*
X10583039Y-16517984D01*
X10668753Y-16498936D02*
X10678277Y-16508460D01*
X10678277Y-16508460D02*
X10668753Y-16517984D01*
X10668753Y-16517984D02*
X10659229Y-16508460D01*
X10659229Y-16508460D02*
X10668753Y-16498936D01*
X10668753Y-16498936D02*
X10668753Y-16517984D01*
X10859229Y-16317984D02*
X10763991Y-16317984D01*
X10763991Y-16317984D02*
X10754467Y-16413222D01*
X10754467Y-16413222D02*
X10763991Y-16403698D01*
X10763991Y-16403698D02*
X10783039Y-16394174D01*
X10783039Y-16394174D02*
X10830658Y-16394174D01*
X10830658Y-16394174D02*
X10849705Y-16403698D01*
X10849705Y-16403698D02*
X10859229Y-16413222D01*
X10859229Y-16413222D02*
X10868753Y-16432269D01*
X10868753Y-16432269D02*
X10868753Y-16479888D01*
X10868753Y-16479888D02*
X10859229Y-16498936D01*
X10859229Y-16498936D02*
X10849705Y-16508460D01*
X10849705Y-16508460D02*
X10830658Y-16517984D01*
X10830658Y-16517984D02*
X10783039Y-16517984D01*
X10783039Y-16517984D02*
X10763991Y-16508460D01*
X10763991Y-16508460D02*
X10754467Y-16498936D01*
X10992563Y-16317984D02*
X11011610Y-16317984D01*
X11011610Y-16317984D02*
X11030658Y-16327508D01*
X11030658Y-16327508D02*
X11040182Y-16337031D01*
X11040182Y-16337031D02*
X11049705Y-16356079D01*
X11049705Y-16356079D02*
X11059229Y-16394174D01*
X11059229Y-16394174D02*
X11059229Y-16441793D01*
X11059229Y-16441793D02*
X11049705Y-16479888D01*
X11049705Y-16479888D02*
X11040182Y-16498936D01*
X11040182Y-16498936D02*
X11030658Y-16508460D01*
X11030658Y-16508460D02*
X11011610Y-16517984D01*
X11011610Y-16517984D02*
X10992563Y-16517984D01*
X10992563Y-16517984D02*
X10973515Y-16508460D01*
X10973515Y-16508460D02*
X10963991Y-16498936D01*
X10963991Y-16498936D02*
X10954467Y-16479888D01*
X10954467Y-16479888D02*
X10944944Y-16441793D01*
X10944944Y-16441793D02*
X10944944Y-16394174D01*
X10944944Y-16394174D02*
X10954467Y-16356079D01*
X10954467Y-16356079D02*
X10963991Y-16337031D01*
X10963991Y-16337031D02*
X10973515Y-16327508D01*
X10973515Y-16327508D02*
X10992563Y-16317984D01*
X11183039Y-16317984D02*
X11202086Y-16317984D01*
X11202086Y-16317984D02*
X11221134Y-16327508D01*
X11221134Y-16327508D02*
X11230658Y-16337031D01*
X11230658Y-16337031D02*
X11240182Y-16356079D01*
X11240182Y-16356079D02*
X11249705Y-16394174D01*
X11249705Y-16394174D02*
X11249705Y-16441793D01*
X11249705Y-16441793D02*
X11240182Y-16479888D01*
X11240182Y-16479888D02*
X11230658Y-16498936D01*
X11230658Y-16498936D02*
X11221134Y-16508460D01*
X11221134Y-16508460D02*
X11202086Y-16517984D01*
X11202086Y-16517984D02*
X11183039Y-16517984D01*
X11183039Y-16517984D02*
X11163991Y-16508460D01*
X11163991Y-16508460D02*
X11154467Y-16498936D01*
X11154467Y-16498936D02*
X11144944Y-16479888D01*
X11144944Y-16479888D02*
X11135420Y-16441793D01*
X11135420Y-16441793D02*
X11135420Y-16394174D01*
X11135420Y-16394174D02*
X11144944Y-16356079D01*
X11144944Y-16356079D02*
X11154467Y-16337031D01*
X11154467Y-16337031D02*
X11163991Y-16327508D01*
X11163991Y-16327508D02*
X11183039Y-16317984D01*
X11335420Y-16517984D02*
X11335420Y-16384650D01*
X11335420Y-16403698D02*
X11344943Y-16394174D01*
X11344943Y-16394174D02*
X11363991Y-16384650D01*
X11363991Y-16384650D02*
X11392563Y-16384650D01*
X11392563Y-16384650D02*
X11411610Y-16394174D01*
X11411610Y-16394174D02*
X11421134Y-16413222D01*
X11421134Y-16413222D02*
X11421134Y-16517984D01*
X11421134Y-16413222D02*
X11430658Y-16394174D01*
X11430658Y-16394174D02*
X11449705Y-16384650D01*
X11449705Y-16384650D02*
X11478277Y-16384650D01*
X11478277Y-16384650D02*
X11497324Y-16394174D01*
X11497324Y-16394174D02*
X11506848Y-16413222D01*
X11506848Y-16413222D02*
X11506848Y-16517984D01*
X11602086Y-16517984D02*
X11602086Y-16384650D01*
X11602086Y-16403698D02*
X11611610Y-16394174D01*
X11611610Y-16394174D02*
X11630658Y-16384650D01*
X11630658Y-16384650D02*
X11659229Y-16384650D01*
X11659229Y-16384650D02*
X11678277Y-16394174D01*
X11678277Y-16394174D02*
X11687801Y-16413222D01*
X11687801Y-16413222D02*
X11687801Y-16517984D01*
X11687801Y-16413222D02*
X11697324Y-16394174D01*
X11697324Y-16394174D02*
X11716372Y-16384650D01*
X11716372Y-16384650D02*
X11744943Y-16384650D01*
X11744943Y-16384650D02*
X11763991Y-16394174D01*
X11763991Y-16394174D02*
X11773515Y-16413222D01*
X11773515Y-16413222D02*
X11773515Y-16517984D01*
X12163991Y-16308460D02*
X11992563Y-16565603D01*
X12421134Y-16317984D02*
X12440182Y-16317984D01*
X12440182Y-16317984D02*
X12459229Y-16327508D01*
X12459229Y-16327508D02*
X12468753Y-16337031D01*
X12468753Y-16337031D02*
X12478277Y-16356079D01*
X12478277Y-16356079D02*
X12487801Y-16394174D01*
X12487801Y-16394174D02*
X12487801Y-16441793D01*
X12487801Y-16441793D02*
X12478277Y-16479888D01*
X12478277Y-16479888D02*
X12468753Y-16498936D01*
X12468753Y-16498936D02*
X12459229Y-16508460D01*
X12459229Y-16508460D02*
X12440182Y-16517984D01*
X12440182Y-16517984D02*
X12421134Y-16517984D01*
X12421134Y-16517984D02*
X12402086Y-16508460D01*
X12402086Y-16508460D02*
X12392563Y-16498936D01*
X12392563Y-16498936D02*
X12383039Y-16479888D01*
X12383039Y-16479888D02*
X12373515Y-16441793D01*
X12373515Y-16441793D02*
X12373515Y-16394174D01*
X12373515Y-16394174D02*
X12383039Y-16356079D01*
X12383039Y-16356079D02*
X12392563Y-16337031D01*
X12392563Y-16337031D02*
X12402086Y-16327508D01*
X12402086Y-16327508D02*
X12421134Y-16317984D01*
X12573515Y-16498936D02*
X12583039Y-16508460D01*
X12583039Y-16508460D02*
X12573515Y-16517984D01*
X12573515Y-16517984D02*
X12563991Y-16508460D01*
X12563991Y-16508460D02*
X12573515Y-16498936D01*
X12573515Y-16498936D02*
X12573515Y-16517984D01*
X12706848Y-16317984D02*
X12725896Y-16317984D01*
X12725896Y-16317984D02*
X12744944Y-16327508D01*
X12744944Y-16327508D02*
X12754467Y-16337031D01*
X12754467Y-16337031D02*
X12763991Y-16356079D01*
X12763991Y-16356079D02*
X12773515Y-16394174D01*
X12773515Y-16394174D02*
X12773515Y-16441793D01*
X12773515Y-16441793D02*
X12763991Y-16479888D01*
X12763991Y-16479888D02*
X12754467Y-16498936D01*
X12754467Y-16498936D02*
X12744944Y-16508460D01*
X12744944Y-16508460D02*
X12725896Y-16517984D01*
X12725896Y-16517984D02*
X12706848Y-16517984D01*
X12706848Y-16517984D02*
X12687801Y-16508460D01*
X12687801Y-16508460D02*
X12678277Y-16498936D01*
X12678277Y-16498936D02*
X12668753Y-16479888D01*
X12668753Y-16479888D02*
X12659229Y-16441793D01*
X12659229Y-16441793D02*
X12659229Y-16394174D01*
X12659229Y-16394174D02*
X12668753Y-16356079D01*
X12668753Y-16356079D02*
X12678277Y-16337031D01*
X12678277Y-16337031D02*
X12687801Y-16327508D01*
X12687801Y-16327508D02*
X12706848Y-16317984D01*
X12868753Y-16517984D02*
X12906848Y-16517984D01*
X12906848Y-16517984D02*
X12925896Y-16508460D01*
X12925896Y-16508460D02*
X12935420Y-16498936D01*
X12935420Y-16498936D02*
X12954467Y-16470365D01*
X12954467Y-16470365D02*
X12963991Y-16432269D01*
X12963991Y-16432269D02*
X12963991Y-16356079D01*
X12963991Y-16356079D02*
X12954467Y-16337031D01*
X12954467Y-16337031D02*
X12944944Y-16327508D01*
X12944944Y-16327508D02*
X12925896Y-16317984D01*
X12925896Y-16317984D02*
X12887801Y-16317984D01*
X12887801Y-16317984D02*
X12868753Y-16327508D01*
X12868753Y-16327508D02*
X12859229Y-16337031D01*
X12859229Y-16337031D02*
X12849706Y-16356079D01*
X12849706Y-16356079D02*
X12849706Y-16403698D01*
X12849706Y-16403698D02*
X12859229Y-16422746D01*
X12859229Y-16422746D02*
X12868753Y-16432269D01*
X12868753Y-16432269D02*
X12887801Y-16441793D01*
X12887801Y-16441793D02*
X12925896Y-16441793D01*
X12925896Y-16441793D02*
X12944944Y-16432269D01*
X12944944Y-16432269D02*
X12954467Y-16422746D01*
X12954467Y-16422746D02*
X12963991Y-16403698D01*
X13078277Y-16403698D02*
X13059229Y-16394174D01*
X13059229Y-16394174D02*
X13049706Y-16384650D01*
X13049706Y-16384650D02*
X13040182Y-16365603D01*
X13040182Y-16365603D02*
X13040182Y-16356079D01*
X13040182Y-16356079D02*
X13049706Y-16337031D01*
X13049706Y-16337031D02*
X13059229Y-16327508D01*
X13059229Y-16327508D02*
X13078277Y-16317984D01*
X13078277Y-16317984D02*
X13116372Y-16317984D01*
X13116372Y-16317984D02*
X13135420Y-16327508D01*
X13135420Y-16327508D02*
X13144944Y-16337031D01*
X13144944Y-16337031D02*
X13154467Y-16356079D01*
X13154467Y-16356079D02*
X13154467Y-16365603D01*
X13154467Y-16365603D02*
X13144944Y-16384650D01*
X13144944Y-16384650D02*
X13135420Y-16394174D01*
X13135420Y-16394174D02*
X13116372Y-16403698D01*
X13116372Y-16403698D02*
X13078277Y-16403698D01*
X13078277Y-16403698D02*
X13059229Y-16413222D01*
X13059229Y-16413222D02*
X13049706Y-16422746D01*
X13049706Y-16422746D02*
X13040182Y-16441793D01*
X13040182Y-16441793D02*
X13040182Y-16479888D01*
X13040182Y-16479888D02*
X13049706Y-16498936D01*
X13049706Y-16498936D02*
X13059229Y-16508460D01*
X13059229Y-16508460D02*
X13078277Y-16517984D01*
X13078277Y-16517984D02*
X13116372Y-16517984D01*
X13116372Y-16517984D02*
X13135420Y-16508460D01*
X13135420Y-16508460D02*
X13144944Y-16498936D01*
X13144944Y-16498936D02*
X13154467Y-16479888D01*
X13154467Y-16479888D02*
X13154467Y-16441793D01*
X13154467Y-16441793D02*
X13144944Y-16422746D01*
X13144944Y-16422746D02*
X13135420Y-16413222D01*
X13135420Y-16413222D02*
X13116372Y-16403698D01*
X13325896Y-16384650D02*
X13325896Y-16517984D01*
X13278277Y-16308460D02*
X13230658Y-16451317D01*
X13230658Y-16451317D02*
X13354467Y-16451317D01*
X13421134Y-16317984D02*
X13421134Y-16356079D01*
X13497325Y-16317984D02*
X13497325Y-16356079D01*
X13792563Y-16594174D02*
X13783039Y-16584650D01*
X13783039Y-16584650D02*
X13763991Y-16556079D01*
X13763991Y-16556079D02*
X13754468Y-16537031D01*
X13754468Y-16537031D02*
X13744944Y-16508460D01*
X13744944Y-16508460D02*
X13735420Y-16460841D01*
X13735420Y-16460841D02*
X13735420Y-16422746D01*
X13735420Y-16422746D02*
X13744944Y-16375127D01*
X13744944Y-16375127D02*
X13754468Y-16346555D01*
X13754468Y-16346555D02*
X13763991Y-16327508D01*
X13763991Y-16327508D02*
X13783039Y-16298936D01*
X13783039Y-16298936D02*
X13792563Y-16289412D01*
X13954468Y-16384650D02*
X13954468Y-16517984D01*
X13906848Y-16308460D02*
X13859229Y-16451317D01*
X13859229Y-16451317D02*
X13983039Y-16451317D01*
X14211610Y-16517984D02*
X14211610Y-16317984D01*
X14297325Y-16517984D02*
X14297325Y-16413222D01*
X14297325Y-16413222D02*
X14287801Y-16394174D01*
X14287801Y-16394174D02*
X14268753Y-16384650D01*
X14268753Y-16384650D02*
X14240182Y-16384650D01*
X14240182Y-16384650D02*
X14221134Y-16394174D01*
X14221134Y-16394174D02*
X14211610Y-16403698D01*
X14421134Y-16517984D02*
X14402087Y-16508460D01*
X14402087Y-16508460D02*
X14392563Y-16498936D01*
X14392563Y-16498936D02*
X14383039Y-16479888D01*
X14383039Y-16479888D02*
X14383039Y-16422746D01*
X14383039Y-16422746D02*
X14392563Y-16403698D01*
X14392563Y-16403698D02*
X14402087Y-16394174D01*
X14402087Y-16394174D02*
X14421134Y-16384650D01*
X14421134Y-16384650D02*
X14449706Y-16384650D01*
X14449706Y-16384650D02*
X14468753Y-16394174D01*
X14468753Y-16394174D02*
X14478277Y-16403698D01*
X14478277Y-16403698D02*
X14487801Y-16422746D01*
X14487801Y-16422746D02*
X14487801Y-16479888D01*
X14487801Y-16479888D02*
X14478277Y-16498936D01*
X14478277Y-16498936D02*
X14468753Y-16508460D01*
X14468753Y-16508460D02*
X14449706Y-16517984D01*
X14449706Y-16517984D02*
X14421134Y-16517984D01*
X14602087Y-16517984D02*
X14583039Y-16508460D01*
X14583039Y-16508460D02*
X14573515Y-16489412D01*
X14573515Y-16489412D02*
X14573515Y-16317984D01*
X14754468Y-16508460D02*
X14735420Y-16517984D01*
X14735420Y-16517984D02*
X14697325Y-16517984D01*
X14697325Y-16517984D02*
X14678277Y-16508460D01*
X14678277Y-16508460D02*
X14668753Y-16489412D01*
X14668753Y-16489412D02*
X14668753Y-16413222D01*
X14668753Y-16413222D02*
X14678277Y-16394174D01*
X14678277Y-16394174D02*
X14697325Y-16384650D01*
X14697325Y-16384650D02*
X14735420Y-16384650D01*
X14735420Y-16384650D02*
X14754468Y-16394174D01*
X14754468Y-16394174D02*
X14763991Y-16413222D01*
X14763991Y-16413222D02*
X14763991Y-16432269D01*
X14763991Y-16432269D02*
X14668753Y-16451317D01*
X14840182Y-16508460D02*
X14859230Y-16517984D01*
X14859230Y-16517984D02*
X14897325Y-16517984D01*
X14897325Y-16517984D02*
X14916372Y-16508460D01*
X14916372Y-16508460D02*
X14925896Y-16489412D01*
X14925896Y-16489412D02*
X14925896Y-16479888D01*
X14925896Y-16479888D02*
X14916372Y-16460841D01*
X14916372Y-16460841D02*
X14897325Y-16451317D01*
X14897325Y-16451317D02*
X14868753Y-16451317D01*
X14868753Y-16451317D02*
X14849706Y-16441793D01*
X14849706Y-16441793D02*
X14840182Y-16422746D01*
X14840182Y-16422746D02*
X14840182Y-16413222D01*
X14840182Y-16413222D02*
X14849706Y-16394174D01*
X14849706Y-16394174D02*
X14868753Y-16384650D01*
X14868753Y-16384650D02*
X14897325Y-16384650D01*
X14897325Y-16384650D02*
X14916372Y-16394174D01*
X14992563Y-16594174D02*
X15002087Y-16584650D01*
X15002087Y-16584650D02*
X15021134Y-16556079D01*
X15021134Y-16556079D02*
X15030658Y-16537031D01*
X15030658Y-16537031D02*
X15040182Y-16508460D01*
X15040182Y-16508460D02*
X15049706Y-16460841D01*
X15049706Y-16460841D02*
X15049706Y-16422746D01*
X15049706Y-16422746D02*
X15040182Y-16375127D01*
X15040182Y-16375127D02*
X15030658Y-16346555D01*
X15030658Y-16346555D02*
X15021134Y-16327508D01*
X15021134Y-16327508D02*
X15002087Y-16298936D01*
X15002087Y-16298936D02*
X14992563Y-16289412D01*
D14*
X10107500Y-16691500D02*
X10217500Y-16801500D01*
X10217500Y-16691500D02*
X10107500Y-16801500D01*
X10201391Y-16785391D02*
X10201391Y-16707609D01*
X10123609Y-16707609D01*
X10123609Y-16785391D01*
X10201391Y-16785391D01*
D11*
X10583039Y-16837984D02*
X10468753Y-16837984D01*
X10525896Y-16837984D02*
X10525896Y-16637984D01*
X10525896Y-16637984D02*
X10506848Y-16666555D01*
X10506848Y-16666555D02*
X10487801Y-16685603D01*
X10487801Y-16685603D02*
X10468753Y-16695127D01*
X10668753Y-16818936D02*
X10678277Y-16828460D01*
X10678277Y-16828460D02*
X10668753Y-16837984D01*
X10668753Y-16837984D02*
X10659229Y-16828460D01*
X10659229Y-16828460D02*
X10668753Y-16818936D01*
X10668753Y-16818936D02*
X10668753Y-16837984D01*
X10868753Y-16837984D02*
X10754467Y-16837984D01*
X10811610Y-16837984D02*
X10811610Y-16637984D01*
X10811610Y-16637984D02*
X10792563Y-16666555D01*
X10792563Y-16666555D02*
X10773515Y-16685603D01*
X10773515Y-16685603D02*
X10754467Y-16695127D01*
X10992563Y-16637984D02*
X11011610Y-16637984D01*
X11011610Y-16637984D02*
X11030658Y-16647508D01*
X11030658Y-16647508D02*
X11040182Y-16657031D01*
X11040182Y-16657031D02*
X11049705Y-16676079D01*
X11049705Y-16676079D02*
X11059229Y-16714174D01*
X11059229Y-16714174D02*
X11059229Y-16761793D01*
X11059229Y-16761793D02*
X11049705Y-16799889D01*
X11049705Y-16799889D02*
X11040182Y-16818936D01*
X11040182Y-16818936D02*
X11030658Y-16828460D01*
X11030658Y-16828460D02*
X11011610Y-16837984D01*
X11011610Y-16837984D02*
X10992563Y-16837984D01*
X10992563Y-16837984D02*
X10973515Y-16828460D01*
X10973515Y-16828460D02*
X10963991Y-16818936D01*
X10963991Y-16818936D02*
X10954467Y-16799889D01*
X10954467Y-16799889D02*
X10944944Y-16761793D01*
X10944944Y-16761793D02*
X10944944Y-16714174D01*
X10944944Y-16714174D02*
X10954467Y-16676079D01*
X10954467Y-16676079D02*
X10963991Y-16657031D01*
X10963991Y-16657031D02*
X10973515Y-16647508D01*
X10973515Y-16647508D02*
X10992563Y-16637984D01*
X11183039Y-16637984D02*
X11202086Y-16637984D01*
X11202086Y-16637984D02*
X11221134Y-16647508D01*
X11221134Y-16647508D02*
X11230658Y-16657031D01*
X11230658Y-16657031D02*
X11240182Y-16676079D01*
X11240182Y-16676079D02*
X11249705Y-16714174D01*
X11249705Y-16714174D02*
X11249705Y-16761793D01*
X11249705Y-16761793D02*
X11240182Y-16799889D01*
X11240182Y-16799889D02*
X11230658Y-16818936D01*
X11230658Y-16818936D02*
X11221134Y-16828460D01*
X11221134Y-16828460D02*
X11202086Y-16837984D01*
X11202086Y-16837984D02*
X11183039Y-16837984D01*
X11183039Y-16837984D02*
X11163991Y-16828460D01*
X11163991Y-16828460D02*
X11154467Y-16818936D01*
X11154467Y-16818936D02*
X11144944Y-16799889D01*
X11144944Y-16799889D02*
X11135420Y-16761793D01*
X11135420Y-16761793D02*
X11135420Y-16714174D01*
X11135420Y-16714174D02*
X11144944Y-16676079D01*
X11144944Y-16676079D02*
X11154467Y-16657031D01*
X11154467Y-16657031D02*
X11163991Y-16647508D01*
X11163991Y-16647508D02*
X11183039Y-16637984D01*
X11335420Y-16837984D02*
X11335420Y-16704650D01*
X11335420Y-16723698D02*
X11344943Y-16714174D01*
X11344943Y-16714174D02*
X11363991Y-16704650D01*
X11363991Y-16704650D02*
X11392563Y-16704650D01*
X11392563Y-16704650D02*
X11411610Y-16714174D01*
X11411610Y-16714174D02*
X11421134Y-16733222D01*
X11421134Y-16733222D02*
X11421134Y-16837984D01*
X11421134Y-16733222D02*
X11430658Y-16714174D01*
X11430658Y-16714174D02*
X11449705Y-16704650D01*
X11449705Y-16704650D02*
X11478277Y-16704650D01*
X11478277Y-16704650D02*
X11497324Y-16714174D01*
X11497324Y-16714174D02*
X11506848Y-16733222D01*
X11506848Y-16733222D02*
X11506848Y-16837984D01*
X11602086Y-16837984D02*
X11602086Y-16704650D01*
X11602086Y-16723698D02*
X11611610Y-16714174D01*
X11611610Y-16714174D02*
X11630658Y-16704650D01*
X11630658Y-16704650D02*
X11659229Y-16704650D01*
X11659229Y-16704650D02*
X11678277Y-16714174D01*
X11678277Y-16714174D02*
X11687801Y-16733222D01*
X11687801Y-16733222D02*
X11687801Y-16837984D01*
X11687801Y-16733222D02*
X11697324Y-16714174D01*
X11697324Y-16714174D02*
X11716372Y-16704650D01*
X11716372Y-16704650D02*
X11744943Y-16704650D01*
X11744943Y-16704650D02*
X11763991Y-16714174D01*
X11763991Y-16714174D02*
X11773515Y-16733222D01*
X11773515Y-16733222D02*
X11773515Y-16837984D01*
X12163991Y-16628460D02*
X11992563Y-16885603D01*
X12421134Y-16637984D02*
X12440182Y-16637984D01*
X12440182Y-16637984D02*
X12459229Y-16647508D01*
X12459229Y-16647508D02*
X12468753Y-16657031D01*
X12468753Y-16657031D02*
X12478277Y-16676079D01*
X12478277Y-16676079D02*
X12487801Y-16714174D01*
X12487801Y-16714174D02*
X12487801Y-16761793D01*
X12487801Y-16761793D02*
X12478277Y-16799889D01*
X12478277Y-16799889D02*
X12468753Y-16818936D01*
X12468753Y-16818936D02*
X12459229Y-16828460D01*
X12459229Y-16828460D02*
X12440182Y-16837984D01*
X12440182Y-16837984D02*
X12421134Y-16837984D01*
X12421134Y-16837984D02*
X12402086Y-16828460D01*
X12402086Y-16828460D02*
X12392563Y-16818936D01*
X12392563Y-16818936D02*
X12383039Y-16799889D01*
X12383039Y-16799889D02*
X12373515Y-16761793D01*
X12373515Y-16761793D02*
X12373515Y-16714174D01*
X12373515Y-16714174D02*
X12383039Y-16676079D01*
X12383039Y-16676079D02*
X12392563Y-16657031D01*
X12392563Y-16657031D02*
X12402086Y-16647508D01*
X12402086Y-16647508D02*
X12421134Y-16637984D01*
X12573515Y-16818936D02*
X12583039Y-16828460D01*
X12583039Y-16828460D02*
X12573515Y-16837984D01*
X12573515Y-16837984D02*
X12563991Y-16828460D01*
X12563991Y-16828460D02*
X12573515Y-16818936D01*
X12573515Y-16818936D02*
X12573515Y-16837984D01*
X12706848Y-16637984D02*
X12725896Y-16637984D01*
X12725896Y-16637984D02*
X12744944Y-16647508D01*
X12744944Y-16647508D02*
X12754467Y-16657031D01*
X12754467Y-16657031D02*
X12763991Y-16676079D01*
X12763991Y-16676079D02*
X12773515Y-16714174D01*
X12773515Y-16714174D02*
X12773515Y-16761793D01*
X12773515Y-16761793D02*
X12763991Y-16799889D01*
X12763991Y-16799889D02*
X12754467Y-16818936D01*
X12754467Y-16818936D02*
X12744944Y-16828460D01*
X12744944Y-16828460D02*
X12725896Y-16837984D01*
X12725896Y-16837984D02*
X12706848Y-16837984D01*
X12706848Y-16837984D02*
X12687801Y-16828460D01*
X12687801Y-16828460D02*
X12678277Y-16818936D01*
X12678277Y-16818936D02*
X12668753Y-16799889D01*
X12668753Y-16799889D02*
X12659229Y-16761793D01*
X12659229Y-16761793D02*
X12659229Y-16714174D01*
X12659229Y-16714174D02*
X12668753Y-16676079D01*
X12668753Y-16676079D02*
X12678277Y-16657031D01*
X12678277Y-16657031D02*
X12687801Y-16647508D01*
X12687801Y-16647508D02*
X12706848Y-16637984D01*
X12944944Y-16704650D02*
X12944944Y-16837984D01*
X12897325Y-16628460D02*
X12849706Y-16771317D01*
X12849706Y-16771317D02*
X12973515Y-16771317D01*
X13030658Y-16637984D02*
X13154467Y-16637984D01*
X13154467Y-16637984D02*
X13087801Y-16714174D01*
X13087801Y-16714174D02*
X13116372Y-16714174D01*
X13116372Y-16714174D02*
X13135420Y-16723698D01*
X13135420Y-16723698D02*
X13144944Y-16733222D01*
X13144944Y-16733222D02*
X13154467Y-16752269D01*
X13154467Y-16752269D02*
X13154467Y-16799889D01*
X13154467Y-16799889D02*
X13144944Y-16818936D01*
X13144944Y-16818936D02*
X13135420Y-16828460D01*
X13135420Y-16828460D02*
X13116372Y-16837984D01*
X13116372Y-16837984D02*
X13059229Y-16837984D01*
X13059229Y-16837984D02*
X13040182Y-16828460D01*
X13040182Y-16828460D02*
X13030658Y-16818936D01*
X13221134Y-16637984D02*
X13344944Y-16637984D01*
X13344944Y-16637984D02*
X13278277Y-16714174D01*
X13278277Y-16714174D02*
X13306848Y-16714174D01*
X13306848Y-16714174D02*
X13325896Y-16723698D01*
X13325896Y-16723698D02*
X13335420Y-16733222D01*
X13335420Y-16733222D02*
X13344944Y-16752269D01*
X13344944Y-16752269D02*
X13344944Y-16799889D01*
X13344944Y-16799889D02*
X13335420Y-16818936D01*
X13335420Y-16818936D02*
X13325896Y-16828460D01*
X13325896Y-16828460D02*
X13306848Y-16837984D01*
X13306848Y-16837984D02*
X13249706Y-16837984D01*
X13249706Y-16837984D02*
X13230658Y-16828460D01*
X13230658Y-16828460D02*
X13221134Y-16818936D01*
X13421134Y-16637984D02*
X13421134Y-16676079D01*
X13497325Y-16637984D02*
X13497325Y-16676079D01*
X13792563Y-16914174D02*
X13783039Y-16904650D01*
X13783039Y-16904650D02*
X13763991Y-16876079D01*
X13763991Y-16876079D02*
X13754468Y-16857031D01*
X13754468Y-16857031D02*
X13744944Y-16828460D01*
X13744944Y-16828460D02*
X13735420Y-16780841D01*
X13735420Y-16780841D02*
X13735420Y-16742746D01*
X13735420Y-16742746D02*
X13744944Y-16695127D01*
X13744944Y-16695127D02*
X13754468Y-16666555D01*
X13754468Y-16666555D02*
X13763991Y-16647508D01*
X13763991Y-16647508D02*
X13783039Y-16618936D01*
X13783039Y-16618936D02*
X13792563Y-16609412D01*
X13859229Y-16657031D02*
X13868753Y-16647508D01*
X13868753Y-16647508D02*
X13887801Y-16637984D01*
X13887801Y-16637984D02*
X13935420Y-16637984D01*
X13935420Y-16637984D02*
X13954468Y-16647508D01*
X13954468Y-16647508D02*
X13963991Y-16657031D01*
X13963991Y-16657031D02*
X13973515Y-16676079D01*
X13973515Y-16676079D02*
X13973515Y-16695127D01*
X13973515Y-16695127D02*
X13963991Y-16723698D01*
X13963991Y-16723698D02*
X13849706Y-16837984D01*
X13849706Y-16837984D02*
X13973515Y-16837984D01*
X14211610Y-16837984D02*
X14211610Y-16637984D01*
X14297325Y-16837984D02*
X14297325Y-16733222D01*
X14297325Y-16733222D02*
X14287801Y-16714174D01*
X14287801Y-16714174D02*
X14268753Y-16704650D01*
X14268753Y-16704650D02*
X14240182Y-16704650D01*
X14240182Y-16704650D02*
X14221134Y-16714174D01*
X14221134Y-16714174D02*
X14211610Y-16723698D01*
X14421134Y-16837984D02*
X14402087Y-16828460D01*
X14402087Y-16828460D02*
X14392563Y-16818936D01*
X14392563Y-16818936D02*
X14383039Y-16799889D01*
X14383039Y-16799889D02*
X14383039Y-16742746D01*
X14383039Y-16742746D02*
X14392563Y-16723698D01*
X14392563Y-16723698D02*
X14402087Y-16714174D01*
X14402087Y-16714174D02*
X14421134Y-16704650D01*
X14421134Y-16704650D02*
X14449706Y-16704650D01*
X14449706Y-16704650D02*
X14468753Y-16714174D01*
X14468753Y-16714174D02*
X14478277Y-16723698D01*
X14478277Y-16723698D02*
X14487801Y-16742746D01*
X14487801Y-16742746D02*
X14487801Y-16799889D01*
X14487801Y-16799889D02*
X14478277Y-16818936D01*
X14478277Y-16818936D02*
X14468753Y-16828460D01*
X14468753Y-16828460D02*
X14449706Y-16837984D01*
X14449706Y-16837984D02*
X14421134Y-16837984D01*
X14602087Y-16837984D02*
X14583039Y-16828460D01*
X14583039Y-16828460D02*
X14573515Y-16809412D01*
X14573515Y-16809412D02*
X14573515Y-16637984D01*
X14754468Y-16828460D02*
X14735420Y-16837984D01*
X14735420Y-16837984D02*
X14697325Y-16837984D01*
X14697325Y-16837984D02*
X14678277Y-16828460D01*
X14678277Y-16828460D02*
X14668753Y-16809412D01*
X14668753Y-16809412D02*
X14668753Y-16733222D01*
X14668753Y-16733222D02*
X14678277Y-16714174D01*
X14678277Y-16714174D02*
X14697325Y-16704650D01*
X14697325Y-16704650D02*
X14735420Y-16704650D01*
X14735420Y-16704650D02*
X14754468Y-16714174D01*
X14754468Y-16714174D02*
X14763991Y-16733222D01*
X14763991Y-16733222D02*
X14763991Y-16752269D01*
X14763991Y-16752269D02*
X14668753Y-16771317D01*
X14840182Y-16828460D02*
X14859230Y-16837984D01*
X14859230Y-16837984D02*
X14897325Y-16837984D01*
X14897325Y-16837984D02*
X14916372Y-16828460D01*
X14916372Y-16828460D02*
X14925896Y-16809412D01*
X14925896Y-16809412D02*
X14925896Y-16799889D01*
X14925896Y-16799889D02*
X14916372Y-16780841D01*
X14916372Y-16780841D02*
X14897325Y-16771317D01*
X14897325Y-16771317D02*
X14868753Y-16771317D01*
X14868753Y-16771317D02*
X14849706Y-16761793D01*
X14849706Y-16761793D02*
X14840182Y-16742746D01*
X14840182Y-16742746D02*
X14840182Y-16733222D01*
X14840182Y-16733222D02*
X14849706Y-16714174D01*
X14849706Y-16714174D02*
X14868753Y-16704650D01*
X14868753Y-16704650D02*
X14897325Y-16704650D01*
X14897325Y-16704650D02*
X14916372Y-16714174D01*
X14992563Y-16914174D02*
X15002087Y-16904650D01*
X15002087Y-16904650D02*
X15021134Y-16876079D01*
X15021134Y-16876079D02*
X15030658Y-16857031D01*
X15030658Y-16857031D02*
X15040182Y-16828460D01*
X15040182Y-16828460D02*
X15049706Y-16780841D01*
X15049706Y-16780841D02*
X15049706Y-16742746D01*
X15049706Y-16742746D02*
X15040182Y-16695127D01*
X15040182Y-16695127D02*
X15030658Y-16666555D01*
X15030658Y-16666555D02*
X15021134Y-16647508D01*
X15021134Y-16647508D02*
X15002087Y-16618936D01*
X15002087Y-16618936D02*
X14992563Y-16609412D01*
X15354468Y-16914174D02*
X15344944Y-16904650D01*
X15344944Y-16904650D02*
X15325896Y-16876079D01*
X15325896Y-16876079D02*
X15316372Y-16857031D01*
X15316372Y-16857031D02*
X15306849Y-16828460D01*
X15306849Y-16828460D02*
X15297325Y-16780841D01*
X15297325Y-16780841D02*
X15297325Y-16742746D01*
X15297325Y-16742746D02*
X15306849Y-16695127D01*
X15306849Y-16695127D02*
X15316372Y-16666555D01*
X15316372Y-16666555D02*
X15325896Y-16647508D01*
X15325896Y-16647508D02*
X15344944Y-16618936D01*
X15344944Y-16618936D02*
X15354468Y-16609412D01*
X15430658Y-16704650D02*
X15430658Y-16837984D01*
X15430658Y-16723698D02*
X15440182Y-16714174D01*
X15440182Y-16714174D02*
X15459230Y-16704650D01*
X15459230Y-16704650D02*
X15487801Y-16704650D01*
X15487801Y-16704650D02*
X15506849Y-16714174D01*
X15506849Y-16714174D02*
X15516372Y-16733222D01*
X15516372Y-16733222D02*
X15516372Y-16837984D01*
X15640182Y-16837984D02*
X15621134Y-16828460D01*
X15621134Y-16828460D02*
X15611611Y-16818936D01*
X15611611Y-16818936D02*
X15602087Y-16799889D01*
X15602087Y-16799889D02*
X15602087Y-16742746D01*
X15602087Y-16742746D02*
X15611611Y-16723698D01*
X15611611Y-16723698D02*
X15621134Y-16714174D01*
X15621134Y-16714174D02*
X15640182Y-16704650D01*
X15640182Y-16704650D02*
X15668753Y-16704650D01*
X15668753Y-16704650D02*
X15687801Y-16714174D01*
X15687801Y-16714174D02*
X15697325Y-16723698D01*
X15697325Y-16723698D02*
X15706849Y-16742746D01*
X15706849Y-16742746D02*
X15706849Y-16799889D01*
X15706849Y-16799889D02*
X15697325Y-16818936D01*
X15697325Y-16818936D02*
X15687801Y-16828460D01*
X15687801Y-16828460D02*
X15668753Y-16837984D01*
X15668753Y-16837984D02*
X15640182Y-16837984D01*
X15763992Y-16704650D02*
X15840182Y-16704650D01*
X15792563Y-16637984D02*
X15792563Y-16809412D01*
X15792563Y-16809412D02*
X15802087Y-16828460D01*
X15802087Y-16828460D02*
X15821134Y-16837984D01*
X15821134Y-16837984D02*
X15840182Y-16837984D01*
X16059230Y-16704650D02*
X16059230Y-16904650D01*
X16059230Y-16714174D02*
X16078277Y-16704650D01*
X16078277Y-16704650D02*
X16116373Y-16704650D01*
X16116373Y-16704650D02*
X16135420Y-16714174D01*
X16135420Y-16714174D02*
X16144944Y-16723698D01*
X16144944Y-16723698D02*
X16154468Y-16742746D01*
X16154468Y-16742746D02*
X16154468Y-16799889D01*
X16154468Y-16799889D02*
X16144944Y-16818936D01*
X16144944Y-16818936D02*
X16135420Y-16828460D01*
X16135420Y-16828460D02*
X16116373Y-16837984D01*
X16116373Y-16837984D02*
X16078277Y-16837984D01*
X16078277Y-16837984D02*
X16059230Y-16828460D01*
X16268753Y-16837984D02*
X16249706Y-16828460D01*
X16249706Y-16828460D02*
X16240182Y-16809412D01*
X16240182Y-16809412D02*
X16240182Y-16637984D01*
X16430658Y-16837984D02*
X16430658Y-16733222D01*
X16430658Y-16733222D02*
X16421134Y-16714174D01*
X16421134Y-16714174D02*
X16402087Y-16704650D01*
X16402087Y-16704650D02*
X16363992Y-16704650D01*
X16363992Y-16704650D02*
X16344944Y-16714174D01*
X16430658Y-16828460D02*
X16411611Y-16837984D01*
X16411611Y-16837984D02*
X16363992Y-16837984D01*
X16363992Y-16837984D02*
X16344944Y-16828460D01*
X16344944Y-16828460D02*
X16335420Y-16809412D01*
X16335420Y-16809412D02*
X16335420Y-16790365D01*
X16335420Y-16790365D02*
X16344944Y-16771317D01*
X16344944Y-16771317D02*
X16363992Y-16761793D01*
X16363992Y-16761793D02*
X16411611Y-16761793D01*
X16411611Y-16761793D02*
X16430658Y-16752269D01*
X16497325Y-16704650D02*
X16573515Y-16704650D01*
X16525896Y-16637984D02*
X16525896Y-16809412D01*
X16525896Y-16809412D02*
X16535420Y-16828460D01*
X16535420Y-16828460D02*
X16554468Y-16837984D01*
X16554468Y-16837984D02*
X16573515Y-16837984D01*
X16716373Y-16828460D02*
X16697325Y-16837984D01*
X16697325Y-16837984D02*
X16659230Y-16837984D01*
X16659230Y-16837984D02*
X16640182Y-16828460D01*
X16640182Y-16828460D02*
X16630658Y-16809412D01*
X16630658Y-16809412D02*
X16630658Y-16733222D01*
X16630658Y-16733222D02*
X16640182Y-16714174D01*
X16640182Y-16714174D02*
X16659230Y-16704650D01*
X16659230Y-16704650D02*
X16697325Y-16704650D01*
X16697325Y-16704650D02*
X16716373Y-16714174D01*
X16716373Y-16714174D02*
X16725896Y-16733222D01*
X16725896Y-16733222D02*
X16725896Y-16752269D01*
X16725896Y-16752269D02*
X16630658Y-16771317D01*
X16897325Y-16837984D02*
X16897325Y-16637984D01*
X16897325Y-16828460D02*
X16878277Y-16837984D01*
X16878277Y-16837984D02*
X16840182Y-16837984D01*
X16840182Y-16837984D02*
X16821135Y-16828460D01*
X16821135Y-16828460D02*
X16811611Y-16818936D01*
X16811611Y-16818936D02*
X16802087Y-16799889D01*
X16802087Y-16799889D02*
X16802087Y-16742746D01*
X16802087Y-16742746D02*
X16811611Y-16723698D01*
X16811611Y-16723698D02*
X16821135Y-16714174D01*
X16821135Y-16714174D02*
X16840182Y-16704650D01*
X16840182Y-16704650D02*
X16878277Y-16704650D01*
X16878277Y-16704650D02*
X16897325Y-16714174D01*
X16973516Y-16914174D02*
X16983039Y-16904650D01*
X16983039Y-16904650D02*
X17002087Y-16876079D01*
X17002087Y-16876079D02*
X17011611Y-16857031D01*
X17011611Y-16857031D02*
X17021135Y-16828460D01*
X17021135Y-16828460D02*
X17030658Y-16780841D01*
X17030658Y-16780841D02*
X17030658Y-16742746D01*
X17030658Y-16742746D02*
X17021135Y-16695127D01*
X17021135Y-16695127D02*
X17011611Y-16666555D01*
X17011611Y-16666555D02*
X17002087Y-16647508D01*
X17002087Y-16647508D02*
X16983039Y-16618936D01*
X16983039Y-16618936D02*
X16973516Y-16609412D01*
M02*
